/* XPM */
static char *result[] = {
/* columns rows colors chars-per-pixel */
"160 43 114 2 ",
"   c #3E1E1E",
".  c #1E2828",
"X  c #272727",
"o  c #2E2727",
"O  c #252929",
"+  c #292929",
"@  c #322626",
"#  c #3A2222",
"$  c #342929",
"%  c #3A2A2A",
"&  c #5E0E0E",
"*  c #4D1616",
"=  c #441B1B",
"-  c #4B1919",
";  c #531414",
":  c #591111",
">  c #541C1C",
",  c #591F1F",
"<  c #6D0707",
"1  c #640B0B",
"2  c #6A0808",
"3  c #730404",
"4  c #7B0000",
"5  c #700808",
"6  c #7B0D0D",
"7  c #6A1717",
"8  c #611D1D",
"9  c #6F1A1A",
"0  c #7C1717",
"q  c #721919",
"w  c #791A1A",
"e  c #472323",
"r  c #4C2222",
"t  c #432929",
"y  c #4C2A2A",
"u  c #532020",
"i  c #5D2323",
"p  c #542B2B",
"a  c #5D2929",
"s  c #632626",
"d  c #6D2727",
"f  c #622828",
"g  c #6B2C2C",
"h  c #772626",
"j  c #7B2727",
"k  c #732D2D",
"l  c #7B2828",
"z  c #840505",
"x  c #880606",
"c  c #8E0B0B",
"v  c #940D0D",
"b  c #990F0F",
"n  c #861515",
"m  c #8B1414",
"M  c #8B1A1A",
"N  c #951111",
"B  c #9A1111",
"V  c #951D1D",
"C  c #9F1818",
"Z  c #A21515",
"A  c #A41C1C",
"S  c #AA1E1E",
"D  c #862727",
"F  c #882727",
"G  c #872D2D",
"H  c #8A2F2F",
"J  c #972626",
"K  c #9C2626",
"L  c #942E2E",
"P  c #9D2A2A",
"I  c #8D3030",
"U  c #953030",
"Y  c #9A3030",
"T  c #A52525",
"R  c #AD2626",
"E  c #A42E2E",
"W  c #AD2828",
"Q  c #B02626",
"!  c #B42A2A",
"~  c #BA2D2D",
"^  c #A03030",
"/  c #AA3030",
"(  c #B13131",
")  c #BE3131",
"_  c #BA3F3F",
"`  c #C32E2E",
"'  c #C33232",
"]  c #C93232",
"[  c #C63D3D",
"{  c #BF4C4C",
"}  c #C44646",
"|  c #C84242",
" . c #C04F4F",
".. c #CB4B4B",
"X. c #C45555",
"o. c #D15A5A",
"O. c #D56464",
"+. c #D56A6A",
"@. c #D47373",
"#. c #D67D7D",
"$. c #DE7D7D",
"%. c #D98484",
"&. c #E18383",
"*. c #E59393",
"=. c #EBA0A0",
"-. c #EAA9A9",
";. c #F0ABAB",
":. c #EFB2B2",
">. c #F2B0B0",
",. c #F6BBBB",
"<. c #FAC6C6",
"1. c #FCCECE",
"2. c #FFD3D3",
"3. c None",
/* pixels */
"3.3.3.3.3.O O O O O O O O O O O O 3.3.3.3.3.3.3.3.O O O . O O . O O O O . 3.3.3.3.3.3.3.3.3.3.3.3.3.3.3.3.3.3.3.3.3.3.3.3.3.3.3.3.3.3.3.3.3.3.3.3.3.3.3.3.3.3.3.3.3.3.3.3.3.3.3.3.3.3.3.3.3.3.3.3.3.3.3.3.3.3.3.3.3.3.3.3.3.3.3.3.3.3.3.3.3.3.3.3.3.3.3.3.3.3.3.3.3.3.3.3.3.3.3.3.3.3.3.3.3.3.3.3.3.3.3.3.3.3.3.3.3.3.3.3.3.3.3.",
"3.3.3.3.3.@ @ % % $ @ % $ @ % $ $ $ 3.3.3.3.3.3.3.% % % % % % % % % % % % $ 3.3.3.3.3.3.3.3.3.3.3.3.3.3.3.3.3.3.3.3.3.3.3.3.3.3.3.3.3.3.3.3.3.3.3.3.3.3.3.3.3.3.3.3.3.3.3.3.3.3.3.3.3.3.3.3.3.3.3.3.3.3.3.3.3.3.3.3.3.3.3.3.3.3.3.3.3.3.3.3.3.3.3.3.3.3.3.3.3.3.3.3.3.3.3.3.3.3.3.3.3.3.3.3.3.3.3.3.3.3.3.3.3.3.3.3.3.3.3.3.3.3.",
"3.3.3.3.# > s s s d d s d f d d f y $ 3.3.3.3.3.t f k k k k k k k k k k g p $ 3.3.3.3.3.3.3.3.3.3.3.3.3.3.3.3.3.3.3.3.3.3.3.3.3.3.3.3.3.3.3.3.3.3.3.3.3.3.3.3.3.3.3.3.3.3.3.3.3.3.3.3.3.3.3.3.3.3.3.3.3.3.3.3.3.3.3.3.3.3.3.3.3.3.3.3.3.3.3.3.3.3.3.3.3.3.3.3.3.3.3.3.3.3.3.3.3.3.3.3.3.3.3.3.3.3.3.3.3.3.3.3.3.3.3.3.3.3.3.3.3.",
"3.3.3.o e 9 m V K K K K K K K K J s % O 3.3.3.o p I / ( / ( / / / ( ( ( ^ k % O 3.3.3.3.3.3.3.3.3.3.3.3.3.3.3.3.3.3.3.3.3.3.3.3.3.3.3.3.3.3.3.3.3.3.3.3.3.3.3.3.3.3.3.3.3.3.3.3.3.3.3.3.3.3.3.3.3.3.3.3.3.3.3.3.3.3.3.3.3.3.3.3.3.3.3.3.3.3.3.3.3.3.3.3.3.3.3.3.3.3.3.3.3.3.3.3.3.3.3.3.3.3.3.3.3.3.3.3.3.3.3.3.3.3.3.3.3.3.3.3.",
"3.3.# e , n B Z S R Q Q Q Q Q Q T j p t 3.3.% y g P ' ] ' ' ] ' ` ` ] ] ( I a y 3.3.3.3.3.3.3.3.3.3.3.3.3.3.3.3.3.3.3.3.3.3.3.3.3.3.3.3.3.3.3.3.3.3.3.3.3.3.3.3.3.3.3.3.3.3.3.3.3.3.3.3.3.3.3.3.3.3.3.3.3.3.3.3.3.3.3.3.3.3.3.3.3.3.3.3.3.3.3.3.3.3.3.3.3.3.3.3.3.3.3.3.3.3.3.3.3.3.3.3.3.3.3.3.3.3.3.3.3.3.3.3.3.3.3.3.3.3.3.3.",
"O $ u q n N B Z Z S R Q ! Q Q Q T K F d t $ p j J W ! ~ ' ] ' ` ` ` ` ] ' / U k y + 3.3.3.3.3.3.3.3.3.3.3.3.3.3.3.3.3.3.3.3.3.3.3.3.3.3.3.3.3.3.3.3.3.3.3.3.3.3.3.3.3.3.3.3.3.3.3.3.3.3.3.3.3.3.3.3.3.3.3.3.3.3.3.3.3.3.3.3.3.3.3.3.3.3.3.3.3.3.3.3.3.3.3.3.3.3.3.3.3.3.3.3.3.3.3.3.3.3.3.3.3.3.3.3.3.3.3.3.3.3.3.3.3.3.3.3.3.3.",
"O @ , m B B B B B Z Z R Q Q R R R Q T F p e d K R R Q ~ ) ' [ | } | | ' ' ' ) U p + 3.3.3.3.3.3.3.3.3.3.3.3.3.3.3.3.3.3.3.3.3.3.3.3.3.3.3.3.3.3.3.3.3.3.3.3.3.3.3.3.3.3.3.3.3.3.3.3.3.3.3.3.3.3.3.3.3.3.3.3.3.3.3.3.3.3.3.3.3.3.3.3.3.3.3.3.3.3.3.3.3.3.3.3.3.3.3.3.3.3.3.3.3.3.3.3.3.3.3.3.3.3.3.3.3.3.3.3.3.3.3.3.3.3.3.3.3.3.",
"O % 8 N B B B B B B A S T R R R R Q ! K j d F T Q R R Q ~ } +.&.&.$.O...' ] ' L p + O 3.3.3.3.3.3.3.3.3.3.3.3.3.3.3.3.3.3.3.3.3.3.3.3.3.3.3.3.3.3.3.3.3.3.3.3.3.3.3.3.3.3.3.3.3.3.3.3.3.3.3.3.3.3.3.3.3.3.3.3.3.3.3.3.3.3.3.3.3.3.3.3.3.3.3.3.3.3.3.3.3.3.3.3.3.3.3.3.3.3.3.3.3.3.3.3.3.3.3.3.3.3.3.3.3.3.3.3.3.3.3.3.3.3.3.3.3.",
"O % , m b b B B B B B Z S T R Q R Q Q T T P T T R R R R Q X.*.,.<.,.*.o.' ' ' L p o . 3.3.3.3.3.3.3.3.3.3.3.3.3.3.3.3.3.3.3.3.3.3.3.3.3.3.3.3.3.3.3.3.3.3.3.3.3.3.3.3.3.3.3.3.3.3.3.3.3.3.3.3.3.3.3.3.3.3.3.3.3.3.3.3.3.3.3.3.3.3.3.3.3.3.3.3.3.3.3.3.3.3.3.3.3.3.3.3.3.3.3.3.3.3.3.3.3.3.3.3.3.3.3.3.3.3.3.3.3.3.3.3.3.3.3.3.3.",
"O @ , c b b B B B B B B Z T T R R R W R R Q Q R R R Q T R  .%.-.1.2.;.O.' ` ' L p + . 3.3.3.3.3.3.3.3.3.3.3.3.3.3.3.3.3.3.3.3.3.3.3.3.3.3.3.3.3.3.3.3.3.3.3.3.3.3.3.3.3.3.3.3.3.3.3.3.3.3.3.3.3.3.3.3.3.3.3.3.3.3.3.3.3.3.3.3.3.3.3.3.3.3.3.3.3.3.3.3.3.3.3.3.3.3.3.3.3.3.3.3.3.3.3.3.3.3.3.3.3.3.3.3.3.3.3.3.3.3.3.3.3.3.3.3.3.",
"O @ ; 6 x v B B N B N B B Z S T R W R R R Q Q R W R R R W (  .@.-.1.>.O.' ` ' L p + O O O O O O . O O O O O O O O O O O O O O O O O O O O O O O O O O O O O O O O O O O O O O . O O . O O O O . O . O O O . . O O . O O O . . O O O . O O O O O O O . O O . O O O O . O O O . O O . O . O . . O O O O . O . O O O O O . O 3.3.3.",
"O @ ; 3 z v N B B B B B N B C S R R R R R R R R R R Q R W R R _ %.>.=.O.' ` ' L p + X o o $ o @ $ @ $ $ @ o $ $ o $ o $ @ o $ $ o $ @ @ o $ $ @ $ @ o $ o $ o $ @ @ @ @ @ $ $ $ $ $ $ $ $ $ $ $ $ $ $ $ $ $ $ $ $ $ $ $ $ $ $ $ $ $ $ $ $ $ $ $ $ $ $ $ $ $ $ $ $ $ $ $ $ $ $ $ $ $ % $ $ $ $ $ $ $ $ $ $ $ $ $ $ $ $ $ $ $ 3.3.",
"O @ * 3 z z c v B B B B N B C C S T R R R R R R R R W R R R S Q X.#.@...' ' ) U p $ # = * - * > > i , > i > , > > i , , , > , > u u , , , , , > , , , , > i > i , , > , i i f f a f a f a f f f a f f f f a f f a f f f f a f f a f f a f f a a f f f a a f f a f f f g g g g g g g g g g g g g g g g g g g g g g g g k g p % 3.",
"+ @ * 3 4 4 z c v B B B B B B B C A R R R R R R R R R R R R R W ( _ _ ' ' ] ) U p $ = 1 < < < 6 n n m m n n m m n n n n n n m m m n n n m m n n n n n m n n n n m m n n M V J K J J J J J K J J J J J J J J J J J J J J J J J J J J J J J J J K J J J K J J J J K P E / / / / / / / / / / / / / / / / / / / / / / / / / Y g % O ",
"O @ ; 3 4 4 4 z c N B B N B B B B A S T R R R W R Q R R R R R R R S Q ! ) ] ' L p # * 3 z 4 z x c b b B B B Z B B B B Z B B Z b b Z B B B B Z B B B b B B B B B B Z b B C A R R Q Q R Q Q Q Q Q R Q Q Q Q Q Q Q R Q Q Q Q Q Q Q Q Q Q Q Q Q Q Q R Q Q Q Q Q R Q Q ! ~ ) ' ' ' ] ] ' ' ' ' ] ' ' ' ' ' ] ' ' ' ' ' ' ] ] / k % O ",
"O @ ; 3 z 4 4 4 z c v B B B B v B C Z Z R R R R R R R R R R R R R R R Q ~ ` ' U p @ * 3 4 4 4 4 z c v B B B b b B b B b B b b b b B B B B b b B b B b b Z b B b B B B b B C Z R Q Q Q Q Q Q Q Q Q Q Q Q Q Q Q Q Q Q Q Q Q Q Q Q Q Q Q Q Q Q Q Q Q Q R Q Q Q Q Q Q ! ! ~ ' ' ' ] ' ' ' [ ' ] ' ' ' ' ] ' ' ' ] ' [ ' ] ] ( k % + ",
"O @ * 2 3 4 4 4 4 x c N B B B B B B B C T R R R R R R R R R R R R R R R Q ~ ( I p @ ; 3 4 4 4 4 4 z c B B B B B B B N B B B B N b B B B B N B B B N B B B N B B B b N B B B C A T R R R R R R R R R R R R R R R R R R Q R R W R R R R R R R R R R R R R R R W R R R W Q ~ ) ' ' ' ) ' ' ' ' ) ' ' ) ' ' ) ' ) ' ' ' ' ] ( k % O ",
"+ o   ; 1 3 4 4 4 4 x c v B B B B N B B C S S R R R R R R R R R R R Q Q W P G g % @ * < z 4 4 4 4 4 x c N B B B B B B B N B B B B B N B B B B B B B B B B B B N B N B B B v b C A S R R R R R R R R R W R W R R R R R R R R R R R R R R R R R W R R R R R R R R Q R R R Q ~ ) ) ' ' ' ' ' ' ' ' ' ' ' ) ' ' ' ' ' ' ' ' ! k % O ",
"X X o # * 2 4 4 4 4 4 z c N B B N B B B B C S T R R R R R R W R R R R Q T l p $ o @ ; < 4 4 4 4 4 4 4 z c N B B v B B B B B B B B B B B B B b N N B B B B N B B B B N B B B b B C A T R R R R R R R R R R R R R W R R R R R Q R R R R R R R R R R R R R Q R R R R R R R W Q ~ ) ' ' ) ' ' ) ) ' ' ) ' ' ' ' ' ' ' ' ' ] / k % O ",
"+ o O + # : < 3 3 4 4 4 x c N N B B B B B B Z T R R R R R R R R Q Q T K D p $ O O @ ; 3 4 4 3 4 4 4 4 4 z c v B B B B N B B B B B B B B N B B B B B B N B B B B B B B B N B B N B Z Z T R R R R R W Q R R R R R R R W R R R R R R R R R Q R W R R R W Q R R R R R R R W R R W ~ ) ) ' ' ' ' ' ' ' [ ' ' ) ' ) ' ' ' ' ] ( k % O ",
"+ + O + o # ; 1 3 4 4 4 z z c N B B B B B B B A S R R R R R Q R Q Q K h p # + O O o * 3 4 4 4 4 3 4 4 4 4 x c v B B B B N B B N B B N B B B B N N B B B B N B B B B N B B B B v B B C A S Q R R R R R Q R R R R R R R R R W R R R R R R R R R R R R W R W R R R R R R R W R Q Q ~ ~ ' ' ' ' ) ' ) ' ' ) ' ' ) ' ' ' ' ' ( k % O ",
"+ + + + + + @ ; < 4 4 4 4 4 z c N B B B B N B B C S T R R W R R R T D p $ + + + + @ : 3 4 4 4 4 4 4 3 4 4 4 z m N B B B B B B B N B B B B B B B b B B B B B B B B B B B B B B B B B B B Z T R R R R R R R R W Q R R W R R R R R R W W R R Q R R R R R R R R R R R R R R R R W R W ~ ) ' ) ' ' ' ' ' ' ' ' ' ' ' ' ) ' ] ( k % O ",
"+ + + + + O o   : 1 3 4 4 4 4 x c N N B B B N B B A S T W Q Q R J j f % O O + @   * 1 3 4 4 4 3 4 4 4 4 4 4 4 x c v N B B B B B B B B B B B B B B B B B B B B N N B B B B B B B N B b B A A T R R W R R R R W R R R Q R R R R R R R R R R R W R R R Q R R R R R R R R R R R R R R Q ) ~ ) ' ' ' ) ' ' ) ' ) ) ' ' ' ' ] / k % O ",
"3.3.+ + + O + o # * 2 4 4 4 4 4 z c N B B B B B B B C S R Q Q T j p % o O O + # : 2 3 3 4 4 4 4 3 4 4 4 4 4 4 4 z c N B B B B B B B B N B B B N B N B B B N B B B B N B B B N B B B B N b C Z T R Q R W R R R R R R R R R R R W R R R R R R R R R R R R R R R W Q W R R R R R R R R W ~ ) ' ' ' ' ' ' ' ' ' ' ' ' ' ' ] ( k % O ",
"3.3.3.+ + + + O + # : 2 3 4 4 4 4 x v N N B B B B N B A S T K F a $ O O + o @ * 2 4 4 4 4 4 4 4 4 4 3 4 4 4 3 4 4 x v N B B B B B B B B B B B B B B N B B B B B B B B B B B B B B B B B b B C S T Q R R R R R R R R R R R W R R R R R R R R R R W R Q R W R R R R R R R W R R W R W W Q ~ ) ) ' ' ' ) ' ' ' ' ' ' ' ' ] ( k % O ",
"3.3.3.3.+ + + O O @   ; 1 3 4 4 4 4 z c v B B N B B B Z A V h i % o O O o # ; 1 3 4 4 4 4 4 4 4 4 4 4 4 4 4 4 4 4 4 z c v B B B v B B B B B B N B B B B B B B N B N N B B B N B B N B B B B B C Z T R Q R R R R R R R R R R R R R R R W R R R R R R R R R R R R R R R R R R R R R R R Q Q ~ ~ ' ' ' ' ' ' ) ) ' ' ' ' ' ( k % O ",
"3.3.3.3.3.+ + + + + + # : 2 4 4 4 4 4 x v N B B N B B B N 0 r $ + + + + @ ; 2 4 4 4 4 4 4 3 4 4 4 4 4 4 4 4 4 4 4 4 4 z c v B B B B B N b b B B B B B N b b B B B B B B b b B B B B N B B B B B Z S T R R R R R R R R R R R R R R R R R R R R R R R R R W R R R R R R R R R R R R R W R R Q ~ ' ) ' ' ' ' ' ' ' ' ' ] ] ( k % O ",
"3.3.3.3.3.3.+ + + O O o = : 1 3 4 4 4 4 x c N B B B B m q > % O O + @   ; 1 4 4 4 4 4 4 4 4 4 4 4 4 4 4 4 4 4 4 4 4 4 z x v v B B B b B Z b B b b B b b Z b b B B b B b Z b b B b B b b b b B b B Z S S Q Q Q Q Q Q Q Q Q Q Q Q Q Q Q Q Q Q Q Q Q Q Q Q Q Q Q Q Q Q Q Q Q Q Q Q Q Q Q Q Q Q ! ~ ' ' ' [ ] ' ' ' ' ] ] [ ( k % O ",
"3.3.3.3.3.3.3.+ + + O + o # ; 1 4 4 4 4 4 z c N B B N 9 r % o + O + # : 2 3 4 4 4 4 4 4 4 4 4 4 4 4 4 4 4 4 4 4 4 4 4 4 z z c B Z b B B B B B B Z b B B B B B B B B B B B B B B B Z B B B B B b B C Z Z R R Q R R Q Q R Q R Q R Q R Q Q R Q Q Q Q R Q R Q R Q Q R Q Q Q Q R Q Q Q R Q Q R Q Q Q ~ ~ ' [ ' ' ' ' ' ' ] ] ( k % O ",
"3.3.3.3.3.3.3.3.+ + + + O +   : < 3 4 4 4 4 x v v m w i @ O O + O o   : < 3 < < 3 2 2 3 < < < < < < < < < < < < < 2 < < 2 5 6 n n m n m n m n n n m n m n m n n m m m n n m n n n m n m n m n n n n n M V J J K J K J K J J K J K J J K J K J J J J K J K J J K J K J J J K J J J K J J J J K J P / / / / / / / / / / / Y g $ O ",
"3.3.3.3.3.3.3.3.3.+ + + O + o = ; 1 3 4 4 4 z x n 7 > # o O + + + + @ = * ; * - - * - * - - - * * * - - - - * * * * * * * * p p , , , , , , , , , , , , , , , , , i , , , , , , , , , , i , , , , , , i f f f f s f f f f f f f f f f f s f f s f f f f f f f f f s f s f f f f f f f f f f f f f d g g g k k g k g k g g t $ O ",
"3.3.3.3.3.3.3.3.3.3.+ + + + + o # ; 3 4 4 4 4 4 1 = $ + + + + X + + X o @ o @ o @ o @ @ @ o @ o @ @ @ o @ @ o @ @ o o @ o o $ % @ @ @ $ $ @ @ $ @ @ $ @ $ @ @ $ @ @ @ @ $ @ @ $ @ @ @ @ @ @ @ $ @ @ @ @ @ $ $ $ $ $ $ $ @ $ $ $ $ $ $ $ $ $ $ $ $ @ $ $ $ $ $ $ $ $ $ $ $ @ $ $ $ $ $ $ $ $ $ $ $ $ $ $ $ $ $ $ $ $ $ $ $ o + + ",
"3.3.3.3.3.3.3.3.3.3.3.+ + + + O o = : 2 3 4 3 1 -   . O + + + + + + O + O + O O O O O O O O O + O O O O O + + + O O O + O + O O O O O O O O O O O O O O O O O O O O O O O O O O O O O O O O O O O O O O O O O O O O O O O X O O O O O X O O O O O X O O O O O X O O O O O O O O O O O O O O O O O O O O O O X O O O O O X O + + ",
"3.3.3.3.3.3.3.3.3.3.3.3.+ + + + + @ # * 2 3 & = @ o O O + + + + + + + + O + + + + + + + + + + + O + O + + + + O + + O O O + + O + O + O + + O + + O + O + + O + + O + O + + O + + O + O + + O + O + O + + + + O + O + O + O + O + O O + + O + O O + O + + + O O O + + + + O + O + O + + + O + O + O + O O + O O + O O O O + 3.3.",
"3.3.3.3.3.3.3.3.3.3.3.3.3.+ + + + + +   & 1 * @ O + + + + + + + + + + + + + + + + + + + + + + + + + + + + + + + + + + + + + + + + + + + + + + + + + + + + + + + + + + + + + + + + + + + + + + + + + + + + + + + + + + + + + + + + + + + + + + + + + + + + + + + + + + + + + + + + + + + + + + + + + + + + + + + + + + + + 3.3.3.",
"3.3.3.3.3.3.3.3.3.3.3.3.3.3.+ + + O + @ = -   X O + + + + 3.3.3.3.3.3.3.3.3.3.3.3.3.3.3.3.3.3.3.3.3.3.3.3.3.3.3.3.3.3.3.3.3.3.3.3.3.3.3.3.3.3.3.3.3.3.3.3.3.3.3.3.3.3.3.3.3.3.3.3.3.3.3.3.3.3.3.3.3.3.3.3.3.3.3.3.3.3.3.3.3.3.3.3.3.3.3.3.3.3.3.3.3.3.3.3.3.3.3.3.3.3.3.3.3.3.3.3.3.3.3.3.3.3.3.3.3.3.3.3.3.3.3.3.3.3.3.3.3.3.3.",
"3.3.3.3.3.3.3.3.3.3.3.3.3.3.3.+ + + + + o $ o + + + + + 3.3.3.3.3.3.3.3.3.3.3.3.3.3.3.3.3.3.3.3.3.3.3.3.3.3.3.3.3.3.3.3.3.3.3.3.3.3.3.3.3.3.3.3.3.3.3.3.3.3.3.3.3.3.3.3.3.3.3.3.3.3.3.3.3.3.3.3.3.3.3.3.3.3.3.3.3.3.3.3.3.3.3.3.3.3.3.3.3.3.3.3.3.3.3.3.3.3.3.3.3.3.3.3.3.3.3.3.3.3.3.3.3.3.3.3.3.3.3.3.3.3.3.3.3.3.3.3.3.3.3.3.",
"3.3.3.3.3.3.3.3.3.3.3.3.3.3.3.3.+ + + + O + O + + + + 3.3.3.3.3.3.3.3.3.3.3.3.3.3.3.3.3.3.3.3.3.3.3.3.3.3.3.3.3.3.3.3.3.3.3.3.3.3.3.3.3.3.3.3.3.3.3.3.3.3.3.3.3.3.3.3.3.3.3.3.3.3.3.3.3.3.3.3.3.3.3.3.3.3.3.3.3.3.3.3.3.3.3.3.3.3.3.3.3.3.3.3.3.3.3.3.3.3.3.3.3.3.3.3.3.3.3.3.3.3.3.3.3.3.3.3.3.3.3.3.3.3.3.3.3.3.3.3.3.3.3.3.3.",
"3.3.3.3.3.3.3.3.3.3.3.3.3.3.3.3.3.+ + + O + + + + 3.3.3.3.3.3.3.3.3.3.3.3.3.3.3.3.3.3.3.3.3.3.3.3.3.3.3.3.3.3.3.3.3.3.3.3.3.3.3.3.3.3.3.3.3.3.3.3.3.3.3.3.3.3.3.3.3.3.3.3.3.3.3.3.3.3.3.3.3.3.3.3.3.3.3.3.3.3.3.3.3.3.3.3.3.3.3.3.3.3.3.3.3.3.3.3.3.3.3.3.3.3.3.3.3.3.3.3.3.3.3.3.3.3.3.3.3.3.3.3.3.3.3.3.3.3.3.3.3.3.3.3.3.3.3.",
"3.3.3.3.3.3.3.3.3.3.3.3.3.3.3.3.3.3.+ + + + + + + 3.3.3.3.3.3.3.3.3.3.3.3.3.3.3.3.3.3.3.3.3.3.3.3.3.3.3.3.3.3.3.3.3.3.3.3.3.3.3.3.3.3.3.3.3.3.3.3.3.3.3.3.3.3.3.3.3.3.3.3.3.3.3.3.3.3.3.3.3.3.3.3.3.3.3.3.3.3.3.3.3.3.3.3.3.3.3.3.3.3.3.3.3.3.3.3.3.3.3.3.3.3.3.3.3.3.3.3.3.3.3.3.3.3.3.3.3.3.3.3.3.3.3.3.3.3.3.3.3.3.3.3.3.3.3.",
"3.3.3.3.3.3.3.3.3.3.3.3.3.3.3.3.3.3.3.+ + + + + 3.3.3.3.3.3.3.3.3.3.3.3.3.3.3.3.3.3.3.3.3.3.3.3.3.3.3.3.3.3.3.3.3.3.3.3.3.3.3.3.3.3.3.3.3.3.3.3.3.3.3.3.3.3.3.3.3.3.3.3.3.3.3.3.3.3.3.3.3.3.3.3.3.3.3.3.3.3.3.3.3.3.3.3.3.3.3.3.3.3.3.3.3.3.3.3.3.3.3.3.3.3.3.3.3.3.3.3.3.3.3.3.3.3.3.3.3.3.3.3.3.3.3.3.3.3.3.3.3.3.3.3.3.3.3.3.",
"3.3.3.3.3.3.3.3.3.3.3.3.3.3.3.3.3.3.3.3.+ + + 3.3.3.3.3.3.3.3.3.3.3.3.3.3.3.3.3.3.3.3.3.3.3.3.3.3.3.3.3.3.3.3.3.3.3.3.3.3.3.3.3.3.3.3.3.3.3.3.3.3.3.3.3.3.3.3.3.3.3.3.3.3.3.3.3.3.3.3.3.3.3.3.3.3.3.3.3.3.3.3.3.3.3.3.3.3.3.3.3.3.3.3.3.3.3.3.3.3.3.3.3.3.3.3.3.3.3.3.3.3.3.3.3.3.3.3.3.3.3.3.3.3.3.3.3.3.3.3.3.3.3.3.3.3.3.3.3.",
"3.3.3.3.3.3.3.3.3.3.3.3.3.3.3.3.3.3.3.3.+ + + 3.3.3.3.3.3.3.3.3.3.3.3.3.3.3.3.3.3.3.3.3.3.3.3.3.3.3.3.3.3.3.3.3.3.3.3.3.3.3.3.3.3.3.3.3.3.3.3.3.3.3.3.3.3.3.3.3.3.3.3.3.3.3.3.3.3.3.3.3.3.3.3.3.3.3.3.3.3.3.3.3.3.3.3.3.3.3.3.3.3.3.3.3.3.3.3.3.3.3.3.3.3.3.3.3.3.3.3.3.3.3.3.3.3.3.3.3.3.3.3.3.3.3.3.3.3.3.3.3.3.3.3.3.3.3.3.3."
};
