/* XPM */
static char *result[] = {
/* columns rows colors chars-per-pixel */
"160 43 120 2 ",
"   c #161A1A",
".  c #1A1A1A",
"X  c #241919",
"o  c #2E1919",
"O  c #3C1717",
"+  c #331818",
"@  c #3D1C1C",
"#  c #1F2323",
"$  c #1E2828",
"%  c #232323",
"&  c #2E2626",
"*  c #252A2A",
"=  c #292929",
"-  c #322626",
";  c #3A2222",
":  c #332929",
">  c #392929",
",  c #5E0E0E",
"<  c #4D1616",
"1  c #441B1B",
"2  c #4C1B1B",
"3  c #531414",
"4  c #5A1414",
"5  c #551D1D",
"6  c #591F1F",
"7  c #6D0707",
"8  c #640B0B",
"9  c #6A0808",
"0  c #730404",
"q  c #7B0000",
"w  c #700808",
"e  c #7B0D0D",
"r  c #621515",
"t  c #691717",
"y  c #611D1D",
"u  c #6F1A1A",
"i  c #771313",
"p  c #7B1414",
"a  c #721919",
"s  c #791A1A",
"d  c #472323",
"f  c #4B2222",
"g  c #432929",
"h  c #4D2A2A",
"j  c #532020",
"k  c #542B2B",
"l  c #5D2929",
"z  c #662525",
"x  c #6D2727",
"c  c #662A2A",
"v  c #6A2A2A",
"b  c #772626",
"n  c #7B2727",
"m  c #722D2D",
"M  c #7B2828",
"N  c #840505",
"B  c #880606",
"V  c #8E0B0B",
"C  c #940D0D",
"Z  c #990F0F",
"A  c #861515",
"S  c #8C1414",
"D  c #951111",
"F  c #9A1111",
"G  c #951D1D",
"H  c #9F1818",
"J  c #A21414",
"K  c #A41C1C",
"L  c #AA1E1E",
"P  c #862727",
"I  c #882727",
"U  c #872D2D",
"Y  c #8A2F2F",
"T  c #902727",
"R  c #9C2626",
"E  c #942E2E",
"W  c #9D2C2C",
"Q  c #8D3030",
"!  c #953030",
"~  c #983131",
"^  c #A52525",
"/  c #AD2626",
"(  c #AD2828",
")  c #B12626",
"_  c #B42B2B",
"`  c #BA2C2C",
"'  c #A03030",
"]  c #AE3131",
"[  c #B33232",
"{  c #BD3131",
"}  c #BA3F3F",
"|  c #C42E2E",
" . c #C33232",
".. c #C93131",
"X. c #C63D3D",
"o. c #BF4C4C",
"O. c #C44646",
"+. c #C84242",
"@. c #C04F4F",
"#. c #CB4B4B",
"$. c #C45555",
"%. c #D15A5A",
"&. c #D56464",
"*. c #D56A6A",
"=. c #D47373",
"-. c #D67D7D",
";. c #DE7D7D",
":. c #D98484",
">. c #E18383",
",. c #E59393",
"<. c #EBA0A0",
"1. c #EAA9A9",
"2. c #F0ABAB",
"3. c #EFB2B2",
"4. c #F2B0B0",
"5. c #F6BBBB",
"6. c #FAC6C6",
"7. c #FCCECE",
"8. c #FFD3D3",
"9. c None",
/* pixels */
"9.9.9.9.9.* * * * * * * * * * * * 9.9.9.9.9.9.9.9.* * * $ * * $ * $ * * $ 9.9.9.9.9.9.9.9.9.9.9.9.9.9.9.9.9.9.9.9.9.9.9.9.9.9.9.9.9.9.9.9.9.9.9.9.9.9.9.9.9.9.9.9.9.9.9.9.9.9.9.9.9.9.9.9.9.9.9.9.9.9.9.9.9.9.9.9.9.9.9.9.9.9.9.9.9.9.9.9.9.9.9.9.9.9.9.9.9.9.9.9.9.9.9.9.9.9.9.9.9.9.9.9.9.9.9.9.9.9.9.9.9.9.9.9.9.9.9.9.9.9.9.",
"9.9.9.9.9.- - > > > - > > - > > > : 9.9.9.9.9.9.9.> > > > > > > > > > > > > 9.9.9.9.9.9.9.9.9.9.9.9.9.9.9.9.9.9.9.9.9.9.9.9.9.9.9.9.9.9.9.9.9.9.9.9.9.9.9.9.9.9.9.9.9.9.9.9.9.9.9.9.9.9.9.9.9.9.9.9.9.9.9.9.9.9.9.9.9.9.9.9.9.9.9.9.9.9.9.9.9.9.9.9.9.9.9.9.9.9.9.9.9.9.9.9.9.9.9.9.9.9.9.9.9.9.9.9.9.9.9.9.9.9.9.9.9.9.9.9.9.9.",
"9.9.9.9.> j y z z v z z z c v z c h : 9.9.9.9.9.g c m m m m m m m m m m v k : 9.9.9.9.9.9.9.9.9.9.9.9.9.9.9.9.9.9.9.9.9.9.9.9.9.9.9.9.9.9.9.9.9.9.9.9.9.9.9.9.9.9.9.9.9.9.9.9.9.9.9.9.9.9.9.9.9.9.9.9.9.9.9.9.9.9.9.9.9.9.9.9.9.9.9.9.9.9.9.9.9.9.9.9.9.9.9.9.9.9.9.9.9.9.9.9.9.9.9.9.9.9.9.9.9.9.9.9.9.9.9.9.9.9.9.9.9.9.9.9.9.",
"9.9.9.& f u S G R R R R R R R R I z > * 9.9.9.& k Q ] ] ] ] ] ] ] ] [ ] ' v > = 9.9.9.9.9.9.9.9.9.9.9.9.9.9.9.9.9.9.9.9.9.9.9.9.9.9.9.9.9.9.9.9.9.9.9.9.9.9.9.9.9.9.9.9.9.9.9.9.9.9.9.9.9.9.9.9.9.9.9.9.9.9.9.9.9.9.9.9.9.9.9.9.9.9.9.9.9.9.9.9.9.9.9.9.9.9.9.9.9.9.9.9.9.9.9.9.9.9.9.9.9.9.9.9.9.9.9.9.9.9.9.9.9.9.9.9.9.9.9.9.",
"9.9.> f 6 A F J L / ) ) ) ) ) ) ^ P k g 9.9.> f v W | .. . .....| ......[ Q l h 9.9.9.9.9.9.9.9.9.9.9.9.9.9.9.9.9.9.9.9.9.9.9.9.9.9.9.9.9.9.9.9.9.9.9.9.9.9.9.9.9.9.9.9.9.9.9.9.9.9.9.9.9.9.9.9.9.9.9.9.9.9.9.9.9.9.9.9.9.9.9.9.9.9.9.9.9.9.9.9.9.9.9.9.9.9.9.9.9.9.9.9.9.9.9.9.9.9.9.9.9.9.9.9.9.9.9.9.9.9.9.9.9.9.9.9.9.9.9.9.",
"* - 5 u A S F J J K / ) ) ) ) ) ^ R P v g > l n T ( _ {  . . .| | | | .. .] ! m k = 9.9.9.9.9.9.9.9.9.9.9.9.9.9.9.9.9.9.9.9.9.9.9.9.9.9.9.9.9.9.9.9.9.9.9.9.9.9.9.9.9.9.9.9.9.9.9.9.9.9.9.9.9.9.9.9.9.9.9.9.9.9.9.9.9.9.9.9.9.9.9.9.9.9.9.9.9.9.9.9.9.9.9.9.9.9.9.9.9.9.9.9.9.9.9.9.9.9.9.9.9.9.9.9.9.9.9.9.9.9.9.9.9.9.9.9.9.9.",
"* - 6 S F F F F F H K / ) / / / / ) ^ I k g x R ( / ) ` {  .X.+.+.+.X. . . .{ ! k = 9.9.9.9.9.9.9.9.9.9.9.9.9.9.9.9.9.9.9.9.9.9.9.9.9.9.9.9.9.9.9.9.9.9.9.9.9.9.9.9.9.9.9.9.9.9.9.9.9.9.9.9.9.9.9.9.9.9.9.9.9.9.9.9.9.9.9.9.9.9.9.9.9.9.9.9.9.9.9.9.9.9.9.9.9.9.9.9.9.9.9.9.9.9.9.9.9.9.9.9.9.9.9.9.9.9.9.9.9.9.9.9.9.9.9.9.9.9.",
"* - y D J F F F Z H J L ^ / / / / ) ) R b x I ^ ) ) / ) ` +.*.:.>.;.*.#. .....E k = $ 9.9.9.9.9.9.9.9.9.9.9.9.9.9.9.9.9.9.9.9.9.9.9.9.9.9.9.9.9.9.9.9.9.9.9.9.9.9.9.9.9.9.9.9.9.9.9.9.9.9.9.9.9.9.9.9.9.9.9.9.9.9.9.9.9.9.9.9.9.9.9.9.9.9.9.9.9.9.9.9.9.9.9.9.9.9.9.9.9.9.9.9.9.9.9.9.9.9.9.9.9.9.9.9.9.9.9.9.9.9.9.9.9.9.9.9.9.",
"* > y S Z Z Z F F F F J K ^ / / / ) / ^ R R ^ / / / / / ) $.,.5.6.5.,.%. ...{ E k & $ 9.9.9.9.9.9.9.9.9.9.9.9.9.9.9.9.9.9.9.9.9.9.9.9.9.9.9.9.9.9.9.9.9.9.9.9.9.9.9.9.9.9.9.9.9.9.9.9.9.9.9.9.9.9.9.9.9.9.9.9.9.9.9.9.9.9.9.9.9.9.9.9.9.9.9.9.9.9.9.9.9.9.9.9.9.9.9.9.9.9.9.9.9.9.9.9.9.9.9.9.9.9.9.9.9.9.9.9.9.9.9.9.9.9.9.9.9.",
"* - 4 A Z Z F F F F F F K K / / / ( / ) ) ) ( / / / / / / o.:.3.7.8.2.&. .|  .! k = $ 9.9.9.9.9.9.9.9.9.9.9.9.9.9.9.9.9.9.9.9.9.9.9.9.9.9.9.9.9.9.9.9.9.9.9.9.9.9.9.9.9.9.9.9.9.9.9.9.9.9.9.9.9.9.9.9.9.9.9.9.9.9.9.9.9.9.9.9.9.9.9.9.9.9.9.9.9.9.9.9.9.9.9.9.9.9.9.9.9.9.9.9.9.9.9.9.9.9.9.9.9.9.9.9.9.9.9.9.9.9.9.9.9.9.9.9.9.",
"* - 3 e V C F F F D F F H H K ^ / ( ( / / ) ) / ( / / / ( [ o.=.1.7.4.*. .|  .E k = * * * * * * * * * * * * * * $ * * * * * * * * * * * * * * * * * * * $ * * * * * * * * = = = = = = = = = * = = = = = = = = & = = = = = = = = = = = = = = = = = = = = = = = = = = = = = = = = = = = = = = = = = = = = = = = = = = = = = 9.9.9.",
"= - 3 w N V D F F F F F F F J K / / / / / / ( / ) / / / / / ^ } -.3.<.&. .| { E k = * & & : - & & : : : - : & - : : - : : - & & - : & - : - - - - : & - - : - : - & - - & = = = = = = = = = & * = = = = = = = = = = = = = = = = = = = = = = = = = = = = = = = = = = = & = = = = = = = = = = = = = = = = = = = = = = = = = = 9.9.",
"* - < 0 q B V V F F F F Z F H K K ^ / ) / / / / / / ( / ( / L ) $.-.=.#. ...{ ! k & - < < < < 5 j j 6 6 6 6 6 6 6 6 6 6 6 6 6 6 j 6 6 6 6 6 6 6 6 6 6 6 j j 6 6 5 6 6 6 2 & # % * % % % % % % * % % * % % % % % % % % % % % % % % % % % % % % % % % % % % % % % % % % % % % % % % % % % X X % % % % % % % % % % % % % % % % = 9.",
"* - 3 7 q q N V D F F F F F F F J K / ( / / / / / / / / / / / ( [ } X. . ... .E k > 1 8 7 7 7 e A S A A A A A S A A A A A A A S A A A A A A A A A A A S A A A S A A S A t @ . . . . . . . . . X . . % . . . . . . # . . # X . . % . . . # . . . X . . . # . % . # . . . . . . # # . X .   X . . . # . . . % . . . % . . X % * = ",
"= - 3 0 N q q N V D D F F F F Z F K L ^ / / / ) ( / / ) / / / / / L ) _ { .. .E k - < 0 N q N N C Z F J F F F Z F F F J F F F Z F F F F F J F F F F Z Z F F F F Z J J F p 3 + X . . . . . . .   . . . . . . . . . . . . .   . . . . . .   . . . . . . . . . . . . . . . . . .   . . . .   . . . . . . . . . . . . . .   . % % = ",
"* - 3 0 q q q N N V C F F D F D F F K K / / ( / / / / / ( / / / / ^ / ) _ | ..~ k - < 0 q q q q N V C F F F Z J F Z F Z F Z F J J F F F Z Z J F Z F J Z J F F F Z J Z Z S p r @ .   . . . . . . . . . . . . . . . . . . . . . . . . . . . . . . . . . . . . . . . . . . . . . . . . . . X     . . . . . . . . . . . . . . * * & ",
"* - < 7 q q q q q B V D F F F F F F F H K / / / / / / / / / / / / / / / ( ` [ Q k - < w q q q q q N C D D F F F D F F F F F F F Z Z F D F F F D F F D F F F D F F F F F F F S 4 + . . . . . . . . . . . . . . . . . .   . . . . . . . . . . . . . . . . .     . X     . . . . . . . . . . . . X .   X . . . . . . . . . . % = = ",
"= & @ 3 8 w q q q q B V D F F F F C F H K K ^ ) ) / / / / ( / / / / ) ) / W Y c > > < 0 q q q q q q N V C F F F F F F D F D F F F F F F F F F F F F F F F D F F F F F F F F D i 3 O X .   . . . . . . . . . .   . . . . . . . . . . . . .     . . . . . . X . . . . . . . . . . . .   .   X     .     . . . . . . . . . . % * = ",
"= = & ; < 8 q q q q q N V D F F F F D F F H L ^ ( / / / / / ( ) / / / ) ^ M h : & - 3 7 q q q q q q q N V D F F F F F F F F F F F F F F F F F F D F F F F F D F D F F D F F D D A r + .   . . . . . . . . . X   . . . . .   .   . . . . .   . . . . .   . . . . . . . . . . . . . . .       X   . X . .   . . . . . . . . % & * ",
"= = * * @ 3 7 q q q q q B V C D F F F F F F K K / / / / ( / / / ) ) ^ R I l : * * - < 0 q q q q q q q q N C D D F F F F F D D F F F D F F F D F F F F D F F F F F F F F F F F F D A 3 + X .   .   . . . . . . . . . . . .   . . . . . . . . . . . . . . . . . . . .   . . . . .   .   X . . .       . . . . . . . . . . . % * = ",
"= = * = - ; < 8 w q q q N N V D F F F F F F F K K ^ / / / / / ) ) ) R b l > = * * & 3 7 q q q q q q q q q N V D F F F F F D F F D F F F F F F F D F F F F F F F D F F F F F F F F D p 4 1 .     .   . . . X   . .   . . . . . . . . . . . . . . . .   . . . . . . . . . . . . .   X X   . . . . . X     . .   . . . . . . % = = ",
"= = = = = = - 3 7 q q q q q N V D D F F F D F F K L / ) / / ( / / ^ P k - * = = & - 3 7 q q q q q q 0 q q q N V C F F F F F F F F F F D D F F F F F F F F F D F F F F D F F F F F F D A 4 o .     X   . . .     . . . . . . . . . .   . . . . . . X   . . . . . . . . . . . . .   .       . .   . . .     . .   . . . . . % & = ",
"= = = = * * & @ 3 8 0 q q q q B C C C F F F D F F K K ^ / ( ) / R n l > * * * & @ < 8 0 q q q q q q q q q q q V V D D F F F F F F F F F D F D F F F F F F D F F F F F F D F F F F F F D i 3 O X       X     .   X . X   . . . . . . . . . . .         . . . . . . . . . . .   . . X   .   . . X . . . . . . . . . . . . . % * & ",
"9.9.= = = = = & ; < 9 q q q q q N V D F F F F F F F K K / ) ) ^ b k > & * * & - 3 7 0 q q q q q 0 q q q q q q q N V D F F F D F F F F F F F F F F D F F F F D F F F F F F F F F F F F D V A r + .   .   X . .     . .     . . . . . . . . . . .   X X     . . .   . .     . . . .   . . X .     .     X . . . . . .   . . % * = ",
"9.9.9.= = = = * = ; 4 9 q q q q q B C D F F F D F F F K K ^ ^ P l > * * * & @ < 8 q q q q q q q q q q 0 q q q 0 q V V D D F F F D F F F F Z F F F F F F F F F F D F F F F F F D F F F D Z F A 3 + X .   . . . . . . . . . . . . . .   . . . . . . . . . . X   . . . . . . . . . .   . . . . . . X   . X   . . X . . . . . % * = ",
"9.9.9.9.= = = = * - @ 3 8 0 q q q q N V D F F F F F F J K G b l > & * * & ; < 8 0 q q q q q q q q q q q q q q q q q N V C F F F F F F D F F F F D F D F F F F F F F F D F F F F F F F F J F S i , O X     . . . . . . . . . . . . . . . . . . . . . X       . . . . . . . . . . . . . . . . . .       .   .     . . . . . % = = ",
"9.9.9.9.9.= = = = = & - 3 w q q q q q B V D F F D F F F D s f : = = = = - < 7 q q q q q q q q q q q q q q q q q q q q N C C Z F F F F F F F F F F F F F F F F F F F F F Z F F F F F F F Z F F D e 3 o .   . . . . . . . . . . . . . . . . . . .     .     .     . . . .   . . . . . . . . . . . . X   .     .   . . . . . % % = ",
"9.9.9.9.9.9.= = = * * & @ 3 9 0 q q q q N C D F F F F S a 6 ; * $ & - 1 3 8 q N q q q q q q q q q q q q q q q q q q q N B C Z Z F F F Z Z J Z F J Z F Z F F F F Z F Z Z J F F F Z F Z Z Z Z J J C e 3 O X . .   . . . . . . . . . . . . . . . .   X . .   . . X . . . . . . . . . . . . . . . . . .   . . X . . . . . . . % & * ",
"9.9.9.9.9.9.9.= = = = = & @ < 7 q q q q q N V D F F D u f > & = * = ; 3 9 q q q q q q q q q q q q q q q q q q q q q q q N N V F J Z F F F F F F Z F F F F F F F J F F F F F F F J Z F F F F F F F S A r + .   . . . . . . . . . . . . . . . . . . . . . X . . . . . . . . . . . . . . . . . . . . . . . . . . . . . . . . % = = ",
"9.9.9.9.9.9.9.9.= = = = * = @ 4 7 q q q q q B V D S p 6 - * * = * = @ 4 7 7 7 7 7 7 7 w 7 7 7 7 7 7 7 9 7 7 7 7 7 7 7 7 7 w e A A S A S A S A A A S S S A S S S A S S A A S A S A S S S A S S S A S A t @ X . . . . . . . . . . . . . . . . . . . . . . . .   . . . . . . . . . . . . . . . . . . . . . . . . X . . . . # % = = ",
"9.9.9.9.9.9.9.9.9.= = = * * - @ 3 8 0 q q q N V e t j g & * * = = = - 1 < < < < < < < < < < < < < < < < < < < < < < < < < < k j 6 j 6 6 j 6 6 6 6 6 6 j j 6 6 j 6 6 j 6 j 6 6 j 6 6 6 j j 6 6 j 6 y 6 2 - % # % % % % % % % * % % % % % % % % % % % % % % % X X % % % % % % % % X * % % % % % % % % % % # % X % % % % % % % = = ",
"9.9.9.9.9.9.9.9.9.9.= = = = * & ; 3 7 q q q q q 8 2 - = = = = = = = & & & - - & & - & - & - & & - - - & & & & & & - & & & & : > - - - > > - - : - : - - > : - - - - - > - > - - - : - - > : - - - - - & & = = % % = = % * & % * & * % & = = % * & * * & * = % & = = = % = = = * * = % & = = % = = = = = % & = % * % & = = = = = ",
"9.9.9.9.9.9.9.9.9.9.9.= = = * * & 1 3 7 q 0 w 8 < + * * = = = = = = = = * * * * * * * * * * * * * * * * * * * * : * * * * * * * * * * * * * * * * * * * * * * * * * * * * * * * * * * * * * * * * * * = = = = = = = = = = = = = = = = = = = = = = = = = = = = = = = = = = = = = = = = = = = = = = = = = = = = = = = = = = = = = ",
"9.9.9.9.9.9.9.9.9.9.9.9.= = = = = - ; 3 7 0 , 1 - & = * = = = = = = = = = = * * = = = = = = = = = = = * * : * * * * * : * * : * = * = * = * = * = * = * = * = = * = * = * = * = * = * = * = * = * = * = = = = = = = = = = = = = = = = = = = = = = = = = = = = = = = = = = = = = = = = = = = = = = = = = = = = = = = = = = = 9.9.",
"9.9.9.9.9.9.9.9.9.9.9.9.9.= = = = * & ; , 8 < - * = = = = = = = = = = = = = = = = = = = = = = = = = = = * = = = * : * * * = : * = = = = = = = = = = = = = = = = = = = = = = = = = = = = = = = = = = = = = = = = = = = = = = = = = = = = = = = = = = = = = = = = = = = = = = = = = = = = = = = = = = = = = = = = = = = = = 9.9.9.",
"9.9.9.9.9.9.9.9.9.9.9.9.9.9.= = = * = - 1 1 @ & * * = = = 9.9.9.9.9.9.9.9.9.9.9.9.9.9.9.9.9.9.9.9.9.9.9.9.9.9.9.9.9.9.9.9.9.9.9.9.9.9.9.9.9.9.9.9.9.9.9.9.9.9.9.9.9.9.9.9.9.9.9.9.9.9.9.9.9.9.9.9.9.9.9.9.9.9.9.9.9.9.9.9.9.9.9.9.9.9.9.9.9.9.9.9.9.9.9.9.9.9.9.9.9.9.9.9.9.9.9.9.9.9.9.9.9.9.9.9.9.9.9.9.9.9.9.9.9.9.9.9.9.9.9.",
"9.9.9.9.9.9.9.9.9.9.9.9.9.9.9.= = = = = & : & = = = = = 9.9.9.9.9.9.9.9.9.9.9.9.9.9.9.9.9.9.9.9.9.9.9.9.9.9.9.9.9.9.9.9.9.9.9.9.9.9.9.9.9.9.9.9.9.9.9.9.9.9.9.9.9.9.9.9.9.9.9.9.9.9.9.9.9.9.9.9.9.9.9.9.9.9.9.9.9.9.9.9.9.9.9.9.9.9.9.9.9.9.9.9.9.9.9.9.9.9.9.9.9.9.9.9.9.9.9.9.9.9.9.9.9.9.9.9.9.9.9.9.9.9.9.9.9.9.9.9.9.9.9.9.",
"9.9.9.9.9.9.9.9.9.9.9.9.9.9.9.9.= = = = * * = = = = = 9.9.9.9.9.9.9.9.9.9.9.9.9.9.9.9.9.9.9.9.9.9.9.9.9.9.9.9.9.9.9.9.9.9.9.9.9.9.9.9.9.9.9.9.9.9.9.9.9.9.9.9.9.9.9.9.9.9.9.9.9.9.9.9.9.9.9.9.9.9.9.9.9.9.9.9.9.9.9.9.9.9.9.9.9.9.9.9.9.9.9.9.9.9.9.9.9.9.9.9.9.9.9.9.9.9.9.9.9.9.9.9.9.9.9.9.9.9.9.9.9.9.9.9.9.9.9.9.9.9.9.9.9.",
"9.9.9.9.9.9.9.9.9.9.9.9.9.9.9.9.9.= = = = = = = = 9.9.9.9.9.9.9.9.9.9.9.9.9.9.9.9.9.9.9.9.9.9.9.9.9.9.9.9.9.9.9.9.9.9.9.9.9.9.9.9.9.9.9.9.9.9.9.9.9.9.9.9.9.9.9.9.9.9.9.9.9.9.9.9.9.9.9.9.9.9.9.9.9.9.9.9.9.9.9.9.9.9.9.9.9.9.9.9.9.9.9.9.9.9.9.9.9.9.9.9.9.9.9.9.9.9.9.9.9.9.9.9.9.9.9.9.9.9.9.9.9.9.9.9.9.9.9.9.9.9.9.9.9.9.9.",
"9.9.9.9.9.9.9.9.9.9.9.9.9.9.9.9.9.9.= = = = = = = 9.9.9.9.9.9.9.9.9.9.9.9.9.9.9.9.9.9.9.9.9.9.9.9.9.9.9.9.9.9.9.9.9.9.9.9.9.9.9.9.9.9.9.9.9.9.9.9.9.9.9.9.9.9.9.9.9.9.9.9.9.9.9.9.9.9.9.9.9.9.9.9.9.9.9.9.9.9.9.9.9.9.9.9.9.9.9.9.9.9.9.9.9.9.9.9.9.9.9.9.9.9.9.9.9.9.9.9.9.9.9.9.9.9.9.9.9.9.9.9.9.9.9.9.9.9.9.9.9.9.9.9.9.9.9.",
"9.9.9.9.9.9.9.9.9.9.9.9.9.9.9.9.9.9.9.= = = = = 9.9.9.9.9.9.9.9.9.9.9.9.9.9.9.9.9.9.9.9.9.9.9.9.9.9.9.9.9.9.9.9.9.9.9.9.9.9.9.9.9.9.9.9.9.9.9.9.9.9.9.9.9.9.9.9.9.9.9.9.9.9.9.9.9.9.9.9.9.9.9.9.9.9.9.9.9.9.9.9.9.9.9.9.9.9.9.9.9.9.9.9.9.9.9.9.9.9.9.9.9.9.9.9.9.9.9.9.9.9.9.9.9.9.9.9.9.9.9.9.9.9.9.9.9.9.9.9.9.9.9.9.9.9.9.9.",
"9.9.9.9.9.9.9.9.9.9.9.9.9.9.9.9.9.9.9.9.= = = 9.9.9.9.9.9.9.9.9.9.9.9.9.9.9.9.9.9.9.9.9.9.9.9.9.9.9.9.9.9.9.9.9.9.9.9.9.9.9.9.9.9.9.9.9.9.9.9.9.9.9.9.9.9.9.9.9.9.9.9.9.9.9.9.9.9.9.9.9.9.9.9.9.9.9.9.9.9.9.9.9.9.9.9.9.9.9.9.9.9.9.9.9.9.9.9.9.9.9.9.9.9.9.9.9.9.9.9.9.9.9.9.9.9.9.9.9.9.9.9.9.9.9.9.9.9.9.9.9.9.9.9.9.9.9.9.9.",
"9.9.9.9.9.9.9.9.9.9.9.9.9.9.9.9.9.9.9.9.= = = 9.9.9.9.9.9.9.9.9.9.9.9.9.9.9.9.9.9.9.9.9.9.9.9.9.9.9.9.9.9.9.9.9.9.9.9.9.9.9.9.9.9.9.9.9.9.9.9.9.9.9.9.9.9.9.9.9.9.9.9.9.9.9.9.9.9.9.9.9.9.9.9.9.9.9.9.9.9.9.9.9.9.9.9.9.9.9.9.9.9.9.9.9.9.9.9.9.9.9.9.9.9.9.9.9.9.9.9.9.9.9.9.9.9.9.9.9.9.9.9.9.9.9.9.9.9.9.9.9.9.9.9.9.9.9.9.9."
};
