/* XPM */
static char *result[] = {
/* columns rows colors chars-per-pixel */
"160 43 119 2 ",
"   c #161A1A",
".  c #1A1A1A",
"X  c #241B1B",
"o  c #281B1B",
"O  c #331C1C",
"+  c #3D1E1E",
"@  c #1E2222",
"#  c #1E2828",
"$  c #242424",
"%  c #2E2727",
"&  c #252929",
"*  c #292929",
"=  c #322626",
"-  c #3A2222",
";  c #342929",
":  c #392929",
">  c #5E0E0E",
",  c #4D1616",
"<  c #431C1C",
"1  c #4B1919",
"2  c #531414",
"3  c #591111",
"4  c #541C1C",
"5  c #591F1F",
"6  c #6D0707",
"7  c #640B0B",
"8  c #6A0808",
"9  c #730404",
"0  c #7B0000",
"q  c #700808",
"w  c #7B0D0D",
"e  c #6A1717",
"r  c #611D1D",
"t  c #6F1A1A",
"y  c #7C1717",
"u  c #721919",
"i  c #791A1A",
"p  c #472323",
"a  c #4C2323",
"s  c #432929",
"d  c #4D2A2A",
"f  c #532222",
"g  c #5D2323",
"h  c #542B2B",
"j  c #5D2929",
"k  c #642222",
"l  c #6C2222",
"z  c #622828",
"x  c #6A2A2A",
"c  c #752525",
"v  c #7B2727",
"b  c #722D2D",
"n  c #7B2828",
"m  c #840505",
"M  c #880606",
"N  c #8E0B0B",
"B  c #940D0D",
"V  c #990F0F",
"C  c #861515",
"Z  c #8B1414",
"A  c #8B1A1A",
"S  c #951111",
"D  c #9A1111",
"F  c #951D1D",
"G  c #9F1818",
"H  c #A21515",
"J  c #A41C1C",
"K  c #AA1E1E",
"L  c #862525",
"P  c #8B2424",
"I  c #872D2D",
"U  c #8A2F2F",
"Y  c #972626",
"T  c #9C2626",
"R  c #942E2E",
"E  c #9D2C2C",
"W  c #8D3030",
"Q  c #953030",
"!  c #983131",
"~  c #A42525",
"^  c #AD2626",
"/  c #AD2828",
"(  c #B02626",
")  c #B42B2B",
"_  c #BA2C2C",
"`  c #A03030",
"'  c #AE3131",
"]  c #B33232",
"[  c #BD3131",
"{  c #BA3F3F",
"}  c #C42E2E",
"|  c #C33232",
" . c #C93131",
".. c #C63D3D",
"X. c #BF4C4C",
"o. c #C44646",
"O. c #C84242",
"+. c #C04F4F",
"@. c #CB4B4B",
"#. c #C45555",
"$. c #D15A5A",
"%. c #D56464",
"&. c #D56A6A",
"*. c #D47373",
"=. c #D67D7D",
"-. c #DE7D7D",
";. c #D98484",
":. c #E18383",
">. c #E59393",
",. c #EBA0A0",
"<. c #EAA9A9",
"1. c #F0ABAB",
"2. c #EFB2B2",
"3. c #F2B0B0",
"4. c #F6BBBB",
"5. c #FAC6C6",
"6. c #FCCECE",
"7. c #FFD3D3",
"8. c None",
/* pixels */
"8.8.8.8.8.& & & & & & & & & & & # 8.8.8.8.8.8.8.8.& & & # & # & & & # & & 8.8.8.8.8.8.8.8.8.8.8.8.8.8.8.8.8.8.8.8.8.8.8.8.8.8.8.8.8.8.8.8.8.8.8.8.8.8.8.8.8.8.8.8.8.8.8.8.8.8.8.8.8.8.8.8.8.8.8.8.8.8.8.8.8.8.8.8.8.8.8.8.8.8.8.8.8.8.8.8.8.8.8.8.8.8.8.8.8.8.8.8.8.8.8.8.8.8.8.8.8.8.8.8.8.8.8.8.8.8.8.8.8.8.8.8.8.8.8.8.8.8.8.",
"8.8.8.8.8.= = : : : = : : = : : : : 8.8.8.8.8.8.8.: : : : : : : : : : : : : 8.8.8.8.8.8.8.8.8.8.8.8.8.8.8.8.8.8.8.8.8.8.8.8.8.8.8.8.8.8.8.8.8.8.8.8.8.8.8.8.8.8.8.8.8.8.8.8.8.8.8.8.8.8.8.8.8.8.8.8.8.8.8.8.8.8.8.8.8.8.8.8.8.8.8.8.8.8.8.8.8.8.8.8.8.8.8.8.8.8.8.8.8.8.8.8.8.8.8.8.8.8.8.8.8.8.8.8.8.8.8.8.8.8.8.8.8.8.8.8.8.8.",
"8.8.8.8.- f k k k x x x k x x x z d ; 8.8.8.8.8.s z b b b b b b b b b b x h ; 8.8.8.8.8.8.8.8.8.8.8.8.8.8.8.8.8.8.8.8.8.8.8.8.8.8.8.8.8.8.8.8.8.8.8.8.8.8.8.8.8.8.8.8.8.8.8.8.8.8.8.8.8.8.8.8.8.8.8.8.8.8.8.8.8.8.8.8.8.8.8.8.8.8.8.8.8.8.8.8.8.8.8.8.8.8.8.8.8.8.8.8.8.8.8.8.8.8.8.8.8.8.8.8.8.8.8.8.8.8.8.8.8.8.8.8.8.8.8.8.8.",
"8.8.8.% p t Z F T T T T T T T T P x : & 8.8.8.% h W ' ] ' ' ' ' ' ' ) ] ! b : & 8.8.8.8.8.8.8.8.8.8.8.8.8.8.8.8.8.8.8.8.8.8.8.8.8.8.8.8.8.8.8.8.8.8.8.8.8.8.8.8.8.8.8.8.8.8.8.8.8.8.8.8.8.8.8.8.8.8.8.8.8.8.8.8.8.8.8.8.8.8.8.8.8.8.8.8.8.8.8.8.8.8.8.8.8.8.8.8.8.8.8.8.8.8.8.8.8.8.8.8.8.8.8.8.8.8.8.8.8.8.8.8.8.8.8.8.8.8.8.8.",
"8.8.- p 5 C D J K ^ ( ( ( ( ( ( ~ v h s 8.8.- d x E } | | |  .| }  . . .] W j d 8.8.8.8.8.8.8.8.8.8.8.8.8.8.8.8.8.8.8.8.8.8.8.8.8.8.8.8.8.8.8.8.8.8.8.8.8.8.8.8.8.8.8.8.8.8.8.8.8.8.8.8.8.8.8.8.8.8.8.8.8.8.8.8.8.8.8.8.8.8.8.8.8.8.8.8.8.8.8.8.8.8.8.8.8.8.8.8.8.8.8.8.8.8.8.8.8.8.8.8.8.8.8.8.8.8.8.8.8.8.8.8.8.8.8.8.8.8.8.8.",
"& = 4 t C S D D J J K ( ( ( ( ^ ^ T L x s : h v R / ) } | | | } } } } | [ ' ! b h * 8.8.8.8.8.8.8.8.8.8.8.8.8.8.8.8.8.8.8.8.8.8.8.8.8.8.8.8.8.8.8.8.8.8.8.8.8.8.8.8.8.8.8.8.8.8.8.8.8.8.8.8.8.8.8.8.8.8.8.8.8.8.8.8.8.8.8.8.8.8.8.8.8.8.8.8.8.8.8.8.8.8.8.8.8.8.8.8.8.8.8.8.8.8.8.8.8.8.8.8.8.8.8.8.8.8.8.8.8.8.8.8.8.8.8.8.8.8.",
"& : 5 Z D D D D D G J ^ ( ( ^ ^ ^ ( ^ L h s l T ^ ^ ( _ [ | ..O.O.O...| | | [ ! h * 8.8.8.8.8.8.8.8.8.8.8.8.8.8.8.8.8.8.8.8.8.8.8.8.8.8.8.8.8.8.8.8.8.8.8.8.8.8.8.8.8.8.8.8.8.8.8.8.8.8.8.8.8.8.8.8.8.8.8.8.8.8.8.8.8.8.8.8.8.8.8.8.8.8.8.8.8.8.8.8.8.8.8.8.8.8.8.8.8.8.8.8.8.8.8.8.8.8.8.8.8.8.8.8.8.8.8.8.8.8.8.8.8.8.8.8.8.8.",
"& = r S H D D D D D H J ^ ^ ^ ^ ^ ( ^ T c l I ^ ( ^ ^ ( _ o.&.:.:.-.&.@.|  .| R h * & 8.8.8.8.8.8.8.8.8.8.8.8.8.8.8.8.8.8.8.8.8.8.8.8.8.8.8.8.8.8.8.8.8.8.8.8.8.8.8.8.8.8.8.8.8.8.8.8.8.8.8.8.8.8.8.8.8.8.8.8.8.8.8.8.8.8.8.8.8.8.8.8.8.8.8.8.8.8.8.8.8.8.8.8.8.8.8.8.8.8.8.8.8.8.8.8.8.8.8.8.8.8.8.8.8.8.8.8.8.8.8.8.8.8.8.8.8.",
"& : r Z H V V D D D D G J ^ ^ ^ / ^ ^ ^ T T ~ ^ ^ ^ ^ K ) #.>.4.5.4.>.$.| } [ R h * # 8.8.8.8.8.8.8.8.8.8.8.8.8.8.8.8.8.8.8.8.8.8.8.8.8.8.8.8.8.8.8.8.8.8.8.8.8.8.8.8.8.8.8.8.8.8.8.8.8.8.8.8.8.8.8.8.8.8.8.8.8.8.8.8.8.8.8.8.8.8.8.8.8.8.8.8.8.8.8.8.8.8.8.8.8.8.8.8.8.8.8.8.8.8.8.8.8.8.8.8.8.8.8.8.8.8.8.8.8.8.8.8.8.8.8.8.8.",
"& = 2 C B V V V D D D D H ~ ^ ^ ^ ^ ^ ^ ( ( ^ ^ ^ ^ ^ ^ ^ +.;.<.6.7.1.%.| } | R h * # 8.8.8.8.8.8.8.8.8.8.8.8.8.8.8.8.8.8.8.8.8.8.8.8.8.8.8.8.8.8.8.8.8.8.8.8.8.8.8.8.8.8.8.8.8.8.8.8.8.8.8.8.8.8.8.8.8.8.8.8.8.8.8.8.8.8.8.8.8.8.8.8.8.8.8.8.8.8.8.8.8.8.8.8.8.8.8.8.8.8.8.8.8.8.8.8.8.8.8.8.8.8.8.8.8.8.8.8.8.8.8.8.8.8.8.8.8.",
"* = 4 w M B D D D D B D D G J ^ ^ / ^ ^ ( ( ( ^ ^ ^ ^ ^ / ] +.*.<.7.3.&.| } | R h % & & & & & & & & & & & & & & & & & & & & & & & & & & & & & & & & # & & & & & & & & & & & & # & & # & & & & & & # & & & # & # & # & & & # & # & & # & & & & # & & # & # & & & & & * * * * % * * * * * * * * * * * * * * * * * * * * * * 8.8.8.",
"& = 2 9 m B S S D D D D D D G J ^ ^ ^ / ^ ^ ^ ^ ^ ^ ^ ^ ^ ^ ^ { =.3.,.$.| } | R h * * % % ; % = % ; % ; % = ; = % ; % ; = % ; ; % ; = = % ; = = ; ; ; = % = % ; = ; = = ; ; ; ; ; ; ; ; ; ; ; ; ; ; ; ; ; ; ; : ; ; ; ; ; ; ; : ; ; ; ; ; ; ; ; ; ; ; ; ; ; ; ; ; ; * * & * & * * * * * * * * * * * * * * * * * * * * * * * 8.8.",
"& = , 9 m m N B S D D D D B G G J ^ ^ ^ ^ ^ ^ ^ ^ / ^ ^ ^ ^ K / #.=.&.@.|  .[ Q h % = 1 , , 1 4 f f 4 5 5 5 4 5 f 5 5 5 4 f 5 4 f 4 f 5 5 5 4 5 f 4 5 5 f 4 f 5 4 5 5 4 5 g j z j z z j z j z z j z j z z z z z j z z z z z z z j z z z z z z z j z z z j z z z g d % X @ * $ $ $ * $ $ X $ $ * $ $ * $ $ $ * $ $ $ $ $ $ $ * 8.",
"* = , 9 0 0 m N V D D D D D D D G J ^ ^ ^ ^ ^ ^ ( ^ ^ ^ ^ ^ ^ / ] { X.[ | | | ! h : < 7 6 6 q w C Z C C C C C Z C C C Z C Z Z Z Z C C Z C C C C Z C C Z Z C C Z C Z C C A Y Y T Y Y Y Y Y T Y Y Y Y T Y Y Y Y Y Y Y Y Y Y Y Y Y Y Y Y Y Y Y Y Y Y Y Y T Y Y Y Y Y c + . . . . . . . . . X . . . . . . . . . . . . . . . . $ * * ",
"& = 2 9 0 0 0 M N S S S D D D D D J J ^ ^ ^ ^ ^ ^ ^ ^ ^ ^ ^ ^ ^ ^ ^ ( _ _  .| ! h O , 9 0 0 0 M B B D H V V V V D D D V D D H V V H D D V H D V D D V D V V D D H V D D H J K ( ^ ( ( ( ( ( ( ( ( ^ ( ( ^ ( ( ^ ( / ( ( / ( ( ^ ( ^ / ( ( ( ( ( ( ( ( ( ( ( ( ) ( Y 5 O X .     . . . . . . . . . . . . . . . . . . . . . $ * * ",
"& = 2 9 m 0 0 0 M N B D D D D S S D H J ^ ^ / ^ ^ ^ ^ ^ ^ ^ ^ ^ K ^ ^ ( _ | | ! h = , 9 m 0 0 m M M B H V H V H D V H V V D V V V V D D V V H V H V V H V H D D V V H D D H J ^ ( ( ( ( ( / ( ^ ( ( ( ( ( ( ( ( ( ( ( ( ( ( ( ( ( ( ( ( ( ( ^ ( ( ( ( ( ( ( ( ( ( ~ P l < X     . . . . . . . . . . . . . . . . . . . . . $ * * ",
"& = , 6 9 0 0 0 0 m N S D D D D D D D G ~ ^ ^ ^ ^ ^ ^ ^ ^ ^ ^ ^ ^ ^ ^ ^ ( _ ] W d : , 6 0 0 0 0 0 m N V D D D D D D S D S D D S D D D D D D D S D D S D D D D D D D D S D S G H ^ ^ ^ ^ ^ ^ ^ ^ / ^ ( ^ ^ ^ ^ / ^ / ^ ^ ^ ^ ^ ^ ^ ^ ^ ^ ^ ^ / ^ ^ ^ ^ ^ ^ ^ ^ ^ ^ ( / Y k O . . . . . . . . .   .   . . . . . . . . . . . $ * * ",
"* % < 2 8 9 0 0 0 0 M N S S D D D S D G H J ^ ^ ^ ^ ^ ^ ^ ^ ^ ^ ^ ^ ( ( / E U x : : , 6 0 0 0 0 0 0 M N V S D D S D D D D D D D D D D B D D D D D D D D D S S D V D D D D V D G H ^ ^ ^ ^ ^ ^ ^ ^ ^ ^ ^ ^ ^ ^ ( ^ ^ ^ ^ ^ ^ ^ ^ ^ ^ ^ / ^ ^ ^ ^ ^ ^ ^ ^ ^ / ^ ^ ^ ( ( ^ L r < X .   . .   .   .   . .   .   . . . . . . . . * * ",
"& % % = , 8 0 0 0 0 0 m N S D D D D S D D G J ^ ^ ^ ^ ^ ^ ^ ^ ^ ^ ^ ( ( ~ n d ; % = 2 9 0 0 0 0 0 0 0 M N S S D D D D D D D D D D D D D D D D D S D D S D S D D S D D D D D D D G H ~ ^ ^ ^ ^ ^ ^ ^ ^ ^ ^ ^ ^ ^ ^ ^ ^ ^ ( ^ ^ / ^ ^ ^ ^ ^ ( ^ / ^ ^ ^ ^ ^ ( ^ ^ ^ ^ ^ ^ ~ Y t + .   . . . . . . X   . . . . . . . . .   . * * * ",
"* * & & + 2 8 9 0 0 0 0 M N S D S D D D V G H ~ ^ ^ ^ ^ ^ ^ ^ ^ ^ ^ / T L j ; & & = 2 6 0 0 0 0 0 9 9 0 M N V S D D D S D D D D D D D D D D D S D D D D D D D D D D S D D D D S D D J ^ ^ ^ ^ ^ ^ ^ ^ ^ / ^ ^ ^ ^ ( ^ ^ / ^ ^ ^ ^ ^ ^ ^ ^ ^ ^ ^ ^ / ( ^ ^ / ^ ^ ^ ^ ^ ( ( ^ P g O X .   . . .     . . . . . . .   . . . . $ * * ",
"* * & & % - 2 8 9 0 0 0 0 M N S D D D D S D D G J ^ ^ ^ ^ ^ ^ ^ ( ( T c j : * & & % , 9 0 0 9 0 0 9 0 0 m m N S B D D D S D D S D D D D S D D D D V S D S D D D D D D S S D D S D D G J J ^ ^ ^ ^ ^ / ^ / ^ ^ ^ ^ ^ / ^ ^ ^ ^ ^ / ( ^ ^ ^ ^ ^ ^ ^ ^ ^ ^ ^ ^ ^ ^ ^ ^ ^ ^ ( ( T P t < X     . . . X X     . .   . . . . . . $ * * ",
"* * * * * * = 2 8 0 0 0 0 0 m N S D D D D D D D H J ^ ^ ^ ^ ^ ^ ^ ~ L h % * * * * = 2 9 0 0 0 0 0 0 0 0 0 0 m N D D D D D D D D D D S D D D D S D D D D D D D S S D D D D D D D S D D D J ^ ^ ^ ^ ^ ^ ^ ^ ^ ^ ^ ^ ^ ^ ^ ( / ^ ^ ^ ^ ^ / ^ ^ ^ ^ ^ ^ ^ ^ ^ ^ / ^ ( ^ ^ ^ ^ ^ ^ ^ Y k o . . . . .       X . . . . . . . . . @ * * ",
"* * * * * & % + 2 8 9 0 0 0 0 M N B S D D D S D G G ~ ^ / ( ( ^ T n z : & & & = + , 7 9 0 0 0 0 0 0 0 0 0 9 0 M N V S D D D D S S D D D D D D D D D D D D D D D D D D D D D D D D D D D G J ~ ^ ^ ( ( ^ ^ ^ ^ ^ / ^ ^ ^ ^ ^ ^ ^ ^ ^ ^ ^ ^ / ^ ^ / ^ / ^ ^ ^ ^ ^ ^ ^ ^ ^ ^ ^ ( ) ~ L 5 + X     .     .   . . . . . . .   . & * * ",
"8.8.* * & * * % - 1 8 0 0 0 0 0 M N S D D D D D D D H J ^ ( ( ~ n d : % & & * + 2 6 9 0 0 0 0 0 0 9 0 0 0 0 0 0 m N S D D D D D D D S D D D S D S D D D S D D D D D D D S D D S D D D D D D H ^ ^ / ^ ^ ^ ^ ^ ( ^ ^ ^ ^ ^ ^ ^ ^ ^ ^ ^ ^ ( ^ ^ ^ ^ ^ ^ ^ ( ^ ^ ^ ^ ^ ^ ^ ^ ^ ^ ( ^ ~ Y l + .   . X X   . . . .   . .   . . X * * ",
"8.8.8.* * * * & * - 3 6 9 0 0 0 0 M N S S D D D D S D H ~ ~ ~ L j : & & & % = , 8 0 0 0 9 0 0 0 0 0 0 0 0 9 0 0 0 M B S S D D D D D D D D D D D D D S D D D D D S D D D D D D D D D D S B D H J ^ ^ ^ ^ ^ ^ ^ ^ ^ ^ ^ / ^ ^ / ^ ^ ^ ^ ^ ^ ^ ^ ^ ^ ( ^ ^ ^ ^ ^ ^ ^ ^ ^ ^ ^ ^ ^ ^ ( ( ^ P 5 O X .     . . . . . . .   . . . $ $ * ",
"8.8.8.8.* * * * & = + 2 8 9 0 0 0 0 M N S D D S D D D H J F c j : % & & % - 2 7 9 0 0 0 0 0 0 0 0 0 0 0 0 0 9 0 0 0 m N V D D D D S D D D D D D D D D D D D D D D D D S D D D D D D D D V D G G J ~ ^ ( ^ ^ ^ ^ ^ ^ ^ ^ ^ ^ ^ ^ ^ ^ ^ ^ ^ ^ ^ ^ ^ ^ ^ / ^ ^ ^ / ^ ^ ^ ^ ^ ^ ^ ^ ^ ( ( ~ P r < .   . . .   . . . . . . . . $ * * ",
"8.8.8.8.8.* * * * * % = 2 9 0 0 0 0 0 m B V D D D D D D S y a ; * * * * = 2 8 0 0 0 0 0 0 0 0 0 9 0 0 0 0 0 0 0 0 0 0 m N V S D D D V S B D D D V B D B D D D D D B D D D D D D D B D D B D D D D J ^ ^ ^ ^ ^ ^ ^ ^ / ^ ^ ^ ^ ^ ^ / ^ ^ ^ ^ ^ ^ ^ ^ ^ ^ ^ ^ ^ ^ ^ ^ ^ ^ ^ ^ / ^ ^ ^ ^ ^ ^ Y r O     . . X   . . . . . . . $ * * ",
"8.8.8.8.8.8.* * * & & % + 2 8 9 0 0 0 0 M N S D D D D Z u 4 : & & * = + 2 7 0 0 0 0 0 0 0 0 0 0 0 0 0 0 0 0 0 0 0 0 0 m M B V B D D V D H V V D D H D D V D D D H H D B V D V D H H D B V H D D V H K K ^ ( ( ( ( ( ( ( ( ( ( ( ( ( ( ( ( ( ( ( ( ( ( ( ( ( ( ( ( ( ( ( ( ( ( ( ( ( ( ( ( ^ L 5 , X .     .   . . . . . . $ * * ",
"8.8.8.8.8.8.8.* * * * * % + , 8 0 m 0 0 0 M N S V H S u a : % * & * - 3 8 9 0 0 0 0 0 0 0 0 0 0 0 0 0 0 0 0 0 0 0 0 0 0 0 M N S H V D D D D D D H V D D D D D D V V D D D D D D V V D D D D D B V V H J ^ ^ ( ( ( ( ^ ^ ( ^ ( ^ ( ^ ( ( ^ ( ( ^ ( ( ( ^ ( ^ ( ( ^ ( ( ( ( ^ ( ^ ( ^ ( ( ( ^ ~ Y l + .     . .   . .   . . $ * * ",
"8.8.8.8.8.8.8.8.* * * * & * + 3 8 9 9 0 0 0 M N V Z i f = * * * * * + 3 6 9 6 6 6 6 8 9 6 6 6 6 6 6 6 8 6 6 8 9 6 6 6 6 6 6 y C C Z C Z C Z C C C Z Z Z Z Z Z C Z Z C C C Z Z Z C Z C Z C Z Z Z Z C C A F Y Y Y Y Y Y T Y Y T Y T Y Y Y Y Y T Y Y Y Y Y T Y Y T Y Y Y Y Y Y T Y T Y T Y Y T T Y c < .   X . . X . . . . . $ * * ",
"8.8.8.8.8.8.8.8.8.* * * & & = < 2 8 0 0 0 0 m N w e 4 - * & * * & * = < , 2 , , , , 1 , , , 1 , , , , , , , 1 , , , , , , , h g 5 5 5 5 5 5 5 5 5 5 5 f 5 5 5 4 5 5 5 5 5 5 5 f 5 5 5 5 5 5 5 f 5 5 5 g j z x z z z z z z k z z z z z x z z z z z x z z z z z z z z z z z z z z z z z z z z z x f = $ @ $ X X X $ X $ . * $ * * ",
"8.8.8.8.8.8.8.8.8.8.* * * * * % = 2 6 0 0 0 0 0 7 < = * * * * * * * % % = % % = % % = = = % = % = = = % = % = = = % % = % % ; : = = = ; = ; = ; = = = = = ; = ; = = = ; = ; = = = = = ; = ; = = = = ; = = ; ; ; ; ; ; ; ; : ; ; ; ; ; ; ; ; ; ; ; ; ; ; : ; ; ; ; : = ; ; : ; ; ; ; : = ; ; ; ; ; % * * & $ * * * * * * * * * * ",
"8.8.8.8.8.8.8.8.8.8.8.* * * & & % < 2 8 9 9 9 > , = * & * * * * * * & * & * & & & & & * & & & & & & & & & & & & & & & & & & & & & & & & & & & & & & & & & & & & & & & & & & & & & & & & & & & & & & & & & & & & & & & & * * & & & * & & & & & & * & & & & * & & & & & & & & & & & & & * & & & & * * * * * * * * * * * * * * * * ",
"8.8.8.8.8.8.8.8.8.8.8.8.* * * * * = + 2 6 9 > < O % * & * * * * * * * * & * * * * * & * * * * * & * & * * * * * * * * * * * * & & * & * & * & * & * & * & * & * & * * & * & * & * & * & * & * & & * & * * & & * & * * & & * * & & * * * * & & * * * * & & * * * & * * & * * * & & * * * * & & * * * * * * * * * * * * * * * 8.8.",
"8.8.8.8.8.8.8.8.8.8.8.8.8.* * * * * * + > 8 , = & * * * * * * * * * * * * * * * * * * * * * * * * * * * * * * * * * * * * * * * * * * * * * * * * * * * * * * * * * * * * * * * * * * * * * * * * * * * * * * * * * * * * * * * * * * * * * * * * * * * * * * * * * * * * * * * * * * * * * * * * * * * * * * * * * * * * 8.8.8.",
"8.8.8.8.8.8.8.8.8.8.8.8.8.8.* * * & * = < , - * & * * * * 8.8.8.8.8.8.8.8.8.8.8.8.8.8.8.8.8.8.8.8.8.8.8.8.8.8.8.8.8.8.8.8.8.8.8.8.8.8.8.8.8.8.8.8.8.8.8.8.8.8.8.8.8.8.8.8.8.8.8.8.8.8.8.8.8.8.8.8.8.8.8.8.8.8.8.8.8.8.8.8.8.8.8.8.8.8.8.8.8.8.8.8.8.8.8.8.8.8.8.8.8.8.8.8.8.8.8.8.8.8.8.8.8.8.8.8.8.8.8.8.8.8.8.8.8.8.8.8.8.8.8.",
"8.8.8.8.8.8.8.8.8.8.8.8.8.8.8.* * * * * % ; % * * * * * 8.8.8.8.8.8.8.8.8.8.8.8.8.8.8.8.8.8.8.8.8.8.8.8.8.8.8.8.8.8.8.8.8.8.8.8.8.8.8.8.8.8.8.8.8.8.8.8.8.8.8.8.8.8.8.8.8.8.8.8.8.8.8.8.8.8.8.8.8.8.8.8.8.8.8.8.8.8.8.8.8.8.8.8.8.8.8.8.8.8.8.8.8.8.8.8.8.8.8.8.8.8.8.8.8.8.8.8.8.8.8.8.8.8.8.8.8.8.8.8.8.8.8.8.8.8.8.8.8.8.8.8.",
"8.8.8.8.8.8.8.8.8.8.8.8.8.8.8.8.* * * * & * & * * * * 8.8.8.8.8.8.8.8.8.8.8.8.8.8.8.8.8.8.8.8.8.8.8.8.8.8.8.8.8.8.8.8.8.8.8.8.8.8.8.8.8.8.8.8.8.8.8.8.8.8.8.8.8.8.8.8.8.8.8.8.8.8.8.8.8.8.8.8.8.8.8.8.8.8.8.8.8.8.8.8.8.8.8.8.8.8.8.8.8.8.8.8.8.8.8.8.8.8.8.8.8.8.8.8.8.8.8.8.8.8.8.8.8.8.8.8.8.8.8.8.8.8.8.8.8.8.8.8.8.8.8.8.8.",
"8.8.8.8.8.8.8.8.8.8.8.8.8.8.8.8.8.* * * & * * * * 8.8.8.8.8.8.8.8.8.8.8.8.8.8.8.8.8.8.8.8.8.8.8.8.8.8.8.8.8.8.8.8.8.8.8.8.8.8.8.8.8.8.8.8.8.8.8.8.8.8.8.8.8.8.8.8.8.8.8.8.8.8.8.8.8.8.8.8.8.8.8.8.8.8.8.8.8.8.8.8.8.8.8.8.8.8.8.8.8.8.8.8.8.8.8.8.8.8.8.8.8.8.8.8.8.8.8.8.8.8.8.8.8.8.8.8.8.8.8.8.8.8.8.8.8.8.8.8.8.8.8.8.8.8.8.",
"8.8.8.8.8.8.8.8.8.8.8.8.8.8.8.8.8.8.* * * * * * * 8.8.8.8.8.8.8.8.8.8.8.8.8.8.8.8.8.8.8.8.8.8.8.8.8.8.8.8.8.8.8.8.8.8.8.8.8.8.8.8.8.8.8.8.8.8.8.8.8.8.8.8.8.8.8.8.8.8.8.8.8.8.8.8.8.8.8.8.8.8.8.8.8.8.8.8.8.8.8.8.8.8.8.8.8.8.8.8.8.8.8.8.8.8.8.8.8.8.8.8.8.8.8.8.8.8.8.8.8.8.8.8.8.8.8.8.8.8.8.8.8.8.8.8.8.8.8.8.8.8.8.8.8.8.8.",
"8.8.8.8.8.8.8.8.8.8.8.8.8.8.8.8.8.8.8.* * * * * 8.8.8.8.8.8.8.8.8.8.8.8.8.8.8.8.8.8.8.8.8.8.8.8.8.8.8.8.8.8.8.8.8.8.8.8.8.8.8.8.8.8.8.8.8.8.8.8.8.8.8.8.8.8.8.8.8.8.8.8.8.8.8.8.8.8.8.8.8.8.8.8.8.8.8.8.8.8.8.8.8.8.8.8.8.8.8.8.8.8.8.8.8.8.8.8.8.8.8.8.8.8.8.8.8.8.8.8.8.8.8.8.8.8.8.8.8.8.8.8.8.8.8.8.8.8.8.8.8.8.8.8.8.8.8.8.",
"8.8.8.8.8.8.8.8.8.8.8.8.8.8.8.8.8.8.8.8.* * * 8.8.8.8.8.8.8.8.8.8.8.8.8.8.8.8.8.8.8.8.8.8.8.8.8.8.8.8.8.8.8.8.8.8.8.8.8.8.8.8.8.8.8.8.8.8.8.8.8.8.8.8.8.8.8.8.8.8.8.8.8.8.8.8.8.8.8.8.8.8.8.8.8.8.8.8.8.8.8.8.8.8.8.8.8.8.8.8.8.8.8.8.8.8.8.8.8.8.8.8.8.8.8.8.8.8.8.8.8.8.8.8.8.8.8.8.8.8.8.8.8.8.8.8.8.8.8.8.8.8.8.8.8.8.8.8.8.",
"8.8.8.8.8.8.8.8.8.8.8.8.8.8.8.8.8.8.8.8.* * * 8.8.8.8.8.8.8.8.8.8.8.8.8.8.8.8.8.8.8.8.8.8.8.8.8.8.8.8.8.8.8.8.8.8.8.8.8.8.8.8.8.8.8.8.8.8.8.8.8.8.8.8.8.8.8.8.8.8.8.8.8.8.8.8.8.8.8.8.8.8.8.8.8.8.8.8.8.8.8.8.8.8.8.8.8.8.8.8.8.8.8.8.8.8.8.8.8.8.8.8.8.8.8.8.8.8.8.8.8.8.8.8.8.8.8.8.8.8.8.8.8.8.8.8.8.8.8.8.8.8.8.8.8.8.8.8.8."
};
