/* XPM */
static char *result[] = {
/* columns rows colors chars-per-pixel */
"128 34 79 1 ",
"  c #3C1F1F",
". c #1F2828",
"X c #2C2727",
"o c #262929",
"O c #292929",
"+ c #362222",
"@ c #3B2222",
"# c #322A2A",
"$ c #3E2929",
"% c #4C1717",
"& c #571212",
"* c #591111",
"= c #541B1B",
"- c #591F1F",
"; c #6D0707",
": c #660A0A",
"> c #6A0B0B",
", c #770101",
"< c #7B0000",
"1 c #750B0B",
"2 c #6A1B1B",
"3 c #771414",
"4 c #7D1717",
"5 c #7E1818",
"6 c #442323",
"7 c #482727",
"8 c #432A2A",
"9 c #4A2929",
"0 c #5F2424",
"q c #5E2828",
"w c #632929",
"e c #692D2D",
"r c #752727",
"t c #7F2F2F",
"y c #820303",
"u c #880707",
"i c #8C0A0A",
"p c #940E0E",
"a c #861515",
"s c #811B1B",
"d c #8C1A1A",
"f c #951212",
"g c #9A1111",
"h c #A11414",
"j c #A31B1B",
"k c #A91C1C",
"l c #8C2727",
"z c #842E2E",
"x c #8C2828",
"c c #952727",
"v c #982626",
"b c #912929",
"n c #992E2E",
"m c #9C3030",
"M c #A62525",
"N c #AD2626",
"B c #A32E2E",
"V c #AC2828",
"C c #B02626",
"Z c #B22929",
"A c #B92C2C",
"S c #A53030",
"D c #BF3030",
"F c #C42F2F",
"G c #C33232",
"H c #C83232",
"J c #C33A3A",
"K c #BC4545",
"L c #C24A4A",
"P c #CD5151",
"I c #D25C5C",
"U c #D37777",
"Y c #DD8C8C",
"T c #E58F8F",
"R c #E39090",
"E c #F4B4B4",
"W c #F4BEBE",
"Q c #FFD6D6",
"! c None",
/* pixels */
"!!!!oooooooooo!!!!!!OoooooOooo!!!!!!!!!!!!!!!!!!!!!!!!!!!!!!!!!!!!!!!!!!!!!!!!!!!!!!!!!!!!!!!!!!!!!!!!!!!!!!!!!!!!!!!!!!!!!!!!!!",
"!!!!6678778776!!!!!!9999999999!!!!!!!!!!!!!!!!!!!!!!!!!!!!!!!!!!!!!!!!!!!!!!!!!!!!!!!!!!!!!!!!!!!!!!!!!!!!!!!!!!!!!!!!!!!!!!!!!!",
"!!o@2slxllllxr8o!!o8znmnmmmmmz8o!!!!!!!!!!!!!!!!!!!!!!!!!!!!!!!!!!!!!!!!!!!!!!!!!!!!!!!!!!!!!!!!!!!!!!!!!!!!!!!!!!!!!!!!!!!!!!!!",
"!!@0agkNCCCCZvw6!!8wBGHGHGGHHSe8!!!!!!!!!!!!!!!!!!!!!!!!!!!!!!!!!!!!!!!!!!!!!!!!!!!!!!!!!!!!!!!!!!!!!!!!!!!!!!!!!!!!!!!!!!!!!!!!",
"o62afghkNNNCCMcr8$rvVAFGFFFFHDSz9o!!!!!!!!!!!!!!!!!!!!!!!!!!!!!!!!!!!!!!!!!!!!!!!!!!!!!!!!!!!!!!!!!!!!!!!!!!!!!!!!!!!!!!!!!!!!!!",
"o6agggggjNNNNCCcqqcCVCAJPIIPJHHm9o!!!!!!!!!!!!!!!!!!!!!!!!!!!!!!!!!!!!!!!!!!!!!!!!!!!!!!!!!!!!!!!!!!!!!!!!!!!!!!!!!!!!!!!!!!!!!!",
"o64ggggggjNNNNNMccMNCNNLTEETPGHm9o!!!!!!!!!!!!!!!!!!!!!!!!!!!!!!!!!!!!!!!!!!!!!!!!!!!!!!!!!!!!!!!!!!!!!!!!!!!!!!!!!!!!!!!!!!!!!!",
"o63pggggfgjNNNNNNNNNNNNKYWQEIGGm9o!!!!!!!!!!!!!!!!!!!!!!!!!!!!!!!!!!!!!!!!!!!!!!!!!!!!!!!!!!!!!!!!!!!!!!!!!!!!!!!!!!!!!!!!!!!!!!",
"o >upggggggjNNNNNNNVNNNZKUWEIFGn9OooooooooOooooooooooooooooooooooooooooooooooooooooooooooooooooooooooooooooooooooooooooooooooo!!",
"o@:yipggggggjNNNNNNNNNNNkKYRPGGS9X+@ @6666666666666666666666666666667787787787777787777777877787777878779999999999999999999999!!",
"O :<yipggggggjNNNNNNNVNNNVKLJGGn9+&::>44444444a44555a4444444a444544slllllllllllllllxxxllllllllxlllxllxlxnmmmmmmmmmmmmmmmmmmmmz9o",
"o :<,<ipgggffgjNNVNNNNVNNNNNAGGS9 :<<yigggggggggggggggggggggggggggggkNNCCCCCCCCCCCCCCCCCCCCCCCCCCCCCCCNAAGHHGHGHGHGHHJGHJHHHJm9o",
"o@:<<<yupggggggjNNNNNNNNNNNNCAFS9@:<<yyupggggggggggggggggggggggggggggjNCCCNNNCNCCNCNCNCCNCCNCCNCNCNCCNCCCAGGGGGGGJHGGGGGGGGHHm9o",
"o@&;,<,yipgggfggjNNNNNNNNNNVNVBt8 :,<,,yipgggfgggggfggggggggggggggggggjNNVNNNNNNVNNNNNNVNNNNVNNNNNNNNNNNVCADGGGDGDDGGDGGGGDHHm9o",
"OX+%;<<<<ipfgggggjMNNNNNNNNNCcw8# :<<,,<yupggggfgggggggggggpgggggfgggggjNNNNNNNNNNNNNNNNNNNNNNNVNNNNNNNNVCCADGGGDGGGGGJDGDDJHm9o",
"Ooo+&;,<,yipggfgfgjNNNNNNNNVcr$oo@:<<<<,,yipgggggggggggpgggggggfggggggfgjNNNNVNNNNNVNNNNNNVNNNNNNNNVNVNNVNVCADDGGGGDDGGGGGGHHm9o",
"OOOO+%;<<<<upggggggjNNNNNNCvw@Ooo@:<<<<<,<yupgggggpgpgggggggggggggfgggfggjNNNNNNNNMNNNNNNNNVNNNNNNNNNVNNNNNNCADGGGDGDGGGGDGGHm9o",
"OOOOo@&;,<,yipggggggjNNNNNcr$oOO+%;,<,,<<,,yipgggggggggggfggggfgfgggggggggjNNNNNNNNNNNNNNNNNNNNNVNNNNNNNNNNVVVADDJGGGGGDGJGGGm9o",
"!!OOoO+%>y<<<ipggggggjNCCvw$#oo+&;,<<<<<<,,<yupggfgggggggggfpgggggpggggggghjMNNNNNNNNNNNVNNNNNVNNNVNNNNNNVNNNNCADGDGGDGGGGDGJm9o",
"!!OOOOo+&;,<,<ipggfgggjMcr$ooO+%;<<<<,,<<<<,,<ipgggfgggggpggggggggggggfgggggjNNNNNNNNNNNNNNNNNNNNNNNNNNNNNNNNNVCDDDGGGDGDGGGHm9o",
"!!!!OOOO+%;<<<yupggggggd08Ooo+&>,<<,<,<<,<<<,<yupggggggggggggggggggggggpgggggjMNNNNNNNNVNNNNNNNNNNNVNNNNNNNNNNNNVAGGGGGGGGGGHm9o",
"!!!!OOOOo+&;,<,yipgggfa2$ooX+%;y<<<<<<<<<<<<<<,yipggggggggggggggggggggggggggggkNNCNCNNNNCCNCCCCCNCNCCCCCCCCNCCNCVVAAGGGGGGGHHm9o",
"!!!!!!OOOO@%;<<<<ipgha-$Xoo+*1,<y<<<<<<<<<<<<<<yyupggggggggggggggggggggggggggghkNCCCCCCCCCCCCCCCCCCCCCCCCCCCCCCCCCAAGGGHGHHHHm9o",
"!!!!!!OOOoo+&;,,,yiia2@oooo *;:::::::::::::::::::>3a444a444a44a54a44a44a44444a4sllbllllxllllxxxxllxlxlllllxxxbxxxxlcnmmmmmmmSt8o",
"!!!!!!!!OOOO@%;<<<y1-@OooXOX    6@    6@  @@   @  66666666666666666666666666666667777777777777777977777799977777899999999999q8#o",
"!!!!!!!!OOOoo+&;,,;&+oOOOoOOooOOooOOoOooOOOoOOooOooooooOoooooOooooooooooOooooooooooOooOoOooOooOooOooOooOooOoooooooooOoOoooooooOO",
"!!!!!!!!!!OOoO+%1;%+OoOOXOOOOoOOoooOOoooOOOoOoOOOOooOooOoOoOoOoOoOOooOoOoOOooOoOooOOoOoOOooOooOoOooOOoOoooOooOOOoooOOOoOOoooOo!!",
"!!!!!!!!!!OOOOo@**+oOOOOoOOOOOOOOOOOOOOOOOOOOOOOOOOOOOOOOOOOOOOOOOOOOOOOOOOOOOOOOOoXOOOOOOOOOOOOOOOOOOOOOOOOOOOOOoOOOOOOOOoOOO!!",
"!!!!!!!!!!!!OOoX  XoOO!!!!!!!!!!!!!!!!!!!!!!!!!!!!!!!!!!!!!!!!!!!!!!!!!!!!!!!!!!!!!!!!!!!!!!!!!!!!!!!!!!!!!!!!!!!!!!!!!!!!!!!!!!",
"!!!!!!!!!!!!OOOOooOoOO!!!!!!!!!!!!!!!!!!!!!!!!!!!!!!!!!!!!!!!!!!!!!!!!!!!!!!!!!!!!!!!!!!!!!!!!!!!!!!!!!!!!!!!!!!!!!!!!!!!!!!!!!!",
"!!!!!!!!!!!!!!OXoOOO!!!!!!!!!!!!!!!!!!!!!!!!!!!!!!!!!!!!!!!!!!!!!!!!!!!!!!!!!!!!!!!!!!!!!!!!!!!!!!!!!!!!!!!!!!!!!!!!!!!!!!!!!!!!",
"!!!!!!!!!!!!!!OOOOOO!!!!!!!!!!!!!!!!!!!!!!!!!!!!!!!!!!!!!!!!!!!!!!!!!!!!!!!!!!!!!!!!!!!!!!!!!!!!!!!!!!!!!!!!!!!!!!!!!!!!!!!!!!!!",
"!!!!!!!!!!!!!!!!OO!!!!!!!!!!!!!!!!!!!!!!!!!!!!!!!!!!!!!!!!!!!!!!!!!!!!!!!!!!!!!!!!!!!!!!!!!!!!!!!!!!!!!!!!!!!!!!!!!!!!!!!!!!!!!!",
"!!!!!!!!!!!!!!!!OO!!!!!!!!!!!!!!!!!!!!!!!!!!!!!!!!!!!!!!!!!!!!!!!!!!!!!!!!!!!!!!!!!!!!!!!!!!!!!!!!!!!!!!!!!!!!!!!!!!!!!!!!!!!!!!"
};
