/* XPM */
static char *result[] = {
/* columns rows colors chars-per-pixel */
"128 34 82 1 ",
"  c #171B1B",
". c #1B1B1B",
"X c #291616",
"o c #2D1A1A",
"O c #301919",
"+ c #3D1F1F",
"@ c #1F2828",
"# c #252525",
"$ c #2C2626",
"% c #252A2A",
"& c #292929",
"* c #362222",
"= c #3B2222",
"- c #3E2929",
"; c #440F0F",
": c #520C0C",
"> c #4C1717",
", c #571212",
"< c #591111",
"1 c #541B1B",
"2 c #591F1F",
"3 c #6C0606",
"4 c #660A0A",
"5 c #690909",
"6 c #770101",
"7 c #7C0000",
"8 c #750B0B",
"9 c #6A1B1B",
"0 c #771414",
"q c #7F1717",
"w c #432424",
"e c #432929",
"r c #4B2A2A",
"t c #5F2424",
"y c #5E2828",
"u c #632929",
"i c #692D2D",
"p c #752727",
"a c #7F2F2F",
"s c #820303",
"d c #880707",
"f c #8C0A0A",
"g c #940E0E",
"h c #861515",
"j c #821B1B",
"k c #8C1A1A",
"l c #951212",
"z c #9A1111",
"x c #A11414",
"c c #A31C1C",
"v c #A91C1C",
"b c #8C2626",
"n c #832E2E",
"m c #8C2828",
"M c #952727",
"N c #982626",
"B c #9D3030",
"V c #A62525",
"C c #AD2525",
"Z c #A32E2E",
"A c #AC2828",
"S c #B12626",
"D c #B12F2F",
"F c #B92C2C",
"G c #A73030",
"H c #BB3232",
"J c #C42F2F",
"K c #C53131",
"L c #C83232",
"P c #C33A3A",
"I c #BC4545",
"U c #C24A4A",
"Y c #CD5151",
"T c #D25C5C",
"R c #D37777",
"E c #DD8C8C",
"W c #E58F8F",
"Q c #E39090",
"! c #F4B4B4",
"~ c #F4BEBE",
"^ c #FFD6D6",
"/ c None",
/* pixels */
"////%%%%#%%%%%//////%%%%%%%%%%//////////////////////////////////////////////////////////////////////////////////////////////////",
"////wwrewrrwrw//////rrrrrrrrrr//////////////////////////////////////////////////////////////////////////////////////////////////",
"//%=9jbbmmmmmpe@//%enBBBBBBBBne%////////////////////////////////////////////////////////////////////////////////////////////////",
"//=thzvCSSSSSNuw//euZKKKKKJKLGie////////////////////////////////////////////////////////////////////////////////////////////////",
"%w9hgzxvCCCCSVMpe-pMAFKKJJJJKHGnr%//////////////////////////////////////////////////////////////////////////////////////////////",
"%whzzzzzvVCCCSSMyyMSSSFPYTTYPKLBr%//////////////////////////////////////////////////////////////////////////////////////////////",
"%whzzgzzzcCCASSVMMVSCCCUW!!WYJLBr%//////////////////////////////////////////////////////////////////////////////////////////////",
"#w0gzzzzzzcCCCACCCACCCCIE~^!TJKBr%//////////////////////////////////////////////////////////////////////////////////////////////",
"%=5dgzzzzzzcVCCCSSCACCCDIR~!TJKBr%%&%&&&&%$%&&%#&&&&$$%$%&&&$$$%&&%#&$##&&%%&&&&%%&&&&$&&&&$$$##&&&&$$%$%&&&$$$%&&&#&&#$&&#&&&//",
"%+4sfgzzzzzzvVCCCCCCCCCCvIEWYJJBr#*=+*$%###@###o#######################X#########o#############.###################@###X###@##//",
"%+477fgzzzzzzvVCACSCCCCCCDIUPKKBr*,55:o..@.o.#.....#.....#........o@......#o.@.... X.o@ .o@....X...#.....#........o@......#o.##&",
"%+5777flgzzzzzvVCCCCACCACVCSFKLBr+4773;X....   .... .... ...... .. .......  ........ .    .... .... .... ...... ..........   .#&",
"%=5777sfgzzzzzzcVCCCASCCCCCCAFKGr=47763:X  ...................... ................. .....  ........................... ......@@#",
"%=,36767fgzzgzzzvCVCCCCCCCCCCAZae+477673;X............... ........ .............  ....... ............... ...... . ..........o#$",
"&$*>37777flzzzzzzcCCCCCCCCASAMue&+4777763:X .... ............... .......  ....... ......... .. . ................... ..... ..@#%",
"&&%*,37777fgzzgzzzvCCACACSSVNp-%%=47777773;X. ........................ .. ..........................................  ........#$",
"&&&&*>57777fgzzzzzzcVCCCCSCNu-&%%=477767763:X  ......................................X  ......... ......... .............. ...X$",
"&&&&%=,36777fgzzzzzzvVCCSVNp-%%&*>5777777773;X. . ......   ........... ........ . ..    ....... ........ .....................#%",
"//&&&&*>57777fgzzzzzzvVCSNu-&%%=,367776677763:X ..  ................ . ........ ....   X....... ..  ......  ................ o#$",
"//&&&&%=<36767fllzzzzzvVNp-%&&*>37766777676773;X.. ............................ ....X   ....... .. .......................   .#%",
"////&&&&*>3777sfgzzzzzxkte&%%*,3677777777767763:X. .......... ........... ..... ....   X. ..... ......................  .... ##%",
"////&&&&%*,36777fgzzzlh9=%%$=>377777777777777773;XX.........  ..........  ..   .....      ..   .............. ........  .... .#&",
"//////&&&&*>37777fgzzh2=&%%=<37777777777777777773:X  .......  ..........  . ..  .. ..     . ..   .   ...  .   .........  . . .#&",
"//////&&&&%*,36777fgh9=%&&&=<55544444445444444453:X . X.....o.@... X....o. @.oo...X... Xo. @.oo... X X....X. @o........o..#..##$",
"////////&&%&=>3777s82=&%&&&$=+++==+=++=++=+=+++=+O$#####%#######################o###############X#############################&&",
"////////&&&&%*<3763,*%&&&&&&%&%&&%&&&&%%&&&%&%&&&$&&&&&&&&&&&&&&$#&&&&&&&&&&&&&&%%&#&&&&&&&&&&&&#$&&&&&&&&&&&&&&&&&&&&&&$$&&&&&&",
"//////////&&%&=>33>*&%&&&&&&%&&&&&%&&%&&&&%&&&&%&&&&&&&&&&&&&&&&&&&$&&&&&&&&&&&&&&&&&&&&&&&&&&&&&&&&&&&&&&&&&&&&&&&&&&&&&&&&&&//",
"//////////&&&&%*<<=%&&&&&&&&&&&&&&&&&&&&&&&&&&&&&&&&&&&&&&&&&&&&&&&&&&&&&&&&&&&&&&&&&&&&&&&&&&&&&&&&&&&&&&&&&&&&&&&&&&&&&&&&&&//",
"////////////&&&$*=$%&&//////////////////////////////////////////////////////////////////////////////////////////////////////////",
"////////////&&&&&&&&&&//////////////////////////////////////////////////////////////////////////////////////////////////////////",
"//////////////&&%&&&////////////////////////////////////////////////////////////////////////////////////////////////////////////",
"//////////////&&&&&&////////////////////////////////////////////////////////////////////////////////////////////////////////////",
"////////////////&&//////////////////////////////////////////////////////////////////////////////////////////////////////////////",
"////////////////&&//////////////////////////////////////////////////////////////////////////////////////////////////////////////"
};
