/* XPM */
static char *_673d4f3b996434fd661b00cbf688515mFvm4OIoI7tJlIBG[] = {
/* columns rows colors chars-per-pixel */
"96 26 92 1 ",
"  c None",
". c #171A1A",
"X c #1A1A1A",
"o c #2D1919",
"O c #3F1717",
"+ c #341818",
"@ c #3C1C1C",
"# c #1F2929",
"$ c #232323",
"% c #2C2525",
"& c #262A2A",
"* c #292929",
"= c #322525",
"- c #3A2222",
"; c #322929",
": c #3A2929",
"> c #5D0F0F",
", c #431717",
"< c #4D1515",
"1 c #431C1C",
"2 c #4A1919",
"3 c #511515",
"4 c #581111",
"5 c #551F1F",
"6 c #5B1D1D",
"7 c #6D0707",
"8 c #630C0C",
"9 c #690909",
"0 c #760202",
"q c #7B0000",
"w c #631D1D",
"e c #6B1A1A",
"r c #721414",
"t c #7B1313",
"y c #4A2121",
"u c #422B2B",
"i c #4F2828",
"p c #542020",
"a c #542B2B",
"s c #5D2828",
"d c #642424",
"f c #6D2727",
"g c #662828",
"h c #6A2A2A",
"j c #732727",
"k c #702D2D",
"l c #7D2E2E",
"z c #850505",
"x c #880707",
"c c #830A0A",
"v c #8A0909",
"b c #960F0F",
"n c #980F0F",
"m c #831414",
"M c #8B1414",
"N c #961212",
"B c #9A1111",
"V c #981A1A",
"C c #A11313",
"Z c #A21B1B",
"A c #842727",
"S c #972727",
"D c #9D2626",
"F c #902F2F",
"G c #A42626",
"H c #AD2525",
"J c #A12A2A",
"K c #AC2A2A",
"L c #B12626",
"P c #B12B2B",
"I c #BD2E2E",
"U c #A93131",
"Y c #B53131",
"T c #BD3030",
"R c #BC3D3D",
"E c #C42E2E",
"W c #C33131",
"Q c #CA3030",
"! c #C63E3E",
"~ c #BE4A4A",
"^ c #C84343",
"/ c #CD4E4E",
"( c #C55A5A",
") c #D86D6D",
"_ c #D97171",
"` c #DA8080",
"' c #E08181",
"] c #E59E9E",
"[ c #E9A4A4",
"{ c #F4B7B7",
"} c #F8BFBF",
"| c #FED3D3",
/* pixels */
"   *******     *******                                                                          ",
"  ;5dhggggi   :hkhkkkka                                                                         ",
" ;yMZHHHHHj: %aUWWWWWWl:                                                                        ",
"*pmNBBHHHLGA:sSKIWWEWWYFu                                                                       ",
"*wBBBBZHLHLJfALHHR)')!QUu&                                                                      ",
"*6nBBBBZHHHHHHHHHR[|{/EUu#                                                                      ",
"*3xnBBBBVHHHHLHHHH~]}/EUu&&**&&&&&&&&&&&&&&&****&&&*******************************************  ",
"*<qvnBBNBZKLHHHHHHH(`^WUu=,22pppppppppppppppppp5ppy%$$$$$$$$$$$$$$$$$$$$$$$$$$$$$$$$$$$$$$$$$$$ ",
"*3qqvnBBBBZHHHHHHHHKPTQUu<qqxNNNNBNNNNNBNBNNNNNNBBmOXXXXXXXXXXXXXXXXXXXXXXXXXXXXXXXXXXXXXXXXXX$$",
"*3qqqxNBBBBZHHHHHHLHHPWUu<qqqxNBBBBBBBBBBBBBBBBBBnNt,.XXXXXXXXXXXXXXXXXXXXXXXXXXXXXXXXXXXXXXXX#%",
"*180qqvNBBBBZHHHHHHHLLJl:<qqqqvnBBBBnBBBBBBBBBNBBBBBr,XXXXXXXXXXXXXXXXXXXXXXXXXXXXXXXXXXXXXXXX$*",
"**-9qqqvBBBBBZHHHHHHHGh%*<qqqqqvNBBBNBBBBBBBBBBBBBBBBt+XXXXXXXXXXXXXXXXXXXXXXXXXXXXXXXXXXXXXXX$*",
"***@8qqqxNBBBBZHHHHLGg;**3qqqq0qvNBBBBBNBBNBBBBBBBBNBnt,.XXXXXXXXXXXXXXXXXXXXXXXXXXXXXXXXXXXXX$*",
"***&18qqqvnBBNBGHHLDj;&*->qqqqqqqvNBBBBBNBBBBBBBBBBBBBBr@X.XXXXXXXXXXXXXXXXXXXXXXXXXXXXXXXXXXX$*",
"  ***-9qqqvBBBBBZHHh%**-9qqqqqqqqqvBBBBBBBBBNBBnnBBBBBBBt+XXXXXXXXXXXXXXXXXXXXXXXXXXXXXXXXXXXX$*",
"   *&%18qqqxNBBBBVg:&*180qqqqqqqqqqvNBNBBBNBBBBNBBBNBBBBNrO.XXXXXXXXXXXXXXXXXXXXXXXXXXXXXXXXXX$*",
"   ***&19qqqvNBBMe;**@8qqqqqqqqqqqqqvNBBBBBBBBBBBBBBBBBBBCr+X.XXXXXXXXXXXXXXXXXXXXXXXXXXXXXXXX$*",
"    ****-7qqqvBBw;*&=8qqqqq00q0q0qq0qvNNNNNNNNNNNNNBNNNNNNNtoXXXXXXXXXXXXXXXXXXXXXXXXXXXXXXXXX$*",
"     ****18qqzqw-**&%12222222,2222,225ppppppp5pppp55pppp555y%$$$$$$$$$$$$$$$$$$$$$$$$$$$$$$$$$**",
"      ****27q04;*****&**&&*&**&&&*&***&***&******&**&*******************************************",
"       ****-74;******************************************************************************** ",
"        ***%,-***                                                                               ",
"         *******                                                                                ",
"          *****                                                                                 ",
"           ***                                                                                  ",
"            **                                                                                  "
};
