/* XPM */
static char *_946cb3d87dc4ac7fcf836b8d663e84cBfmETiGMqJh2Qkhq[] = {
/* columns rows colors chars-per-pixel */
"64 17 7 1 ",
"  c black",
". c gray16",
"X c #7A0000",
"o c #991111",
"O c #AD2626",
"+ c #C23232",
"@ c #FFD4D4",
/* pixels */
"  .....   .....                                                 ",
" .oOOOO. .+++++.                                                ",
".oooOOOO.OO+++++.                                               ",
".ooooOOOOOOO@@++.                                               ",
".XooooOOOOOOO@++............................................... ",
".XXooooOOOOOOO++.XXoooooooooooooooOOOOOOOOOOOOOOOOOO+++++++++++.",
".XXXooooOOOOOOO+.XXXoooooooooooooooOOOOOOOOOOOOOOOOOO++++++++++.",
"..XXXooooOOOOOO..XXXXoooooooooooooooOOOOOOOOOOOOOOOOOO+++++++++.",
"...XXXooooOOOO...XXXXXoooooooooooooooOOOOOOOOOOOOOOOOOO++++++++.",
" ...XXXooooOO...XXXXXXXoooooooooooooooOOOOOOOOOOOOOOOOOO+++++++.",
"  ...XXXoooo...XXXXXXXXXoooooooooooooooOOOOOOOOOOOOOOOOOO++++++.",
"   ...XXXoo...XXXXXXXXXXXoooooooooooooooOOOOOOOOOOOOOOOOOO+++++.",
"    ...XXX......................................................",
"     ...X...................................................... ",
"      .....                                                     ",
"       ...                                                      ",
"        .                                                       "
};
