/* XPM */
static char *_748a2ce2425437eeee8b4241ce84995R86Rk7kgKHW85s8T[] = {
/* columns rows colors chars-per-pixel */
"96 26 91 1 ",
"  c None",
". c #161B1B",
"X c #1A1A1A",
"o c #251717",
"O c #281616",
"+ c #211818",
"@ c #341F1F",
"# c #3D1F1F",
"$ c #1F2929",
"% c #232323",
"& c #2D2727",
"* c #262A2A",
"= c #292929",
"- c #322525",
"; c #3A2222",
": c #322929",
"> c #3A2929",
", c #450F0F",
"< c #4C0D0D",
"1 c #520B0B",
"2 c #5D0F0F",
"3 c #4D1515",
"4 c #431C1C",
"5 c #491919",
"6 c #511515",
"7 c #581111",
"8 c #571F1F",
"9 c #5C1D1D",
"0 c #6D0505",
"q c #630C0C",
"w c #690909",
"e c #740202",
"r c #7B0000",
"t c #631D1D",
"y c #6B1A1A",
"u c #492222",
"i c #422B2B",
"p c #4F2828",
"a c #542B2B",
"s c #5D2828",
"d c #642424",
"f c #6D2727",
"g c #662828",
"h c #6A2A2A",
"j c #732727",
"k c #702D2D",
"l c #7D2E2E",
"z c #850505",
"x c #880707",
"c c #810A0A",
"v c #8A0909",
"b c #960F0F",
"n c #861515",
"m c #8B1414",
"M c #971111",
"N c #9A1111",
"B c #981A1A",
"V c #A11313",
"C c #A21B1B",
"Z c #842727",
"A c #972727",
"S c #9D2626",
"D c #902F2F",
"F c #A42626",
"G c #AD2525",
"H c #A12A2A",
"J c #AC2A2A",
"K c #B12626",
"L c #B12B2B",
"P c #BD2E2E",
"I c #A93131",
"U c #B53131",
"Y c #BD3030",
"T c #BC3D3D",
"R c #C42E2E",
"E c #C33131",
"W c #CA3030",
"Q c #C63E3E",
"! c #BE4A4A",
"~ c #C84343",
"^ c #CD4E4E",
"/ c #C55A5A",
"( c #D86D6D",
") c #D97171",
"_ c #DA8080",
"` c #E08181",
"' c #E59E9E",
"] c #E9A4A4",
"[ c #F4B7B7",
"{ c #F8BFBF",
"} c #FED3D3",
/* pixels */
"   =&=====     =======                                                                          ",
"  :8dggggdp   >hkkhkkka                                                                         ",
" :umCGKKGGj> &aIEEEEEEl>                                                                        ",
"=8nMNCGKGGFZ>sAJPEEREEUDi                                                                       ",
"=9NNNNCCGGKHfZKGGT(`(QWIi*                                                                      ",
"=9MNNNNCGGGGGJGGGT]}[^RIi$                                                                      ",
"=6xMNMNNCGGGGKGGGG!'{^RJi**==&================&===============================================  ",
"=3rvMNNMNCGKGGGGGGG/_~EIi-45-%%%%%%%%%%%%%%%%%%%%%%%%%%%%%%%%%%%%%%%%%%%%%%%%%%%%%%%%%%%%%%%%%= ",
"=6rrvMNNNNCGGGGGGGJGUYEIi3rr<+XXXXXXXXXXXXXXXXXXXXXXXXXXXXXXXXXXXXXXXXXXXXXXXXXXXXXXXXXXXXXXXX+=",
"=6rrrxMNNNNCGGGGGKGGGKEIi3rre1o.XXXXXXXXXXXXXXXXXXXXXXXXXXXXXXXXXXXXXXXXXXXXXXXXXXXXXXXXXXXXXX%=",
"=4qerrvMNNbNCGGGGGGGGGHl>3rrre,OXXXXXXXXXXXXXXXXXXXXXXXXXXXXXXXXXXXXXXXXXXXXXXXXXXXXXXXXXXXXXX%=",
"==;wrrrvMNNNNCGGGGGGGJh&=6rrrrr<XXXXXXXXXXXXXXXXXXXXXXXXXXXXXXXXXXXXXXXXXXXXXXXXXXXXXXXXXXXXXX$=",
"===#qrrrxMNNNNCGGGGKFg:==3rrrrr01+.XXXXXXXXXXXXXXXXXXXXXXXXXXXXXXXXXXXXXXXXXXXXXXXXXXXXXXXXXXX%&",
"====4qrrrvbNNMNFGGKSj:==#2rrrrrre,oXXXXXXXXXXXXXXXXXXXXXXXXXXXXXXXXXXXXXXXXXXXXXXXXXXXXXXXXXXX%=",
"  ===;wrrrvNNNNNCGGh&==;wrrrrrrrre<XXXXXXXXXXXXXXXXXXXXXXXXXXXXXXXXXXXXXXXXXXXXXXXXXXXXXXXXXXX%=",
"   =*&4qrrrvbNNNNBd>**4qerrrerrrrr0<+.XXXXXXXXXXXXXXXXXXXXXXXXXXXXXXXXXXXXXXXXXXXXXXXXXXXXXXXX%=",
"   ====4qrrrvNNNMy:=&#qrrrrrrrrrrrre,oXXXXXXXXXXXXXXXXXXXXXXXXXXXXXXXXXXXXXXXXXXXXXXXXXXXXXXXX%=",
"    ====#wrrrvMMt&=*-qererrrerrrrrree,XXXXXXXXXXXXXXXXXXXXXXXXXXXXXXXXXXXXXXXXXXXXXXXXXXXXXXXX%=",
"     ===&4qrrzc9;*=*:4554555555454555#%%%%%%%%%%%%%%%%%%%%%%%%%%%%%%%%%%%%%%%%%%%%%%%%%%%%%%%%==",
"      ====5wre2&=====*==*======*==***===========================================================",
"       ====#07:================================================================================ ",
"        ===&4;===                                                                               ",
"         =======                                                                                ",
"          =====                                                                                 ",
"           ===                                                                                  ",
"            ==                                                                                  "
};
