/* XPM */
static char *_9b5d9fa14d94b5df539fd40108460294svIPpf9yOlgNJly[] = {
/* columns rows colors chars-per-pixel */
"64 17 8 1 ",
"  c None",
". c gray10",
"X c gray16",
"o c #7A0000",
"O c #991111",
"+ c #AD2626",
"@ c #C23232",
"# c #FFD4D4",
/* pixels */
"  XXXXX   XXXXX                                                 ",
" XO++++X X@@@@@X                                                ",
"XOOO++++X++@@@@@X                                               ",
"XOOOO+++++++##@@X                                               ",
"XoOOOO+++++++#@@XXXXXXXXXXXXXXXXXXXXXXXXXXXXXXXXXXXXXXXXXXXXXXX ",
"XooOOOO+++++++@@XooOOOOOOOOOOOOOOO++++++++++++++++++...........X",
"XoooOOOO+++++++@XoooOOOOOOOOOOOOOOO++++++++++++++++++..........X",
"XXoooOOOO++++++XXooooOOOOOOOOOOOOOOO++++++++++++++++++.........X",
"XXXoooOOOO++++XXXoooooOOOOOOOOOOOOOOO++++++++++++++++++........X",
" XXXoooOOOO++XXXoooooooOOOOOOOOOOOOOOO++++++++++++++++++.......X",
"  XXXoooOOOOXXXoooooooooOOOOOOOOOOOOOOO++++++++++++++++++......X",
"   XXXoooOOXXXoooooooooooOOOOOOOOOOOOOOO++++++++++++++++++.....X",
"    XXXoooXXXXXXXXXXXXXXXXXXXXXXXXXXXXXXXXXXXXXXXXXXXXXXXXXXXXXX",
"     XXXoXXXXXXXXXXXXXXXXXXXXXXXXXXXXXXXXXXXXXXXXXXXXXXXXXXXXXX ",
"      XXXXX                                                     ",
"       XXX                                                      ",
"        X                                                       "
};
