/* XPM */
static char *result[] = {
/* columns rows colors chars-per-pixel */
"128 34 82 1 ",
"  c #161A1A",
". c #1B1B1B",
"X c #211A1A",
"o c #321C1C",
"O c #3C1F1F",
"+ c #1F2828",
"@ c #252525",
"# c #2D2727",
"$ c #262929",
"% c #292929",
"& c #362222",
"* c #3B2222",
"= c #3E2929",
"- c #4C1717",
"; c #571212",
": c #591111",
"> c #541B1B",
", c #5A1F1F",
"< c #6D0707",
"1 c #660A0A",
"2 c #6A0B0B",
"3 c #770101",
"4 c #7B0000",
"5 c #750B0B",
"6 c #6A1B1B",
"7 c #771414",
"8 c #7D1717",
"9 c #7E1818",
"0 c #442323",
"q c #482727",
"w c #432929",
"e c #492929",
"r c #5F2424",
"t c #5E2828",
"y c #6D2121",
"u c #632929",
"i c #692D2D",
"p c #742626",
"a c #7F2F2F",
"s c #820303",
"d c #880707",
"f c #8C0A0A",
"g c #940E0E",
"h c #861515",
"j c #811B1B",
"k c #8C1A1A",
"l c #951212",
"z c #9A1111",
"x c #A11414",
"c c #A31B1B",
"v c #A91C1C",
"b c #8C2727",
"n c #832E2E",
"m c #8C2828",
"M c #952525",
"N c #982626",
"B c #9D3030",
"V c #A62525",
"C c #AD2626",
"Z c #A32E2E",
"A c #AC2828",
"S c #B02626",
"D c #B12F2F",
"F c #B92C2C",
"G c #A73030",
"H c #BB3232",
"J c #C42F2F",
"K c #C53131",
"L c #C83232",
"P c #C33A3A",
"I c #BC4545",
"U c #C24A4A",
"Y c #CD5151",
"T c #D25C5C",
"R c #D37777",
"E c #DD8C8C",
"W c #E58F8F",
"Q c #E39090",
"! c #F4B4B4",
"~ c #F4BEBE",
"^ c #FFD6D6",
"/ c None",
/* pixels */
"////$$$$$$$$$$//////$$$$$$%$$$//////////////////////////////////////////////////////////////////////////////////////////////////",
"////00wwqq0eqw//////eeeeeeeeee//////////////////////////////////////////////////////////////////////////////////////////////////",
"//$*6jbbbbbbbpw$//$wnBBBBBBBBne+////////////////////////////////////////////////////////////////////////////////////////////////",
"//*rhxvCSSSSSNuw//wuZKKKPLKKPGie////////////////////////////////////////////////////////////////////////////////////////////////",
"$06hlzxcCSSCSVMpw=pNAFJKJJJJKHGne$//////////////////////////////////////////////////////////////////////////////////////////////",
"$0hzzzzzcVCCCCFMttMSSSFPYTTYPLLBe$//////////////////////////////////////////////////////////////////////////////////////////////",
"$08zzzzzzcVSACCVMMVSACSUW!!WYJLBe$//////////////////////////////////////////////////////////////////////////////////////////////",
"$07gzzzzzxcVCCCCCCACACCIE~^!TJKBe$//////////////////////////////////////////////////////////////////////////////////////////////",
"$O2dgzzzzzzcCCCCCCCCCCCDIR~!TKKBe%$$$$$$$$$$$$$$%$$$$$$$$$$$$$$$$$$$$$$$$$$$$$$$$$$$$$$$$$$$$$$$$$$$$$$$$%%%##$$$#%%%#%%%%#%%#//",
"$O1sfgzzzzzzcCCCCCCCCCCCvIEQYKKBe#&***00000000*-000w00000000000000000weeqw0eeweqqwqee0eeqqwe0eqwe0weeq0w#@@$@@$@$@$%$@#X@$@@$@//",
"%O14sfgzzzlzzcVCCCCCCCCCCAIUPKKBe&;1127888j899j88899h8888j79h888988jbbmmbbbbbbbbbmmmmbbmbbbbmmmbbbbbbbmy&...X+.X..X...X..X.@+X$#",
"$O1434fglzzzzzcCCCCCCCCCCCCCFKKBeO1sssggzzzzzzzzzzzzzzzzzzzzzzzzzzzxcCCSSSSSSSCSSSSSSSCSSSSSSSSSSSSSCFSMroX  ....... .   ..  .$$",
"$*1444sdgzzzlzzcCCCCCCCACCCCAFKGe*144ssdgzzzzzzzzzzzzzzzzzzzzzzzzzzzzcCSSCSCCSCSSSCSSCSCCSCSASSSCSCSSSSCM6o   ........ X.. . .$#",
"$*;<343sfgzzzzzzcVCCCCCCCCCCSAZawO14433sfgzzzlzzzzgzzzzzzzgzzzzgzzzzzzcCCCCCCCCCCCCCACCCCCCCCCCCCCCCCCCSSM,o.  . . ..........X@#",
"%#&-<444sfgzzzlzzcVCCCCCCCCCSNuw#*144334sdgzzzzlzzzzzzzlzzzzzzzzlzzzzzzcCCCCACCCCCCCCCCCCCCCCCCSCCCCCCCCCCMyo   ..... .  .....@$",
"%$$&;<3434fgzzzzzzcCCCCCCCCCNi=$$*1444433sfgzzzzzzzzzzzzzzzzzzzzzzzzzzzzcVCCCCCCCACCCCCACCCCCCCACCACACCCCSSM,oX   ........ ...$%",
"%%%%&-<4444fgzzzzzzcCCCCCCCNu=%$$*14344434sdgzzzzzzzzzzzzzzzzzzzzzzlzzzzzcVCCCCCCCCCCCCACCCACCCCSACCCCCCCCCCN6o  ... ... ... .@#",
"%%%%$&;<343sfglzzzzzcCCCCCNp=$$%*-<34434433sfgzzzzlzgzzzzzlzgzzzgzzzzzzlzzcCCCCCCCCCCCCCCCCCCCCCCCCCCACCCCACSMroX  ..........X@#",
"//%%%%&-<444sdgzzlzzzcVSSNu=%$$&;<3433443434sdgzzzzzzzzzzlzzzzzzzzzzzzzzzzzcVCCCCCCCACCCACCCCACCCCCCCCCCCCCCCCM6o  .... ... ..@#",
"//%%%%$*;<3434fgzzzzzzvVNp=$%%&-<4434443444334fggzgzzzzzzzgzzzzzzzlzzgzzzzzzcCCCCCCCCCCCCCCCCCCCCCACCCCCACCCCCSM>oX  ... .....@$",
"////%%%%*-<444sdlzzzzzzkr=%$$&;<34443434433434sdgzzzzzzzzzzzzzzzzzzzzzzzzzzzzcCSCCCCCCCCCCCCCCCCCCACCCCACCCCCCSCN6o   . .. ..+@#",
"////%%%$$&;<343sfgzzzlh6=$$#=-<4444444444444443sfgzzzzzzzzzzzzzzzzzzzzzzzzzzzzcVCSSSSCCSSSSCCSCSSCSSSCSCSCCSSSSSSNroX... ... X@#",
"//////%%%%&-<4444fgzxh,=#$%*:534444s4444444s444ssdgzzgzzzzzzzzzzzzzzzzzzzzzzzzxcCSSSSSSSSSSSSSSSSSSSCSSSSSSSSSSSSCM6o  ... ...@$",
"//////%%%%$&;<333sffh6*$$$%o:<1111111111111111111<7j88h8h88j88j98h88h8j888h8hj8jbbmbbbmmbbmbbbbbbbbmmMbbbbmmbbbbNMMpO..X.X.+.X$%",
"////////%%$%*-<44445>*%$%%%#*OOO**0OOO*OOO**OOO*OO00000000000000-0000000000000000qqqqqeqqeqeqqeqeeqqeqeqqqeqqeqqeee0#@@$#@@$@@$#",
"////////%%%%$&;<33<;&$%%%%%%$$%%$$$$$%%$%$%$$%$$%%$$$$$$$$$$$%$$$$$$$$%$$$$$$$$$$$$%$$%$$$$$$$%$$$$$$$$$$$%$$$$$$$$$#$#%$#%%$##$",
"//////////%%$%&-<5-&%%%%%%%%%$%%%%$%%%%$%%%%%%%%%$$%$%%$$$%$%$$%$$$$$$%$$%%$$%$%$#%$$$%$$$%$$$%$%$$$$%%$$$%$%$%$$%$%$%%%%%%%%%//",
"//////////%%%%$*::=$%%%%%%%%%%%%%%%%%%%%%%%%%%%%%%%%%%%%%%%%%%%%%%%$%%%%%%%%%%%%%%%%%%%%%#%%%%%%%%#%%%%%%%%%%%%%%%%%%%%%%%%%%%//",
"////////////%%%#o*#$%%//////////////////////////////////////////////////////////////////////////////////////////////////////////",
"////////////%%%%%%%%%%//////////////////////////////////////////////////////////////////////////////////////////////////////////",
"//////////////%%$%%%////////////////////////////////////////////////////////////////////////////////////////////////////////////",
"//////////////%%%%%%////////////////////////////////////////////////////////////////////////////////////////////////////////////",
"////////////////%%//////////////////////////////////////////////////////////////////////////////////////////////////////////////",
"////////////////%%//////////////////////////////////////////////////////////////////////////////////////////////////////////////"
};
