/* XPM */
static char *ee89a3605c284bfcf384dd3e63c63e4eL6DPzlpWtjDWOZ0K[] = {
/* columns rows colors chars-per-pixel */
"64 64 31 1 ",
"  c #736644",
". c #786A48",
"X c #796B48",
"o c #81724E",
"O c #82734E",
"+ c #83734F",
"@ c #99774C",
"# c #847550",
"$ c #887852",
"% c #8A7A54",
"& c #8B7B54",
"* c #8F7F54",
"= c #8E7D57",
"- c #907E57",
"; c #907F58",
": c #9F844D",
"> c #8E815E",
", c #908054",
"< c #918156",
"1 c #94825A",
"2 c #95835B",
"3 c #98865D",
"4 c #9A875E",
"5 c #9B885F",
"6 c #9C895F",
"7 c #A49051",
"8 c #9E8B61",
"9 c #A59467",
"0 c #C8B77A",
"q c #D7C185",
"w c #D7CB8D",
/* pixels */
"0000000000000000000000000000000000000000000000000000000000000000",
"0qq0000000000000000q0q0qqwwwqqqqq000qqqqwwwwwwwwwqqqwwwwwwwqq000",
"0qqq0q00q000000000q0qqwwwwqqqq0q000000qqqwwqwwwwqq0qqwwwwwwq0q08",
"0qqqqqq0qq0q0000q0qqqwqqqqqq0q0000000000qqqqwwwqqq00qqwwwwwq0008",
"0qwqqqqqqqqq88800qqqqqwqqq0q0000qqq0000000qqqwqqq000qqwqwwwwq00@",
"0qqwwwwqwqq:&#580qqwqqqqq000000qq0qq00000000qqqwq000qqqqqwwqq008",
"0qwwwwwwwwq8=$880wqqqqq0000000qqqqqwqq0qqq000qqq000qqwqwwwwwwq08",
"0qqwwwwqqqq08880qqqq0q00000q0qqqqq0qwqqqqq0q00qqq000qqqqwwwqwq08",
"0qwwwwqqq0q008000q00000000qqqqqqq000qwqwqqqqqqqq0000qqqwwwqqwq0@",
"0qwwqqqqq0000000000000000qqqqwq08880qwwwwqwqqqq000000qqqwq0qqq0@",
"0qwqqqqq000000q000000000qqwwwwq52#280qwwwwwwwqqq000q0qqqqq0q0q08",
"0qqq0q0q000q0qqq0000q0qqqqqqqqq02#<80qqqqqqqqq000000qqwq000q0q08",
"00q00000000000q00000000q000q000q0880q00q0000q000000000q000000q08",
"00000000000000000000000000000000q00000000000000000000000000000,=",
">>>>>>**,*=,,=77777******,,,,*-,777777==,88888888888886,,,777777",
">>>>>>>>>>>>777777777777777777777777777;>>>>>>>>>>>>>>>>77777777",
"00000000000000000000000000000000000000000000q8800000000000000000",
"wwwq000000qwq0000q000000qqqwq0000q00000000008#$80qqwwwqw0wwwwwww",
"wqq00000000q000000000qqqqwwqqq000qq0q000000q8&=800qwqwqqwqwqwwww",
"q0000000000000000000qqqwwwwqwq000qwqqq0q000qq8800qqqqqqqqqqqqqqq",
"000000000880000q00qqqqwwwwwqwqq,0qwwqqqqqqqqq00000q00q00qq0q00q0",
"000000006=,800qqqqqwwwwqqwqqwqq,0qwwqwwwqwwqqq00000q00q0q00000q0",
"000000006+&80qqqqqwwwwqqwq00qq0700wqwqwqqqqqwqqq0q00000000000q00",
"000qq0q00660qqqqwqqqqqqqq000q0070wqqqqqq888qqqqqqqqq00q000qq000q",
"qqqwqqwqq000qqqqqwqwqwwq0q0qwq0,0qqq00q:3&8:qwwwqwqqqqqqqqqqqqqq",
"wwwwwwwwqqqqqqqqwwwqqqq0000qq0070qq0000q& #80qwwwwwqwqwqwwwqqqww",
"wwwwwwwwwwwwqqqqqwqqq000q000q00<0q00q0083#<800qqqwwwwwwwwqwwwwqw",
"qqqqqqqqqqqqqqqqqq00000qq000q0q70q0000008880000q0qqqqqqqqqqqqqqq",
"000q00000qq000q000000000000000q700000qq0000000q00000000000000000",
"00000000000000000000000000000qq700000000000000000000000000000000",
"9999999***588888888888888877777799,9,===*>>>>***8888888,,,999999",
">>>>>>>>>>>68888888888888888999999999999>>>>>>>>>>>>>888999999>>",
"0000000000000000000008800000000000000000000000000000000000000000",
"0qqqqqqwqwqwwqqqqq008#o80000qwwqqwwqqqqqqqqqqqqqqwwwqwwwwwq00000",
"0qwwwwwwwwqqqq0000008==80000qwqwwqwwqqqqqqqqqqqqwwwwwwwqwq0q0008",
"0qwwwwwww000000000000880000qwqwwqwwqqqqqqqqq00000wwwqwq0q0q00008",
"0qqwwwqqq000000000000000qqqqqqqwwqq0q0qq0q0008800wqq0q000qwq000q",
"0qqwqqq000000qqqq000qqqqqqqqqqqqq0q000q000008==80q00q000q0qwq00q",
"0qqq0000000qqqwqwqqqqwqqqqqqq00q00000000000q5X,80qq000q0000q0008",
"0q000000qqqqqqqwqwqwqwwqqqqq0000000000000q00q880qqwq0q00q0000008",
"0qqqqqqqqqqqqqqqwwwwwwqqqq00000000000000qqq0q000qqqwqq0qq000000,",
"0qwqqqqqqqqqqqqqqqwwqqqq000000000q00000000qqqqqqqwwwwwqqq0q00008",
"0qwwqqqqqqqqqqqqqwqqq00000000000qwqq00000000qqqwwwwqwqqqqqqq0008",
"0qwwqqqqqqqqqqqqqq000000000000qqqqwwqq000000000qqqqqqq0qq0q000q8",
"00qqq000qqq000000q0000000000000000qq0000000000000qq0000000q00008",
"0000000000000000000000000000000000000000000000000000000000000qqq",
"88877>>77888777877>>>8888877779999999999999,,,1,,188888888777799",
"8888>>>>8888>>>>>>>>>>>;>>8899999999558899999999888>>>>>>8889999",
"000000000000000000000000000000000000q880000000000000000000000000",
"qqqqqqqqqqqqqqqqqqqq0000qqqqq0000q0q0,&50000000qqqq000000qqqqqqq",
"qqwqwwqq00qqwwqwwqqq0q00qwqwq0000q008=O500000000qwq0q0000qq000qw",
"qwwwwqq00000qwqwwqwq0q0qqwwq00070q00q888q000000q0qqq0000qwwq000q",
"qqqqq00008800qwqqwwwqwqwwqwq000,0q00qqqqq0q0q0000000q0000qq0000q",
"wqq000008<=80qwwwwwwqwwwqwq000070qq0qqwqqqqqqq0000q00000000000qq",
"qqq0000q8..800qqqwqwwwqwqq0000070qwqqqqwqwwqqq0q0000000000000qwq",
"qwqq000q8$$80000qqqqqqqq000000070qwwqwqqqqqqqqqq0q0000000000qqqw",
"qwwwq000q88000000000qq000000000q0wwqwqwqq0qqqqwq0qq0000000qqwwww",
"qqwwwq000q000000000000000000000q0qwwqqwwq0q0qwqqqwq00000qqwwwwww",
"qwqqq0000000000000000000000000qq0wwqwwwqq000qqwqwqq0q00qwwwwwwww",
"qqq000000000000000000000000000070qqqqqqq00000qqqqqqqqqqqqqqqqqqq",
"000000000000000000000000000000q700000000000000000000000000000000",
"00000000000000000000000000000qq700000000000000000000000000000000",
"99999977777777777778888777777777799999999997778888>>888877777999",
"9>>>>>>>>>>>>>7788888888777788>>>>>>>>9999998888>>>>888888889999"
};
