/* XPM */
static char *_7fffdd9951a450ec88fe294ce81d83ex56TbTsyN9mpreqF[] = {
/* columns rows colors chars-per-pixel */
"64 64 155 2 ",
"   c black",
".  c #010101",
"X  c #020C03",
"o  c #031305",
"O  c #041A07",
"+  c #051C09",
"@  c #05250A",
"#  c #052A09",
"$  c #07340D",
"%  c #08350F",
"&  c #073A0D",
"*  c #083C0F",
"=  c #083710",
"-  c #093B11",
";  c #0A4311",
":  c #0B4C13",
">  c #0C5516",
",  c #0D5A17",
"<  c #0D5E18",
"1  c #16541F",
"2  c #0E6317",
"3  c #0E6319",
"4  c #0F691A",
"5  c #0F6B1A",
"6  c #0F6A1B",
"7  c #0F6B1B",
"8  c #0F6D1A",
"9  c #0F6C1B",
"0  c #0F6D1B",
"q  c #0F6D1C",
"w  c #0F6E1C",
"e  c #0F6B1A",
"r  c #106C1C",
"t  c #106D1C",
"y  c #106E1C",
"u  c #106F1C",
"i  c #106F1D",
"p  c #106E1C",
"a  c #0F701B",
"s  c #0F721B",
"d  c #0F751B",
"f  c #0F741C",
"g  c #0F721B",
"h  c #10731B",
"j  c #10741B",
"k  c #10751B",
"l  c #10701C",
"z  c #10711C",
"x  c #10711D",
"c  c #10721C",
"v  c #10731C",
"b  c #10721D",
"n  c #10731D",
"m  c #10741C",
"M  c #10751C",
"N  c #10741D",
"B  c #10751D",
"V  c #11751D",
"C  c #10761C",
"Z  c #10771C",
"A  c #10761D",
"S  c #10771D",
"D  c #10751E",
"F  c #11751E",
"G  c #11761E",
"H  c #11771E",
"J  c #10751D",
"K  c #10781C",
"L  c #10791C",
"P  c #10781D",
"I  c #10791D",
"U  c #11791D",
"Y  c #107A1D",
"T  c #107B1D",
"R  c #117B1D",
"E  c #10781E",
"W  c #11781E",
"Q  c #11791E",
"!  c #11781F",
"~  c #117B1E",
"^  c #117A1F",
"/  c #117B1F",
"(  c #107C1D",
")  c #107D1D",
"_  c #107E1D",
"`  c #117C1E",
"'  c #117D1E",
"]  c #117C1F",
"[  c #117D1F",
"{  c #117E1E",
"}  c #107F1E",
"|  c #117F1E",
" . c #117F1F",
".. c #127E1F",
"X. c #117D1E",
"o. c #117C20",
"O. c #117D20",
"+. c #117E20",
"@. c #117F20",
"#. c #127E20",
"$. c #127E20",
"%. c #11801E",
"&. c #10811E",
"*. c #11811E",
"=. c #11801F",
"-. c #11811F",
";. c #12801F",
":. c #12811F",
">. c #10821E",
",. c #11821E",
"<. c #11821F",
"1. c #11831F",
"2. c #12821F",
"3. c #12831F",
"4. c #11841F",
"5. c #12841F",
"6. c #12811F",
"7. c #128020",
"8. c #128021",
"9. c #128121",
"0. c #138121",
"q. c #128220",
"w. c #128320",
"e. c #128221",
"r. c #138221",
"t. c #128321",
"y. c #138321",
"u. c #128420",
"i. c #128520",
"p. c #128421",
"a. c #128521",
"s. c #128620",
"d. c #128621",
"f. c #138621",
"g. c #128721",
"h. c #138721",
"j. c #138522",
"k. c #128421",
"l. c #128820",
"z. c #128920",
"x. c #138821",
"c. c #138921",
"v. c #138A21",
"b. c #138B21",
"n. c #138822",
"m. c #138922",
"M. c #138A22",
"N. c #148823",
"B. c #148A23",
"V. c #148B23",
"C. c #148C23",
"Z. c #148C24",
"A. c #148D24",
"S. c #158E25",
"D. c #148C23",
/* pixels */
"        ; ; > 1 s =.=.S.S.S.S.x.x.S.D x.=.=.S.S.S.i i 2 < > ; - - ; > , i D +.8.9.+.8.8.8.o.D s.h.s.| | | | V F < 3 , >         ",
"        ; ; > > s =.=.=.5.S.S.x.x.C.S.x.=.=.S.S.S.o.o.2 2 > ; ; ; ; > > D D o.8.9.+.8.8.9.s.o.h.h.s.| | 2.| V o.3 < , 1         ",
"        ; ; > > | | =.=.2.2.x.C.S.S.k L 5.5.S.s.r o.4 2 3 , - - ; ; : > o.x o.+.9.9.8.s.B.s.s.h.h.h.| | | | o.V 3 3 , ,         ",
"        ; ; > > f | | | 2.2.C.S.C.h h h =.=.S.x.+.2 4 < : ; - - ; ; : > i o.+.+.+.9.N.h.S.S.s.h.h.s.| =.| | F V 3 < , ,         ",
"        ; ; > > | _ | | =.=.x.C.h h h h 5.=.S./ 3 3 2 $ X . = ; ; ; ; < 6 x o.o.+.+.h.s.S.S.S.x.h.h.h.9.=.=.x V 3 < , ,         ",
"        ; ; > > 5 | | | =.5.s.5.L h h k 5.s.S.0.3 3 < - . . . $ ; ; ; ; 2 o.r i 9.9.s.N.S.S.S.S.x.h.s.s.| D D 3 < , , ,         ",
"        ; ; > > 2 w T | 5.5.=.5.K s k D s.x.S.+.o.6 # . . . . . - - ; ; > 3 x D +.9.s.x.S.S.S.S.S.x.x.+.| x 3 3 < , , , . . .   ",
"        # ; ; > i i 9 K >.=.=.5.| k D f A.S.S.S.i 6 @ . @ o X o @ - ; ; > > x D +.9.9.s.x.B.x.S.S.S.x.s.x 2 > < , , , . . . .   ",
"  . . . # @ ; ; 2 r r r D | =.=.D k k / C.S.S.S.o.o.: ; - = o - - - - : : > f D 9.9.x.s.h.h.h.B.S.S.5.N.< , ; - o . . .         ",
"  . . . . # # @ > r r r | | =.=.k L k =.5.C.S.S.i i 4 < - - - - - - ; ; > : < D +.9.s.B.h.h.h.h.5.5.N.5.4 , > - - . . .         ",
"        . . . O ; : 6 r K | =.=.L k k =.x.x.S.S.o.r 4 3 > - - - - - ; ; ; ; , > D 9.9.s.h.h.h.h.N.5.N.| F < : , % - - . .       ",
"        . . . . ; ; 4 i ) | | | L D k L s.s.h.9.x i 2 4 > > - = - ; - ; ; ; > < 4 9.s.N.h.h.h.h.5.N.N...F 3 < , , , - - . .     ",
"  . . . . # # O ; ; 2 h =.| | K D L k | 2.h.h.h.x D 3 3 , > - - - - # o ; ; > > o.+.s.h.h.h.s.h.S.S.5.5.5.V F 3 < , , -   .     ",
"      . # @ # # * : r h | | _ =.k k k D D | h.h.o.x 3 3 3 3 - - $ . X . & : > w +.+.9.s.h.h.S.S.5.5.5.N.N.| V V 2 2 1 ,   . .   ",
"    . . # # # # : > 4 k L _ =._ | k L D k / 0.h.o.o.D 3 2 2 > = . . . - ; : > < +.9.9.=.h.h.S.S.S.5.S.5.h.h.V V 3 3 , ,         ",
"    .   ; ; # * < 2 k k =.=._ =.| | k k k k h.| F V D x 2 , , > . o - = > > > , +.9.| =.s.h.S.S.S.S.S.5.N.| V V 3 3 , ,         ",
"  . .   ; ; ; > > h D D _ | | | | | k k k k =.5.| D D D D < < > # O % - > > > 2 | | 2.=.5.S.C.S.S.S.S.5.h.h.D k 2 2 , ,         ",
"        ; ; > > i h k k k _ _ _ | | / k D _ x.s.=.=.V V x u 4 < # # - - > > 3 h 2.2.2.=.5.5.S.S.S.S.S.5.h.h.=.k 3 2 , ,         ",
"        ; ; > > r u h D k L / =.| / L k k | s.s.5.| | D V V r : % - - - > > 3 r D 2.| | 5.D.S.S.S.S.S.5.h.| k u 3 3 , ,         ",
"        ; ; > 2 r u i x D k L =.| | / k k / h.x.h.h.| | V V 2 3 - - - - > < r 3 D 2.| | =.5.C.S.C.5.S.5.h.h.k h < 3 , 1         ",
"        ; ; > > 2 i r r k k | | +.9./ D k k s.x.h.h.+.0.r o.< 3 - - - - , 2 3 k 2.2._ Q | | 5.5.5.5.x.x.x.5.h x 4 3 , ,         ",
"        ; ; > > r r r r D k | | 9.+.| | D k =.s.h.h.#.+.o.o.3 3 - - ; ; > 2 r 3 / 2.| | / | x.C.5.S.x.x.2.Q r 3 3 2 , >   . .   ",
"    .   ; ; > , < r r u k L _ | +.9.9.9.| | =.=.0.h.o.o.r o.r < ; ; ; ; 3 r r D 2.| | Q | | 5.x.5.5.N.x.k h u 3 < 3 > > . .     ",
"    .   ; ; ; : , r r i k L _ | +.9.9.+.| | | | h.#.o.o.o.i 4 < ; ; ; ; : 2 u V | | 2.2.| | =.5.S.5.5.5.r < 3 < , > > . . .     ",
"    . . ; ; ; : > > 2 x h / | | =.| D k / | | | h.s.h.+.i i < 3 ; ; ; ; > > 3 F =.=.2.=.| | / | s.s.N.s.2 > ; # . . . .         ",
"      . . ; ; # ; > : 6 u k L =.=.| / k / | | | 0.9.S.0.o.i 2 3 > ; ; ; > > < r x.x.5.=./ | | | x.B.s.s > > ; - X . . .         ",
"        . . . O ; ; ; 2 r u _ _ %.=._ k D V | | +.s.S.0.o.o.3 < > ; ; ; > 2 2 Q h.5.h.=.| | | | x.D.s.f < > > : - - - . . . .   ",
"        . . . . ; ; ; > r u k _ %.=.D k V V Q | 9.9.x.0.D i 3 3 > > : ; ; * , r h.h.h.h./ L L =.s.s.N.N.3 3 , > - - - - . . .   ",
"  . . . . # # ; ; > > x r r k / %.%.k k D D V | h.N.B.9.+.6 3 , > > ; * $ @ > u | h.h.h.T _ / | s.s.s.| k 2 2 2 3 > > -         ",
"  . . . . # ; ; > 3 x D r r u / %.2./ k D k D Q N.S.S.S.i 2 3 2 > > % # @ $ > > / h.h.2.T K K k 9.s.s.| k 5 2 2 3 3 > >         ",
"    . . # ; ; : > 2 o.D D D x Q 2.| 2.| D V k 2.S.S.S.S.2 3 3 , * * o o @ $ > > h.h.s.=.T f / | =.s.9.5.k h r 3 3 < , >         ",
"    .   ; ; ; ; +./ D D D D D D 2.2.2.2.Q D D k 9.S.+.N.i 3 , , * # . X ; ; > > x.s.x.s.K / L / =.=.=.| k k 2 3 3 3 , ,         ",
"    .   ; ; ; < | | | D D k k / =.=.s.=.D D / k B.B.o.D 2 2 > , ; # # * ; > > z C.5.5.5._ L D L 2.2.2.| k L k 5 2 2 , ,         ",
"        ; ; > > | | | d / k k D 5.=.s.s.D k d k 9./ +.f 2 2 > : # # % * > , 3 2 S.5.C.5./ k k / | 2.| 2.D k k k 2 2 , ,         ",
"        ; ; > < | | | | D k D L =.| s.=.k k L k | =.f 6 2 , > > $ % ; ; , 3 r u _ C.4.A.D V D D | | 2.2.=.L k s 4 2 , ,         ",
"        ; ; > > 9 | | | / k k d | | | =.L D k d / | 3 3 < , ; ; * * * ; 2 r 3 Q 4.C.S.4.V V D V Q 2.2.| =.=.k k 4 2 , ,         ",
"        ; ; > > | | | L k k D K | | | =.k k D 5.| / 2 2 o o @ & * ; : > 3 3 u R 4.A.b.D.L D D h 2.2.5.5.=.=.L d 2 2 , ,         ",
"        ; ; > > | | | | L L k / | | | 9.| / x.D.=.9 2 > # . . % ; * > , 3 r h h 5.S.b._ k k k | 2.2.A.5.| L D k 2 < , >         ",
"        ; ; > > | | | | k D k k | | +.+.=.=.C.C.3 2 , > : o . . * ; > 3 4 8 h h C.5./ D k D k / 2.0.C.C.k L k D u 2 > ,         ",
"        ; ; > > | | | | k L D L | | | =.=.=.x.B.3 3 < > ; = + . ; : 2 4 8 h h h C.| D D D L k / | h.C.5.L k k 2 < , , ,         ",
".       ; ; > 5 | | | _ _ d k D | | =.2.2.2.5.C.g 2 > > : & o o * ; r 3 h z V R 5.C.5.L k k D k | B.B.S.k D 3 2 < , , > . . . . ",
". .     ; ; > 5 | | | | k D k k | | =.=.2.5.S.5.2 2 , > - = . . % ; 3 r 8 z 2.2.C.C.V D D k L k s.S.S.S.k 2 3 > : , , . . . . . ",
"  . . . ; ; > > | | | | / k / d | | | =.5.5.b.b.2 2 2 > > % @ - - : , 3 u z | #.C.h.V V D k | h.S.S.S.S.2 < , > o . . .         ",
"      . ; ; > > T | | T K d d / | | | | 5.5.5.5.2 2 2 2 > ; = - = - , 3 4 F Q | C.C.Q V h / | B.S.S.S.S.3 2 > > @ . . .         ",
"        ; ; > 2 s T | f / h k k | | 9.+.C.x.x.s.d 2 2 2 > : - - - - ; ; 2 3 V | x.S.V o.x V D 2.S.B.S.N.| 2 > , ; - - . .       ",
"        # ; > > > s s s s h k / | | +.s.C.S.x.5.L d 2 2 > , ; - - - ; ; 3 r z 2.S.S.V V V Q | | | S.S.+.L 4 < > = - - - . .     ",
"  . . . # # > > > > > 9 s h k k | | +.x.S.S.x.s.T d D 2 < > - - - = - ; 4 4 u z S.| D D o.F Q | | | s.9.s 8 , < : = - -   . .   ",
"  . . . . # # @ > > 2 4 s h h k | | s.s.S.S.x.h./ D D x 2 2 = - - - - : 3 4 3 | 5.C.#.D F F | | | | =.+.L 4 2 4 > 1 - -         ",
"        . . . . % # > > e d s d | | h.B.S.S.S.h.D k k k < 3 # # - - - - < < 4 4 N.N.V F F o.V Q | | | | k d 5 2 < > > - .       ",
"        . . . . # & : , e d d d / #.| 0.s.x.B.S.| h h h 3 > = # $ - = - ; < 2 4 o.#.o.F F V Q F | | | | k h 9 4 2 2 > > . .     ",
"      . . @ # # $ > : 4 s d s ) #.#.0.0.h.h.S.S.h h h r 2 2 > % X @ = - - > 2 w D #.V o.F F F F | | | | L D h 4 2 3 , >   . .   ",
"  . . . # # # # * 2 4 4 g d ) ) +.#.| #.9.x.h.| h h h s 2 2 , > . . - - ; : 6 2 #.0.F F F F F F | | | | | / / D 3 < , ,     .   ",
"  .     # # # $ > 4 4 8 g h _ | #.| #.| h.h.h.h.h h h 9 2 2 > : # # = - > > 2 5 0.0.+.o.F F F F / | 4.b.A.S.S.9.3 < , ,         ",
"  .     ; ; # # 4 4 g 8 h h | | | =.2.2.=.2.h.h.h h x 2 2 > , - # # @ $ < 2 6 9 +.+.0.D F o.F F | | b.S.b.b.9.x 3 3 , ,         ",
"        ; ; ; > 4 4 u h D #.+./ k k / 2.2.2.h.h.k d 2 2 , > ; - = % # # , < 9 s +.0.9.o.D V V V =.5.A.4.b.=./ D 3 3 , ,         ",
"        ; ; > , 4 4 h h k #.#.#./ k k 2.| 2.h.| k 9 2 > > > + - = = # # < 2 5 i 9.#.#.+.o.V D V x.D.4.A.5.>.D d 3 < , ,         ",
"        ; ; > , 4 8 k h +.+.+.#.k L k | 2.| h.h.k 4 , , > 1 O . $ = = : : 9 s T +.8.9.o.x x D V h.h.x.h.Q F F F 3 3 , ,         ",
"        ; ; > > g k / +.h.9.0.0.D k D L 2.2.2.2.h g < > > X . X - - - ; e s 8.p.N.s.9.9.x x D D 2.h.h.| V F F i 3 < , ,         ",
"        ; ; > > d / | 0.S.S.x.9.D k D Q 2.h.5.| h g > $ . . o = - - > 3 o.f 8.8.s.B.S.D D D x D h.h.0.2.V o.o.F 3 < 1 ,         ",
"        ; ; > > 4 _ | | S.S.C.9.V D k Q 2.h.x.2.g 8 , , O o = - - - < < x f 8.8.9.S.S.S.x x D D h.h.#.| F F V V 6 3 < ,         ",
"        ; ; > < +.9.9.S.S.S.h.=.V V o.F | 2.2.Q h u > : # - - - - * < D o.9.| =.0.9.S.S.x x / D 2.2.2.| | x D x w 2 , ,         ",
"        ; ; > > o.9.x.S.S.h.h.x.Q F F F 2.2.2.D h i , , ; - - - - ; < D x +.2.2.+.9.+.+./ x k / / h.| | | | D V 2 2 , >         ",
"        ; ; > > +.+.S.S.S.h.h.h.h.F F F Q 2.2.h.V i i < > ; - - ; ; : < F 2.| #.+.9.9.9./ f D / 5.h.| | | | o.r 2 3 > >         ",
"        ; ; > > 9.0.S.S.S.S.h.h.h.F F F 2.2.2.h.Q i u , > ; - - - ; > , F D 2.2.9.9.+.9.f / D / h.h.| | / / o.o.3 3 > 1         "
};
