/* XPM */
static char *_eb25c52fc964b7bc7ecdfc2053f8b46cOjul5eRZpcgAzxh[] = {
/* columns rows colors chars-per-pixel */
"64 64 12 1 ",
"  c #4C3D26",
". c #604C2F",
"X c #695433",
"o c #685437",
"O c #735E39",
"+ c #715C3B",
"@ c #7C623E",
"# c #7B6641",
"$ c #99774C",
"% c #9F844D",
"& c #B4905A",
"* c #BC9862",
/* pixels */
"%%%%%%%%%%%%%%%%%%%%%%%%%%%%%%%%%%%%%%%%%%%%%%%%%%%%%%%%%%%%%%%%",
"%&&%%%%%%%%%%%%%%%%&%&%&&***&&&&&%%%&&&&*********&&&*******&&%%%",
"%&&&%&%%&%%%%%%%%%&%&&****&&&&%&%%%%%%&&&**&****&&%&&******&%&%@",
"%&&&&&&%&&%&%%%%&%&&&*&&&&&&%&%%%%%%%&%%&&&&***&&&%%&&*****&%%%@",
"%&*&&&&&&&&&$##%%&&&&&*&&&%&%%%%&&&%%%%%%%&&&*&&&%%%&&*&****&%%$",
"%&&****&*&&%o+##%&&*&&&&&%%%%%%&&%&&%%%%&%%%&&&*&%%%&&&&&**&&%%@",
"%&********&$o#+#%*&&&&&%%%%%%%&&&&&*&&%&%&%%%&&&%%%&&*&******&%@",
"%&&****&&&&%$oo%&&&&%&%%%%%&%&&&&&%&*&&&&&%&%%&&&%%%&&&&***&*&%@",
"%&****&&&%&%%$%%%&%%%%%%%%&&&&&&&%%%&*&*&&&&&&&&%%%%&&&***&&*&%$",
"%&**&&&&&%%%%%%%%%%%%%%%%&&&&*&%$##%&****&*&&&&%%%%%%&&&*&%&&&%$",
"%&*&&&&&%%%%%%&%%%%%%%%%&&****&$oo##%&*******&&&%%%&%&&&&&%&%&%@",
"%&&&%&%&%%%&%&&&%%%%&%&&&&&&&&&%ooo#%&&&&&&&&&%%%%%%&&*&%%%&%&%@",
"%%&%%%%%%%%%%%&%%%%%%%%&%%%&%%%&%$#%&%%&%%%%&%%%%%%%%%&%%%%%%&%@",
"%%%%%%%%%%%%%%%%%%%%%%%%%%%%%%%%&%%%%%%%%%%%%%%%%%%%%%%%%%%%%%$$",
"XXXXXX@@@@@@@@++OOO@@@@@@@@@@@@@OOOOOO@@@XXXXXXXXXXXXXX@@@OOOOOO",
"XXXXXXXXXXXXOOOOOOOOOOOOOOOOOOOOOOOOOOO................XOOOOOOOO",
"%%%%%%%%%%%%%%%%%%%%%%%%%%%%%%%%%%%%%%%%%%%%$##%%%%%%%%%%%%%%%%%",
"***&%%%%%%&*&%%%%&%%%%%%&&&*&%%%%&%%%%%%%%%%#+##%&&***&*&*******",
"*&&%%%%%%%%&%%%%%%%%%&&&&**&&&%%%&&%&%%%%%%$o++#%%&*&*&&*&*&****",
"&%%%%%%%%%%%%%%%%%%%&&&****&*&%%%&*&&&%&%%%&$o#%%&&&&&&&&&&&&&&&",
"%%%%%%%%$##%%%%&%%&&&&*****&*&&$%&**&&&&&&&&&%%%%%&%%&%%&&%&%%&%",
"%%%%%%%$o+##%%&&&&&****&&*&&*&&$%&**&***&**&&&%%%%%&%%&%&%%%%%&%",
"%%%%%%%%oo+#%&&&&&****&&*&%%&&%@%%*&*&*&&&&&*&&&%&%%%%%%%%%%%&%%",
"%%%&&%&%$@o%&&&&*&&&&&&&&%%%&%%@%*&&&&&&%%%&&&&&&&&&%%&%%%&&%%%&",
"&&&*&&*&&%%%&&&&&*&*&**&%&%&*&%$%&&&%%&%@##%&***&*&&&&&&&&&&&&&&",
"********&&&&&&&&***&&&&%%%%&&%%@%&&%%%%$o+##%&*****&*&*&***&&&**",
"************&&&&&*&&&%%%&%%%&%%$%&%%&%%@oo+#%%&&&********&****&*",
"&&&&&&&&&&&&&&&&&&%%%%%&&%%%&%&@%&%%%%%%@oo%%%%&%&&&&&&&&&&&&&&&",
"%%%&%%%%%&&%%%&%%%%%%%%%%%%%%%$@%%%%%&&%%%%%%%&%%%%%%%%%%%%%%%%%",
"%%%%%%%%%%%%%%%%%%%%%%%%%%%%%$$@%%%%%%%%%%%%%%%%%%%%%%%%%%%%%%%%",
"OOOOOOO@@@XXXXXXXXXXXXXXXX@@@@@@OO@O@@@@@XXXX@@@XXXXXXX@@@OOOOOO",
"...........XXXXXXXXXXXXXXXXXOOOOOOOOOOOOXXXXXXXX.....XXXOOOOOO..",
"%%%%%%%%%%%%%%%%%%%%%##%%%%%%%%%%%%%%%%%%%%%%%%%%%%%%%%%%%%%%%%%",
"%&&&&&&*&*&**&&&&&%$####%%%%&**&&**&&&&&&&&&&&&&&***&*****&%%%%%",
"%&********&&&&%%%%$@.++#%%%%&*&**&**&&&&&&&&&&&&*******&*&%&%%%@",
"%&*******&%%%%%%%%%$@oO%%%%&*&**&**&&&&&&&&&%%%%&***&*&%&%&%%%%@",
"%&&***&&&%%%%%%%%%%%%%%%&&&&&&&**&&%&%&&%&%%%##%&*&&%&%%%&*&%%%$",
"%&&*&&&%%%%%%&&&&%%%&&&&&&&&&&&&&%&%%%&%%%%%o+##%&%%&%%%&%&*&%%$",
"%&&&%%%%%%%&&&*&*&&&&*&&&&&&&%%&%%%%%%%%%%%$o+##%&&%%%&%%%%&%%%@",
"%&%%%%%%&&&&&&&*&*&*&**&&&&&%%%%%%%%%%%%%&%%$o#%&&*&%&%%&%%%%%%@",
"%&&&&&&&&&&&&&&&******&&&&%%%%%%%%%%%%%%&&&%&%%%&&&*&&%&&%%%%%%$",
"%&*&&&&&&&&&&&&&&&**&&&&%%%%%%%%%&%%%%%%%%&&&&&&&*****&&&%&%%%%@",
"%&**&&&&&&&&&&&&&*&&&%%%%%%%%%%%&*&&%%%%%%%%&&&****&*&&&&&&&%%%@",
"%&**&&&&&&&&&&&&&&%%%%%%%%%%%%&&&&**&&%%%%%%%%%&&&&&&&%&&%&%%%$@",
"%%&&&%%%&&&%%%%%%&%%%%%%%%%%%%%%%%&&%%%%%%%%%%%%%&&%%%%%%%&%%%%@",
"%%%%%%%%%%%%%%%%%%%%%%%%%%%%%%%%%%%%%%%%%%%%%%%%%%%%%%%%%%%%%$$$",
"OOO@@XX@@OOO@@@O@X...XXXXX@@@@OOOOOOOOOOOOO@@@@@@@XXXXXXXX@@@@OO",
"OOOOXXXXOOOO..............XXOOOOOOOO....OOOOOOOOXXX......XXXOOOO",
"%%%%%%%%%%%%%%%%%%%%%%%%%%%%%%%%%%%%$##%%%%%%%%%%%%%%%%%%%%%%%%%",
"&&&&&&&&&&&&&&&&&&&&%%%%&&&&&%%%%&%$@+##%%%%%%%&&&&%%%%%%&&&&&&&",
"&&*&**&&%%&&**&**&&&%&%%&*&*&%%%%&%@oo##%%%%%%%%&*&%&%%%%&&%%%&*",
"&****&&%%%%%&*&**&*&%&%&&**&%%%@%&%%$oo%&%%%%%%&%&&&%%%%&**&%%%&",
"&&&&&%%%%o#%%&*&&***&*&**&*&%%%$%&%%&&&&&%&%&%%%%%%%&%%%%&&%%%%&",
"*&&%%%%%o+##%&******&***&*&%%%%@%&&%&&*&&&&&&&%%%%&%%%%%%%%%%%&&",
"&&&%%%%$oo+#%%&&&*&***&*&&%%%%%@%&*&&&&*&**&&&%&%%%%%%%%%%%%%&*&",
"&*&&%%%$@oo@%%%%&&&&&&&&%%%%%%%@%&**&*&&&&&&&&&&%&%%%%%%%%%%&&&*",
"&***&%%%$@$%%%%%%%%%&&%%%%%%%%%$%**&*&*&&%&&&&*&%&&%%%%%%%&&****",
"&&***&%%%$%%%%%%%%%%%%%%%%%%%%%$%&**&&**&%&%&*&&&*&%%%%%&&******",
"&*&&&%%%%%%%%%%%%%%%%%%%%%%%%%$$%**&***&&%%%&&*&*&&%&%%&********",
"&&&%%%%%%%%%%%%%%%%%%%%%%%%%%%%@%&&&&&&&%%%%%&&&&&&&&&&&&&&&&&&&",
"%%%%%%%%%%%%%%%%%%%%%%%%%%%%%%$@%%%%%%%%%%%%%%%%%%%%%%%%%%%%%%%%",
"%%%%%%%%%%%%%%%%%%%%%%%%%%%%%$$@%%%%%%%%%%%%%%%%%%%%%%%%%%%%%%%%",
"OOOOOO@@@@@@@@@@@@@XXXX@@@@@@@@@@OOOOOOOOOO@@@XXXX  XXXX@@@@@OOO",
"O.............@@XXXXXXXX@@@@XX........OOOOOOXXXX    XXXXXXXXOOOO"
};
