/* XPM */
static char *ec1188c4ab6547faa038726f0be11dc6BymzHZPAjMpzfe0P[] = {
/* columns rows colors chars-per-pixel */
"64 64 44 1 ",
"  c #5F21B6",
". c #5E21B8",
"X c #6121B6",
"o c #6422BA",
"O c #6923BD",
"+ c #6728BA",
"@ c #6B2ABE",
"# c #702FBF",
"$ c #6B30BC",
"% c #7132BD",
"& c #6C24C1",
"* c #6D29C0",
"= c #7127C4",
"- c #742CC5",
"; c #782EC7",
": c #762CC8",
"> c #7A2EC9",
", c #7532C4",
"< c #7934C7",
"1 c #7539C1",
"2 c #7E3CC6",
"3 c #7C33CA",
"4 c #7E39C9",
"5 c #8236CD",
"6 c #843BCD",
"7 c #893DCF",
"8 c #8739D0",
"9 c #893DD0",
"0 c #8542CD",
"q c #8A42CE",
"w c #8B4ACF",
"e c #8D42D1",
"r c #8F4AD1",
"t c #9144D3",
"y c #954AD4",
"u c #994DD6",
"i c #9651D4",
"p c #9B52D7",
"a c #9D5CD7",
"s c #9E54DA",
"d c #9F58D8",
"f c #A056D8",
"g c #A15AD8",
"h c #B06DDE",
/* pixels */
"2%XooO&&5:o*:-eeiti6w#75##OXo&O&Oo.oo&5--e63:-O&OOX.o&&&==>5=-55",
"21XoO&&O6<o-44etdty7u=55O+Xoo&o&&O.Xoo==-::4&>O&oOoo&&&O&=586655",
"w2@XO&=O66&:eetyue6<q@<%O XooOO&&ooX&o-3:=->O>o&oooo&OO@=-885855",
"tw2@O&;=64&3rre7wy25uO5$X XXO&&=&O&.OX=5<&>&o5XOoXX&===5=>888855",
"tq6%#=-=e4:yyye325O<eo=oXXOXXO&<4&&o&O=54=3Oou-oOXooO#=7>4e6s988",
"teq5;=;>96qeyiy5;;;-5oOoXO@X+3=6<-&&=&<46&4-oy@*OXoX=#@7666ey998",
"ete6<3<<4eyeeye>;@@-OO.oO#OO@%<6:-*&>&ey0@e6,p5O@XOXOOO76<tip988",
"ee78656--yd88tt:==&&OOooO-O#3375<-&:3:rpp-pe3t>3#XXXOOO5:40dhtty",
"e988389e<ps886e-==&&&&&oO=&3>3e9>&o:>-6di5yi594<oX .oo&4:42ihe4e",
"988988y93ise86e-&&&&&&oOO==::3te5&&>>OX0y6yq855>&+.&..o4:,2wap49",
"89898eyipiie3>8==&&&&o&&o===>>te-Xo>-oX04907555>**o&..o:*O<0we49",
"9e9e9tysrsyt8>8=&&=&&&&&<5==:369&oo=:oX6=6665>5>&&&&.&o-O&-,4434",
"03qeeituiyy98:-==&==&&&=3:===>5<&Xo&=oX:O4:,4>-&&**&&o&-&&&*,*<<",
"6-eqeuityee35--==&&==&&=:=-&&-;=&oo&& XOo--->>=O&:&&o&o*&ooo&&,-",
"8=eq3sti949:>&======&&&&::=o--:&ooX&&  &OO=:>:=&&&&O&&&&.&&.o*,-",
"-&e4>344443-:=&&=&==&==&==-O&-=ooo&oo  -XXo:--O&&o&&&o&&oo&.oo&,",
"*&56*3<<<,,3-&&==&===&&===:O&&Oo-ooOo XoX.&*==&&&&OO&&&&.&&..o&&",
"oo-:O:-O*o&*-*====::==&=&==OOOoo==OO  XoXoo&=&&&.&&&&&&.&o&o&..o",
"*o&:OOO*&.oo&=:===:::=&=&&&ooooo&--OO+O XO.&=&&oO&o&&o&&&oooo.oo",
"&oo@O-O@oooo&=-===>::=o&&o&&X.&O*O;@=--  @&.&&&o&OO&&&&&&&&o&.o&",
"OOoXOXXO.o.o&<63=:3::=o&ooo.XO:--@-O36OX -oo&o&&o&&&&&&&=OoO&o.&",
"&OXXOXXXoooo*,r4=>>>:&..o.ooo,==O@>>358oo-oo&&&oo&o&&&&&=3:;&.-:",
"=&oX#oOXo*&&<4de::>:3&o.o.ooo<:=-@>>35e*o4,*&&o&&&&&.&&&;35%&33:",
"-Ooo&XOO*--000dp8>3*3&o.o.ooo>:>*O>507t46y6*&&&&&&o&&&&&<55:935,",
"=oOO=o&o-;5tyryy533o5oXXX..oO>>=*:>5ttu6tt693,&&,*o&o&&&<6859555",
"=&*&OO-O35yeye6e66>X;XOoooo&->55;<3ettuuuytt9e&&**&o&&&&@,665555",
"&->:@=@O56ype8,9<<<X4XOoooOO>57>5>8ttettsyyy6y3*<&o&*&&*@o655855",
":><--&-->6eee855@46 @X=Ooo-->59555tet77tpuspqiq&<&&.,&***&53>555",
"<>3:----3789883:@-< @X==oO->>57355e9999tsssu9ui<,&.&&&o*o&5,>588",
"<>>:---:558985-o@,2 X ==oO=;>>6585:e7788sstduyy:&.o*oooo&&3:-888",
">-::---:>58885Oo+@o  XO=OO=-:>>>9e-48558ustfu994=.&*&o&oo&3:*888",
">&:>&:::>85555oo-<, X OOoo=&->->49;=55>5ty999983:&&--&oo&>3>-868",
"-O>-OO->355558oo<4-o. oooooo&:--&5o&3-<89e889dq6>&O=-&&&&->--38>",
">O=>OO;>-85655oo56@o. oo&o&oo*&&&:&O>-:38858epi65&o;-&o&o-4:&:>:",
"@o=-XOO;=55538>o58<ooX.ooooo.o&o.&.O*&-<8598yyyte--:-oooo-3:=;-:",
"OoO@ooO@o555394o36<@oo  .oo.ooooo&oo*o&*5565dtid0:-<:ooX.&<-&&&&",
"OOOOXXXOo6:55e6@>65,ooo .o.oo o.oooo.&o.<39ygyyi5>:3,ooooO-=&==&",
"=OO#XXXoo5,,:6e>>66-*oOoo X X.oo o..o.&o:*6ydypit5:7,oXXoO-O====",
"#O&OoOOo 5:%@,9:>35>;*Ooo o X.o. o.o...o6:yytyyyqy#<-XX oO=O====",
"5O&OO-@Xo3O@oO:>>><5;O&Oo oXooo . .&*&oo64ygttuyqt,;oXXXo&&==>-=",
"5OO=#@5Xo3OoO&=>>::>:==OoooX+oo ooo*@@ooe<ypeeeuq6-=O   X&=-=>3>",
"55O#=5OoO-o@O==:=::>>:-=oooo&*.ooo&**@@Oe6yte60ye5O&XX XX=-5>-3>",
"89;@<;-5&<o&O==:&=>:>>>=*oo-**.oo&o0-:,9q6te6e566;O&O+<oO;<73595",
"795#;;57=oo=&====:::>>>--*@:--oooo&246690836633>6==O@#;&@,795595",
"e655;656=&&&====&::>-5>>>:-><-oO&o,r484995,96-4=5@=O====<6907et5",
"75575665:&&&====:=:>=5555>::>:O-2&<y066e66:::-<=O=====>:3ee6tte9",
"6;755655>=&===:==:-::>3385:<4:440&4yeee985:::--======:>>5tt37te6",
"##55655;5=========->:3>>35555440i<0tete99>::::&-=:>==33>5t846t54",
"OO55>@5O5>>===:::::::-;<6868e60ty46yete98:::::=>-::=>>->695#3q;O",
"oO-@>O5&>5>=:=::>::=--O:59697eyuy0ey99t85=:::=>:>:::-=&=>5;@@7oo",
"oo;@#o;=-5>=:==>>::-==&&6999tytutuue4,q,>:=::=:===:::=X&-3oo@5Xo",
"Xo@OOO@o=>>=>::53>=-=&&o:6996yyuuuue,*6-==&=:======::&o&-;oO+O X",
"XXOoXoOO=>>>5>:85:===&&o5357qwtuyuy6:O,o&&=========:=o O-&Xo OX ",
"XXXXXX=oO>>>58558>-:<OOo5<;36ty50ut,Oo-*O&==&======:=OoO-Oo Xo  ",
"XXo XXooO&>>585863-33ooo#-;w26wO4ue@ X-o&&=&&=======&XoOOOo oXXX",
"ooX Xoooo=>5899966566ooXoo3r%3yO<y<O.oo&.=:&O--=====&ooXoo XooXX",
"oo XoXXXoo4397tte95<6o@ OXO4,<-&O6<oOoooX;<:O;--=:=&OXXXooXooOXO",
"ooo. XX Xo:5t777tq267o,oXoXO,;@&&4*&oOXOO>>5@5--===OoXOXXoOO=OO=",
"ooo.ooX .&40q3:0et%5eXO@@oo&o,o&&ooooo@<+>65653->>=oXXOOooO=--@*",
"ooooo o.o&-e73-e7y<56<3,;OO&OOOO&ooO:&o1#5wq6w5;-5&OXXOOoo&=-:@O",
"o&..o..Xo@o56=;yyy683553;Oo&o&&O&oo&OO-2<qteyt6<;#oXXXO=OO&>-:@@",
"oo.oXoooX@@53-<yuu77#6t<#oOO&&&o&O&OoO05%tye65;;5#ooOXO#O=O>>:%@",
"oX.+,.XoXO@5;O4tuyyt57t;>XOO&&&o&&OOoo065riq06@=-oo&OO==@:-361,@",
"o o@,oXOXOo:-O6tyyy7;e9<<oooo&o&&ooooX,%5w535:=O@&OoOO====*5e2%$"
};
