/* XPM */
static char *_b6cd49fc41d47768a275ad1054dec67llYVSZCf9xMns93y[] = {
/* columns rows colors chars-per-pixel */
"64 64 184 2 ",
"   c #191919",
".  c #1B1B1B",
"X  c #1D1D1D",
"o  c #1E1E1E",
"O  c #390700",
"+  c gray14",
"@  c #272727",
"#  c #2C2C2C",
"$  c gray19",
"%  c #323232",
"&  c gray20",
"*  c #343434",
"=  c gray21",
"-  c #3E3E3E",
";  c #430800",
":  c #4F0900",
">  c #5D0B00",
",  c #491609",
"<  c #561A0A",
"1  c #591B0A",
"2  c #65170D",
"3  c #641F0C",
"4  c #681F0C",
"5  c #6D1F0D",
"6  c #771300",
"7  c #761A00",
"8  c #5C2A1C",
"9  c #69200C",
"0  c #76250E",
"q  c #7A250E",
"w  c #7B260E",
"e  c #7F270E",
"r  c #652D1E",
"t  c #692E1E",
"y  c #6D2D1F",
"u  c #752711",
"i  c #75311D",
"p  c #7D301A",
"a  c #7C341F",
"s  c #414141",
"d  c #434343",
"f  c gray27",
"g  c #484848",
"h  c #4C4C4C",
"j  c #535353",
"k  c #555555",
"l  c #585858",
"z  c gray36",
"x  c #5D5D5D",
"c  c #5F5F5F",
"v  c DimGray",
"b  c gray42",
"n  c #6D6D6D",
"m  c #727272",
"M  c gray46",
"N  c gray48",
"B  c #861700",
"V  c #8D1A00",
"C  c #8B1F00",
"Z  c #981D00",
"A  c #9D1E00",
"S  c #80250F",
"D  c #862A10",
"F  c #852C13",
"G  c #8B2B10",
"H  c #8B2B11",
"J  c #912D11",
"K  c #952E11",
"L  c #972C12",
"P  c #9E3113",
"I  c #97381D",
"U  c #A42400",
"Y  c #AA2200",
"T  c #AF2400",
"R  c #A03113",
"E  c #A33213",
"W  c #A73413",
"Q  c #A43314",
"!  c #A83414",
"~  c #AF3614",
"^  c #A83C1F",
"/  c #AB3E1F",
"(  c #B23415",
")  c #B23715",
"_  c #B73815",
"`  c #BA3A16",
"'  c #813621",
"]  c #9F3D28",
"[  c #AC3E20",
"{  c #B63E21",
"}  c #C12A00",
"|  c #C4350D",
" . c #C13C17",
".. c #C43C17",
"X. c #C93E17",
"o. c #AC4128",
"O. c #BB4221",
"+. c #BB4628",
"@. c #CE4018",
"#. c #DB441A",
"$. c #C44623",
"%. c #CC4823",
"&. c #CA4B28",
"*. c #D04A24",
"=. c #DD4D25",
"-. c #848484",
";. c gray52",
":. c gray53",
">. c #888888",
",. c #8B8B8B",
"<. c gray55",
"1. c #8D8D8D",
"2. c #8E8E8E",
"3. c gray56",
"4. c #909090",
"5. c #929292",
"6. c #939393",
"7. c gray58",
"8. c #959595",
"9. c gray59",
"0. c #979797",
"q. c #989898",
"w. c gray60",
"e. c #9A9A9A",
"r. c #9B9B9B",
"t. c #9D9D9D",
"y. c gray64",
"u. c #A4A4A4",
"i. c gray65",
"p. c #A7A7A7",
"a. c #A9A9A9",
"s. c #AAAAAA",
"d. c #ACACAC",
"f. c gray68",
"g. c #AFAFAF",
"h. c gray69",
"j. c #B2B2B2",
"k. c gray70",
"l. c #B4B4B4",
"z. c gray71",
"x. c #B9B9B9",
"c. c #BBBBBB",
"v. c #BCBCBC",
"b. c gray74",
"n. c gray75",
"m. c #C0C0C0",
"M. c #C1C1C1",
"N. c gray76",
"B. c #C3C3C3",
"V. c gray77",
"C. c #C5C5C5",
"Z. c gray78",
"A. c #C8C8C8",
"S. c gray79",
"D. c #CBCBCB",
"F. c gray80",
"G. c #CDCDCD",
"H. c #CECECE",
"J. c gray81",
"K. c #D0D0D0",
"L. c gray82",
"P. c #D2D2D2",
"I. c LightGray",
"U. c gray83",
"Y. c gray84",
"T. c #D7D7D7",
"R. c #D8D8D8",
"E. c gray85",
"W. c #DADADA",
"Q. c gainsboro",
"!. c #DDDDDD",
"~. c gray87",
"^. c #DFDFDF",
"/. c gray88",
"(. c #E1E1E1",
"). c #E2E2E2",
"_. c gray89",
"`. c #E4E4E4",
"'. c gray90",
"]. c #E7E7E7",
"[. c #E9E9E9",
"{. c #ECECEC",
"}. c #EFEFEF",
"|. c gray94",
/* pixels */
"} } T T T T A A A A V V V V V V } } T T T T A A A A V V V V V V } } T T T T Y A A A V V V V V V } } T T Y T A A A A S V V V V V ",
"} #.@.X.X.X.X._ _ _ _ W W W W 0 #.#.@.X.X.X.X._ _ _ _ ! Q ! ! 0 #.#.X.X.X.X.X._ _ _ _ ! E ! E 0 #.#.X.X.@.@.@.) _ _ _ ! W ! ! > ",
"} #.@.#.@. .(  .! ! E ! J J J 0 #.#.@.#.@.` )  .! ! Q ! J J J 0 #.#.X.#.X. .(  .! ! E ! J J J 0 #.#.@.#.@.` ( ..! ! E ! J J L > ",
"} #.@.#.@. .(  .! ! E ! J J J 0 #.#.@.#.@...)  .! ! E ! J J J 0 #.#.X.#.X. .(  .! ! E ! J J J q #.#.@.#.@...( ` ! ! E ! J J J > ",
"} #.@.#.@. .(  .! ! E ! J J J 0 #.#.@.#.X. .) ..! ! E ! J J J 0 #.#.@.#.#. .(  .! ! E ! J J J 0 #.#.@.#.@...( ..! ! E ! J J J > ",
"} #.@.#.@. .(  .! ! E ! J J J 0 #.#.@.#.@. .) ` ! ! E ! J J J 0 #.#.@.#.X...(  .! ! E ! J J J 0 #.#.@.#.@...( ..! ! E ! J J J > ",
"} #.@.#.@. .(  .! ! E ! J J J 0 #.#.@.#.@...( ..! ! E ! J J J 0 #.#.@.#.X. .(  .! ! E ! J J J 0 #.#.@.#.@...( ..! ! E ! J J J > ",
"} #.@.#.@. .(  .! ! E ! J J J 0 #.#.@.#.@..._ ` ! ! E ! J J J u #.#.@.#.@. .(  .! ! E ! J J J 0 #.#.@.#.@...( ` ! ! E ! J J J > ",
"} #.@.#.@. .(  .! ! E ! J J J 0 #.#.@.#.@...( ..! ! E ! J J J 0 #.#.@.#.@...)  .! ! E ! J J J 0 #.#.@.#.@.` ( ..! ! E ! J J J > ",
"} #.@.#.@. .(  .! ! E ! J J J 0 #.#.@.#.@.` ( ..! ! E ! J J J 0 #.#.@.#.@...(  .! ! E ! J J J 0 #.#.@.#.@...( ` ! ! E ! J J J > ",
"} #.@.#.@. .(  .! ! E ! J J J 0 #.#.@.#.@...( ` ! ! E ! J J J 0 #.#.@.#.@...(  .! ! E ! J J J 0 #.#.@.#.@...( ..! ! E ! J J J > ",
"} #.@.#.@. .(  .! ! E ! J J J 0 #.#.@.#.@...( ..! ! E W J J J 0 #.#.@.#.X. .(  .! ! E ! J J J 0 #.#.@.#.@...( ..! ! E ! J J J > ",
"} #.@.#.@. .(  .! ! E ! J J J 0 #.#.@.#.X. .(  .! ! E ! J J J 0 #.#.@.#.@...( ` ! ! E ! J J J 0 #.#.@.#.@...( ..! ! E ! J J J > ",
"} #.@.#.@. .(  .! ! E ! J J J 0 #.#.@.#.@. .(  .! ! E ! J J J 0 #.#.@.#.@...) ..! ! E ! J J J 0 #.#.@.#.X...( ..! ! E ! J J J > ",
"} #.@.#.@. .(  .! ! E ! J J J 0 #.#.@.#.@...(  .! ! E ! J J J 0 #.#.@.#.@...) ..! ! E ! J J J u #.#.@.#.X...(  .! ! E ! J J J > ",
"} #.@.#.@. .(  .! ! E ! J J J 0 #.#.@.#.@...(  .! ! E ! J J J 0 #.#.@.#.@...( ` ! ! E ! J J J u #.#.@.#.X. .(  .! ! E ! J J J > ",
"} #.@.#.@. .(  .! ! E ! J J J 0 #.#.@.#.@. .(  .! ! Q ! J J J 0 #.#.X.#.@...( ..! ! Q Q J J H 0 #.#.@.#.X...( ` ! ! Q ! J J J > ",
"U ` ~ ` ~ Q K Q J H H J q q q 3 ` ` ) ` ) E K E J H H H q e q 3 ` ` ( ` ~ Q L Q J J H H q e q 9 ` ` ) ` ( E K ! J J H H e q q : ",
"C P K P K H S H q q 0 q 9 9 9 < P P K P K H e H q q 0 q 9 9 9 1 E P J E K H e H q q 0 0 9 9 9 1 P P K P J H q H e q 0 q 9 9 4 ; ",
"7 ' a F S 0 5 0 4 4 r t 1 1 1 , D D S D S q 4 0 3 9 9 9 1 1 1 , D D e F S u 9 q 4 4 9 9 1 1 1 , D F e F F i y u 3 4 3 t 8 1 1 O ",
":.>.1.>.>.:.1.1.1.1.1.1.w.w.7.1.1.1.1.<.:.-.-.:.:.>.>.>.3.1.1.1.1.3.3.1.:.:.1.1.5.6.5.5.5.1.:.1.:.>.>.,.3.3.1.1.1.1.1.>.>.5.:.:.",
"p.d.d.s.p.p.s.h.h.h.h.z.B.B.h.h.h.h.d.s.u.p.y.y.p.d.h.h.k.z.z.h.h.z.k.h.p.p.s.h.d.z.z.z.z.z.d.d.d.d.s.d.h.l.h.h.h.h.h.d.z.z.z.p.",
"B.B.b.b.b.b.b.b.Z.Z.H.W.W.!.W.S.S.S.m.b.b.x.x.x.b.S.A.S.S.A.S.H.F.A.S.Z.x.x.x.b.H.H.H.H.H.H.H.B.Z.b.B.m.A.S.A.A.S.S.S.S.H.P.H.H.",
"W.H.S.S.S.S.S.P.P.].].].[.[.[.!.I.I.K.S.A.A.Z.S.I.I.P.I.P.Y.W.W.W.Y.Y.P.H.Z.S.P.Y.R.W.W.!.W.Y.Y.H.H.S.H.T.T.I.I.Y.Y.P.W.Y.!.W.!.",
"!.W.!.].].].].].].).m % % * % % % % # % $ $ s I.I.1.* % f 1.Q.Q.).`.].H.s % z ).W.s % % % % % % * # % % % M [.].).).).W.!.!.W.!.",
"!.].].}.}.}.}.|.[.].g                         Q.!.+         u.).].].`.H.    & {.!.                        % }.}.).].].).).).).!.",
"Y.Y.}.}.}.}.|.|.}.].l                       @ Q.W.          * ).`.].].A.    & {.].+                       k }.}.}.[.].).].!.).).",
"W.Y.Y.W.}.|.}.|.}.}.[.[.[.].H.      5.^.).Q.Q.!.!.            7.].`.].H.    * ].].).).).Y.1.      P.[.].).].].}.}.}.].].).!.).Y.",
"W.Y.Y.Y.Y.W.}.}.}.}.}.}.}.}.H.      7.).).).).).!.      -     # H.P.P.v.    $ Y.).].).].[.7.      H.).).).).].[.[.}.}.].].].).W.",
"Y.P.Y.P.Y.W.!.|.}.}.}.}.|.|.P.      5.).).).).W.).      w.      N H.P.v.    % Y.Y.).].].[.w.      S.).).).).].].[.[.].[.[.[.).Y.",
"H.H.H.P.Y.Y.Y.W.}.}.|.}.|.}.H.      7.)._.).).).).      H.h     + A.I.b.    # T.Y.W.).].[.w.      S.).).].).).].[.[.[.[.[.].).].",
").P.P.Y.W.W.W.W.W.}.}.}.[.].S.      w.].].).).).].      b.p.      n Y.b.    % Y.Y.W.Y.Y.].7.      Z.).).).W.!.!.).].[.].].].].).",
"_.!.!.!.).!.E.J.J.J.J.J.R.Y.b.      9.).).).).).).      n.Y.g     X V.b.    % T.Y.I.Y.I.D.>.      B.W.!.W.!.W.T.I.I.P.P.J.].`.].",
"'._.'._.)._.G.G.G.G.J.D.D.U.b.      w.'.).).).).).      b.Y.k.      b n.    % W.Y.I.I.D.H.>.      z.W.!.!.W.T.P.J.J.P.J.H.D.H.`.",
"U.E._._.)._._.G.J.G.K.G.S.D.c.      w.'.!.].).).Y.      b.Y.I.j     X d.    % Y.I.I.J.H.S.>.      V.!.!.W.T.P.H.J.H.H.H.H.J.H.P.",
"E.E.R.).(.).!.E.J.J.K.G.S.S.j.      3.).W.!.W.Y.I.      b.Y.I.b.      z     % W.T.P.P.J.H.>.      Z.!.W.W.T.W.P.P.H.H.H.J.I.P.P.",
"E.E.R.Y.R.!.E.E.E.Y.Y.U.U.S.j.      ;.D.D.H.D.J.I.      n.W.I.I.c     .     % ).[.[.|.|.[.t.      V.!.!.W.!.).).`.}.}.|.|.W.T.W.",
"E.Y.Y.Y.Y.R.E.E.E.Y.R.R.E.E.l.      -.A.A.D.H.D.J.      N.).).I.b.X         % ].}.}.|.|.}.t.      B.W.W.!.`.).].{.|.}.}.}.}.}.W.",
"Y.R.Y.Y.Y.Y.E.E.E.E.E.E.).[.b.      -.A.A.D.D.D.D.      A.).).Y.I.v         % {.}.}.|.!.W.7.      V.!.!.T.).).`.|.|.}.!.W.).}.}.",
"U.U.U.U.U.R.E.E.E.E.)._.].].G.      -.A.S.D.D.S.D.      A.).).).P.A.+       % [.}.[.!.!.!.7.      V.W.).!.!.!.].`.).!.).).!.!.W.",
"Q.!.!.'.'.].]._.'._.'.'.].].Y.o     s.[.'.[.'.'.).@   o H.!.).).].[.p.+     l [.[.!.W.W.!.y.    X H.).Q.Q.Q.Q.!.Y.H.P.W.W.!.).!.",
"K.J.E.E.!.!.!.!.!.E.E.E.E.E.R.U.A.W.).W.!.W.!.!.W.I.n.J.Y.Y.Y.W.Q.Q.).W.W.T.T.!.W.P.H.H.P.P.Z.v.F.Y.Y.P.P.P.P.C.Z.V.Z.S.Y.P.P.P.",
"M.M.M.M.M.B.M.M.M.b.b.n.b.b.b.n.A.A.N.N.B.N.N.N.N.n.b.b.b.b.b.n.b.B.B.n.B.B.m.B.x.z.l.z.x.x.x.b.v.b.b.x.x.x.h.f.d.d.h.d.x.x.x.x.",
"w.w.w.w.w.r.r.w.w.w.0.0.w.w.0.8.9.e.e.e.w.e.e.e.e.w.w.9.w.9.9.9.w.r.w.w.7.w.w.7.5.1.5.5.5.7.7.7.8.q.6.5.7.>.<.3.>.1.1.1.5.7.7.w.",
"&.*.+.+.+.+.[ [ [ o.[ [ ] ] ] ^ &.&.+.+.+.+.[ o.o.o.[ ] ] ] ] ] &.&.+.+.+.+.o.o.o.o.[ ] ] ] ] ] &.&.+.+.+.+.[ o.o.[ ] ] [ ] ] ] ",
"| =.*.*.&.&.&.+.O.O.O.[ / / / p =.=.*.*.&.%.&.O.O.O.O.[ ^ [ [ p =.=.*.%.%.%.%.O.O.O.O./ [ [ [ p =.=.*.%.%.*.&.{ O.O.O.[ [ [ [ 2 ",
"| =.%.=.*.&.[ $.[ [ / / ' I ] p =.=.*.=.%.$.{ $.[ [ [ [ I I I p =.=.*.=.*.$.O.$.[ [ / [ ' I I p =.=.*.=.*.$.{ $.[ [ [ [ I I ' 2 ",
"} X.X.=.X.` ( ` ! Q E ! K K L u #.#.X.#.X. .( ` ! Q Q ! J J J 0 #.#.@.#.@...!  .E ! E ! K J J q #.#.X.#.X. .)  .! Q Q ! J K K > ",
"} #.X.#.X.X._  .! ! E ! J J J u #.#.@.#.@...(  .Q ! Q ! J J J 0 #.#.X.#.X. .(  .! ! E ! J J J 0 #.#.X.#.@. .(  .! ! Q ! J J J > ",
"} #.X.#.X...(  .! ! E ! J J J u #.#.@.#.@.` (  .! ! Q ! J J J 0 #.#.X.#.X. .(  .! ! E ! J J J 0 #.#.X.#.@. .(  .! ! Q ! J J J > ",
"} #.X.#.X...(  .! ! E ! J J J 0 #.#.@.#.@...)  .! ! Q Q J J J 0 #.#.#.#.#. .(  .! ! E ! J J J 0 #.#.#.#.@...(  .! ! Q ! J J J > ",
"} =.X.#.X. .(  .! ! E ! J J J 0 #.#.@.#.@...(  .! ! Q ! J J J 0 #.#.X.#.X. .(  .! ! E ! J J J 0 #.#.X.#.X. .(  .! ! Q ! J J J > ",
"} #.X.#.X.X.(  .! ! E ! J J J 0 #.#.@.#.X. .(  .! ! E ! J J J 0 #.#.@.#.X.X.(  .! ! E ! J J J 0 #.#.X.#.@...(  .! ! Q ! J J J > ",
"} #.X.#.X.X.(  .! ! E ! J J J 0 #.#.@.#.@. .(  .! ! E ! J J J 0 #.#.@.#.X...( ..! ! E ! J J J 0 #.#.X.#.@...(  .! ! E ! J J J > ",
"} #.X.#.X.X._ ..! ! E ! J J J 0 #.#.@.#.@...(  .! ! Q ! J J J 0 #.#.@.#.X...(  .! ! E ! J J J 0 #.#.X.#.@. .)  .! ! E Q J J J > ",
"} #.#.#.#.X.( ..! ! E ! J J J 0 #.#.@.#.@...) ..! ! Q ! J J J 0 #.#.@.#.X. .(  .! ! E ! J J J 0 #.#.#.#.@. .(  .! ! Q ! J J J > ",
"} #.X.#.X. ._ ..! ! E ! J J J 0 #.#.@.#.@...) ` ! ! E ! J J J 0 #.#.@.#.@...)  .! ! E ! J J J 0 #.#.X.#.X. .(  .! ! E ! J J J > ",
"} #.X.#.X. .( ` ! ! E ! J J J 0 #.#.@.#.@.` ) ..! ! E ! J J J 0 #.#.@.#.@...(  .! ! E ! J J J 0 #.#.X.#.X. .(  .! ! E ! J J J > ",
"} #.X.#.X.X.( ..! ! E ! J J J 0 #.#.@.#.@...( ..! ! E ! J J J 0 #.#.@.#.X. .(  .! ! E ! J J J 0 #.#.X.#.X.X.(  .! ! E ! J J J > ",
"} #.X.=.X...( ..! ! E ! J J J 0 #.#.@.#.@...( ` ! ! Q ! J J J 0 #.#.@.#.X. .(  .! ! E ! J J J 0 #.#.X.=.X...(  .! ! E ! J J J > ",
"} #.X.#.X.X.( _ ! ! E ! J J J 0 #.#.@.#.X. .(  .! ! E ! J J J 0 #.#.X.#.#. ._  .! ! E ! J J J 0 #.#.X.#.X..._  .! ! E ! J J J > ",
"} #.X.#.X..._ ..! ! E ! J J J 0 #.#.@.#.X. .(  .! ! E ! J J J u #.#.X.#.X. .(  .! ! E ! J J J 0 #.#.X.#.X. ._  .! ! E ! J J J > ",
"Y ..X. .( ( ( R R R R J J J J 0 ......( ( _ ( P E P E J J J L u X... .) ) ( ) E P P E J J J L u ....X. .) ) ( P P E E J J J J > ",
"Y Y A A Z Z B B B B 6 6 6 6 6 6 Y T Z Z Z Z B B B B 6 6 6 6 6 6 Y Y Z Z Z Z B B B B 6 6 6 6 6 6 Y Y A A Z Z B B B B 6 6 6 6 6 6 "
};
