/* XPM */
static char *ec611a6499684c65a1d1724f39198382MVorWeNLh7AYEoqs[] = {
/* columns rows colors chars-per-pixel */
"96 26 85 1 ",
"  c None",
". c #3E1F1F",
"X c #1F2929",
"o c #2D2727",
"O c #262929",
"+ c #292929",
"@ c #322525",
"# c #3A2222",
"$ c #322929",
"% c #3A2929",
"& c #5D0F0F",
"* c #4D1515",
"= c #431C1C",
"- c #4A1919",
"; c #511515",
": c #581111",
"> c #551F1F",
", c #5C1D1D",
"< c #6D0707",
"1 c #630C0C",
"2 c #690909",
"3 c #760202",
"4 c #7B0000",
"5 c #631D1D",
"6 c #6B1A1A",
"7 c #492222",
"8 c #432B2B",
"9 c #4F2828",
"0 c #542020",
"q c #5C2727",
"w c #532B2B",
"e c #5D2828",
"r c #642424",
"t c #6D2727",
"y c #652B2B",
"u c #6A2A2A",
"i c #732727",
"p c #722D2D",
"a c #7D2E2E",
"s c #850505",
"d c #880707",
"f c #830A0A",
"g c #8A0909",
"h c #960F0F",
"j c #980F0F",
"k c #861515",
"l c #8B1414",
"z c #961212",
"x c #9A1111",
"c c #9C1919",
"v c #A11515",
"b c #A31B1B",
"n c #A91F1F",
"m c #842727",
"M c #972727",
"N c #9D2626",
"B c #902F2F",
"V c #A52424",
"C c #AD2626",
"Z c #A12A2A",
"A c #AC2A2A",
"S c #B12626",
"D c #B32A2A",
"F c #BC2F2F",
"G c #A93131",
"H c #B53131",
"J c #BE3232",
"K c #BC3D3D",
"L c #C42E2E",
"P c #C33232",
"I c #CA3030",
"U c #C63E3E",
"Y c #BE4A4A",
"T c #C84343",
"R c #CD4E4E",
"E c #C55A5A",
"W c #D86D6D",
"Q c #D97171",
"! c #DA8080",
"~ c #E08181",
"^ c #E59E9E",
"/ c #E9A4A4",
"( c #F4B7B7",
") c #F8BFBF",
"_ c #FED3D3",
/* pixels */
"   ++++OO+     +++OO+O                                                                          ",
"  $>ruruur9   %yppppppw                                                                         ",
" @7lbCCCCCi% $wGPPPPLPa%                                                                        ",
"+>kzxvCSCSVm%eMAFPLPLPHB8                                                                       ",
"+5xxjxbVSCSVtmSCSUW!WUIG8X                                                                      ",
"O,jxxxxbCCCCCCCCVK/_(RLG8X                                                                      ",
"+;dzxxxxbVCCSCCCCAT^)RLA8OOOO++OOOOOOOOOOOOOOOOOOOOOOOOOOOOOOOOOOOOOOOOOOOOOOOOOOOOOOOOOOOOOOO  ",
"+*4gjxxjxbCACSCCACVE!TPG8@=--000000000000000000>000eeeeeeqeeeeeeeeeeeqeeeeqeeeyyyyyyeyyyyyeyyyw ",
"+;44gzxxxxbCCCCCCCCSDJPG8*44fzzzcczzzzzzzxzzzzzxzzxVCCCCCVCVACCVCCVCVCCCVCCACCHJJJJJPJJPJJJJPPp+",
"+;444sjxxxxbCCCCCCCCCSPG8*444djxxxxjxxxxxxxxxxxxxxxvnCCSSASSCCSCCSASCCCSCCCSCSDLPPPPPPPPPPPPPPp+",
"+=1344gzxxjxbCCCSCCCCCZa%*4444gjxxxxxxxjxxxxxzjxxxxzcnCCCCCCCCACSCCACCCCCCCCCCCDJPPPPJJPPPPPPPp+",
"+O#2444gxxxzxbCCCCCCCCuo+;44444gjjxzxxxzxxxxxxxxxxxxxxVCCCCCCCCCCCCCCASCCACCCCCCAJPPPPPPPPPPPPp+",
"+Oo#1444dzxxxxbCSSCSNy%OO;444434szxzxxxxxjxzxjxzxxzxxxcnCCCCCCCCCCCCCCCCSCCCCCSCCSFPPPPPPPPPPPp+",
"++++=1444gzxxxxbVCSNi@O+.&4444444gjxxxxxxxxxxxxxxxxxxxjvVCSCCSCCCCCSSCACCCCCCCCCCADJPPJPPPPPPPpO",
"  +++#<444gxxxxxbCCto+O#2444444444gxzxxxxxxxxzxxxxxzxxxxvVSCCCCCCCCCCCSCCCCSCCACCCSSJPPPPPPPPPp+",
"   +++=1444gzxxxccr%OO=13444444444ssjxxzxzjxxxjxxxxjxxxjxvVACSCCCSCCCCCCCCCCCCCCCCCCSJPPJPPJPPpO",
"   +++O=2344gxxxl6@Oo.14444444444444gzxxxxxxxxxxxxxxxxxxxxbnSSCSCCCCCCACSCCCCCSSSCSCCDPPPPPPPPp+",
"    ++++.<444gxz5$+O$1343444433434334gxxzzxxxzxzzzzxzzxzzxzcVCCCCCCCCCVCCCCCCCCVCVCCCCAJPJJUPPp+",
"     ++++=144s45%+++@=----------------000>000>0>>>>>00>0>>>0qqqeeeeeeeeeeeeeqeeeeeqeqqeyyyyyyy8+",
"      ++++-243:@+++++OO+O+O+OOOO++O+++OO+OOOOOOOOOOO+OOOOOOOOOOO+OOOOOOOOOOOOOOOOOOOOOOOOOOOOO++",
"       +++o.<:@++++++++++++++++++++++++++++++++++++++++++++++++++++++++++++++++++++++++++++++++ ",
"        ++Oo-#O++                                                                               ",
"         ++++O++                                                                                ",
"          +++++                                                                                 ",
"           +++                                                                                  ",
"            ++                                                                                  "
};
