/* XPM */
static char *_d8c275fb7e74b039f3b40f5ce3d9639uIRXjHdYlgnbIjmf[] = {
/* columns rows colors chars-per-pixel */
"96 26 93 2 ",
"   c None",
".  c #161A1A",
"X  c #1A1A1A",
"o  c #201A1A",
"O  c #341C1C",
"+  c #3D1E1E",
"@  c #1F2323",
"#  c #1F2929",
"$  c #232323",
"%  c #2D2626",
"&  c #262A2A",
"*  c #292929",
"=  c #322525",
"-  c #3A2222",
";  c #322929",
":  c #3A2929",
">  c #5D0F0F",
",  c #4D1515",
"<  c #431C1C",
"1  c #4A1A1A",
"2  c #511515",
"3  c #581111",
"4  c #551F1F",
"5  c #5C1D1D",
"6  c #6D0707",
"7  c #630C0C",
"8  c #690909",
"9  c #760202",
"0  c #7B0000",
"q  c #631D1D",
"w  c #6B1A1A",
"e  c #492222",
"r  c #422B2B",
"t  c #4F2828",
"y  c #542121",
"u  c #5C2727",
"i  c #542B2B",
"p  c #5D2828",
"a  c #642424",
"s  c #6D2727",
"d  c #652828",
"f  c #6A2A2A",
"g  c #732727",
"h  c #7F2222",
"j  c #702D2D",
"k  c #7D2E2E",
"l  c #850505",
"z  c #880707",
"x  c #830A0A",
"c  c #8A0909",
"v  c #960F0F",
"b  c #980F0F",
"n  c #861515",
"m  c #8B1414",
"M  c #961212",
"N  c #9A1111",
"B  c #9C1919",
"V  c #A11515",
"C  c #A31B1B",
"Z  c #A91F1F",
"A  c #842525",
"S  c #8B2323",
"D  c #932525",
"F  c #9D2626",
"G  c #902F2F",
"H  c #A52424",
"J  c #AD2626",
"K  c #A12A2A",
"L  c #AC2A2A",
"P  c #B12626",
"I  c #B12B2B",
"U  c #BD2E2E",
"Y  c #A93131",
"T  c #B53131",
"R  c #BD3030",
"E  c #BC3D3D",
"W  c #C42E2E",
"Q  c #C33131",
"!  c #CA3030",
"~  c #C63E3E",
"^  c #BE4A4A",
"/  c #C84343",
"(  c #CD4E4E",
")  c #C55A5A",
"_  c #D86D6D",
"`  c #D97171",
"'  c #DA8080",
"]  c #E08181",
"[  c #E59E9E",
"{  c #E9A4A4",
"}  c #F4B7B7",
"|  c #F8BFBF",
" . c #FED3D3",
/* pixels */
"      * * * * * * *           * * * * & * *                                                                                                                                                     ",
"    ; 4 a f a d d d t       : f j j j j j j i                                                                                                                                                   ",
"  ; e m C J J J J J g :   * i Y Q Q Q Q Q Q k :                                                                                                                                                 ",
"* 4 n M N V J P J P H A : p D L Q Q Q Q Q Q T G r                                                                                                                                               ",
"* q N N b N C H J J P K g A P J J E _ ` _ ~ ! Y r #                                                                                                                                             ",
"* 5 b N N N N C J J P J L J J J Z ^ {  .} ( W Y r &                                                                                                                                             ",
"* 2 l M N N N N C H J J P J J J J J ^ { | ( W Y r & & * * & & & & & * & & & & & & & & & * * * * * * & * * * * & * & * * * * * & * * * * * & * & * * * & * & * * * * * * * * * * * * * * * *     ",
"* , 0 c b N N b N C J J J J P J J J J ) ` / Q Y r ; < 1 1 y y y y y y y y y y y y y y y y y y y y y y i i p u u p i i u u p p i p i u p p i p p i p u u p i $ $ $ * $ $ $ $ $ $ $ $ $ $ $ $ *   ",
"* 2 0 0 c M N N N N C J J J J J P J J J I R ! Y r , 0 0 x M M M M M M M N M M M M N M M M M M N M M N H J J H J J J J H J J J H L H L J J H L H H J J L J D + X . . X X X X X X X X X X X X $ * ",
"* 2 0 0 0 l b N N N N C J J J J J J J J J P W Y r , 0 0 0 z b N N N N N b N N N N N N N b N N N N N N V H J P P J J P P J J P J P P J J P J P P J J J P P J S 1 . . X X X X X X X X X X X X $ * ",
"* + 7 0 0 0 c M N N N N C J J J J J J J P J K k : , 0 0 0 0 c b N N N N N N N N N N N N N N N b N N N b N H J J J J J J J J J J J J P L J J J J J J J J J P P A < o . X X X X X X X X X X X $ * ",
"* * - 8 0 0 0 c b N N N N C J J J J J J J L f * * 2 0 0 0 0 0 c N N N N M N N b N N N N N M N N N N N N N V H J J J J J J J J J J J J J J J J J J J J J J J J P D + X X X X X X X X X X X X o * ",
"* * * + 7 0 0 0 l M N N N N C J P J J P H d ; * * 2 0 0 0 0 9 0 c M N N M N N N N N N N N b N N N N M N N N N Z J J J J J J P J J J J J J J J P J J J J J J J P H S 1 . . . X X X X X X X X $ * ",
"* * * * < 7 0 0 0 c M N N N N C H J P F s ; & * + > 0 0 0 0 0 0 0 c b N N N M N M N N N N N N M N N N N N b N C J J J J J J J J P J J J J J J J P J J J J J J J P P h + o . X X X X X X X X $ * ",
"    * * * - 6 0 0 0 c N N N N N Z J J f * * * - 7 0 0 0 0 9 0 0 0 0 c N N M N N N N N M M N N N N N N b N N N N N J J J J P J J J J J J J J J J J J J J J J J J J J J S + . . X X X X X X X $ * ",
"      * * * < 7 0 0 0 c M N N N N B a : * * < 7 0 0 0 0 0 0 0 0 0 0 0 c b N N N N N b N N N b N N M N N M N N N N B J J J J J J J J J J P J J J J J P J J J J J J J P J A < . . X X X X X X $ * ",
"      * * * * < 7 0 0 0 c N N N m w ; * * < > 0 0 0 0 0 0 0 0 0 0 0 0 0 c M N N N N N N N N N N N N N N N N N N N N C H P J P J J J J J J J J P J J J J J J J J J J J P P h + X . X X X X . $ * ",
"        * * * * + 6 0 0 0 c N M w ; * & ; 7 0 0 0 0 0 9 9 0 0 0 0 0 9 0 0 c M M M M M M M M M M M M M N M M M M M M M N H J J J J J J J J J H J J J J J J J J J J J J H J H S O . X X X X . $ * ",
"          * * * * < 7 0 0 l 0 q - & * & % < 1 1 < < 1 1 1 < 1 < 1 1 1 1 1 1 y y y 4 y 4 y 4 y 4 4 4 4 4 y 4 4 y 4 y 4 y u p i p i p p p u i p p u u i d i p p p i d u u u d u * * $ $ $ $ $ * * ",
"            * * * * 1 8 0 9 3 ; & * * * * * * * * * * * * * * * & & & * * * * * * * & & * * * * & & * * & & * * * * * & * * * * * & * * * & * * * & & * * & * * & * & & * & * * * * * * * * * * ",
"              * * * * + 6 3 ; * * * * * * * * * * * * * * * * * * * * * * * * * * * * * * * * * * * * * * * * * * * * * * * * * * * * * * * * * * * * * * * * * * * * * * * * * * * * * * * *   ",
"                * * * % < + * * *                                                                                                                                                               ",
"                  * * * * * * *                                                                                                                                                                 ",
"                    * * * * *                                                                                                                                                                   ",
"                      * * *                                                                                                                                                                     ",
"                        * *                                                                                                                                                                     "
};
