/* XPM */
static char *result[] = {
/* columns rows colors chars-per-pixel */
"160 43 123 2 ",
"   c #171B1B",
".  c #1A1A1A",
"X  c #251717",
"o  c #291616",
"O  c #231919",
"+  c #361212",
"@  c #3B1111",
"#  c #351E1E",
"$  c #3D1E1E",
"%  c #1F2424",
"&  c #1E2828",
"*  c #232323",
"=  c #2D2626",
"-  c #252A2A",
";  c #292929",
":  c #322525",
">  c #3A2222",
",  c #332929",
"<  c #392929",
"1  c #430F0F",
"2  c #5E0707",
"3  c #540A0A",
"4  c #5C0A0A",
"5  c #421111",
"6  c #4D1616",
"7  c #441B1B",
"8  c #4A1919",
"9  c #531414",
"0  c #591111",
"q  c #551D1D",
"w  c #5D1D1D",
"e  c #6D0606",
"r  c #640B0B",
"t  c #690808",
"y  c #730303",
"u  c #7B0000",
"i  c #7C0C0C",
"p  c #6A1717",
"a  c #611D1D",
"s  c #6F1A1A",
"d  c #7C1717",
"f  c #721919",
"g  c #791A1A",
"h  c #472323",
"j  c #4C2222",
"k  c #432929",
"l  c #4D2A2A",
"z  c #532020",
"x  c #542B2B",
"c  c #5D2929",
"v  c #662525",
"b  c #6D2727",
"n  c #662A2A",
"m  c #6A2A2A",
"M  c #772626",
"N  c #7B2727",
"B  c #722D2D",
"V  c #7B2828",
"C  c #840404",
"Z  c #880707",
"A  c #8E0B0B",
"S  c #940E0E",
"D  c #990F0F",
"F  c #831414",
"G  c #8B1414",
"H  c #951111",
"J  c #9A1212",
"K  c #951D1D",
"L  c #9F1818",
"P  c #A21414",
"I  c #A41C1C",
"U  c #AA1E1E",
"Y  c #862727",
"T  c #882727",
"R  c #872D2D",
"E  c #8A2F2F",
"W  c #902727",
"Q  c #9C2626",
"!  c #942E2E",
"~  c #9D2C2C",
"^  c #8D3030",
"/  c #953030",
"(  c #983131",
")  c #A52525",
"_  c #AD2626",
"`  c #AD2828",
"'  c #B12626",
"]  c #B42B2B",
"[  c #BA2C2C",
"{  c #A03030",
"}  c #AE3131",
"|  c #B33232",
" . c #BD3131",
".. c #BA3F3F",
"X. c #C42E2E",
"o. c #C33232",
"O. c #C93131",
"+. c #C63D3D",
"@. c #BF4C4C",
"#. c #C44646",
"$. c #C84242",
"%. c #C04F4F",
"&. c #CB4B4B",
"*. c #C45555",
"=. c #D15A5A",
"-. c #D56464",
";. c #D56A6A",
":. c #D47373",
">. c #D67D7D",
",. c #DE7D7D",
"<. c #D98484",
"1. c #E18383",
"2. c #E59393",
"3. c #EBA0A0",
"4. c #EAA9A9",
"5. c #F0ABAB",
"6. c #EFB2B2",
"7. c #F2B0B0",
"8. c #F6BBBB",
"9. c #FAC6C6",
"0. c #FCCECE",
"q. c #FFD3D3",
"w. c None",
/* pixels */
"w.w.w.w.w.- - - - - & - & - - - & w.w.w.w.w.w.w.w.- - - & - - & - & - - & w.w.w.w.w.w.w.w.w.w.w.w.w.w.w.w.w.w.w.w.w.w.w.w.w.w.w.w.w.w.w.w.w.w.w.w.w.w.w.w.w.w.w.w.w.w.w.w.w.w.w.w.w.w.w.w.w.w.w.w.w.w.w.w.w.w.w.w.w.w.w.w.w.w.w.w.w.w.w.w.w.w.w.w.w.w.w.w.w.w.w.w.w.w.w.w.w.w.w.w.w.w.w.w.w.w.w.w.w.w.w.w.w.w.w.w.w.w.w.w.w.w.w.",
"w.w.w.w.w.: : < < < < < < : < < : < w.w.w.w.w.w.w.< < < < < < < < < < < < < w.w.w.w.w.w.w.w.w.w.w.w.w.w.w.w.w.w.w.w.w.w.w.w.w.w.w.w.w.w.w.w.w.w.w.w.w.w.w.w.w.w.w.w.w.w.w.w.w.w.w.w.w.w.w.w.w.w.w.w.w.w.w.w.w.w.w.w.w.w.w.w.w.w.w.w.w.w.w.w.w.w.w.w.w.w.w.w.w.w.w.w.w.w.w.w.w.w.w.w.w.w.w.w.w.w.w.w.w.w.w.w.w.w.w.w.w.w.w.w.w.w.",
"w.w.w.w.> z v v v n v v n v m n n l , w.w.w.w.w.k n B B B B B B B B B B m x < w.w.w.w.w.w.w.w.w.w.w.w.w.w.w.w.w.w.w.w.w.w.w.w.w.w.w.w.w.w.w.w.w.w.w.w.w.w.w.w.w.w.w.w.w.w.w.w.w.w.w.w.w.w.w.w.w.w.w.w.w.w.w.w.w.w.w.w.w.w.w.w.w.w.w.w.w.w.w.w.w.w.w.w.w.w.w.w.w.w.w.w.w.w.w.w.w.w.w.w.w.w.w.w.w.w.w.w.w.w.w.w.w.w.w.w.w.w.w.w.w.",
"w.w.w.= h p G K Q Q ) Q Q Q Q ) T v < - w.w.w.= x ^ } } } } } } } } | | { m < - w.w.w.w.w.w.w.w.w.w.w.w.w.w.w.w.w.w.w.w.w.w.w.w.w.w.w.w.w.w.w.w.w.w.w.w.w.w.w.w.w.w.w.w.w.w.w.w.w.w.w.w.w.w.w.w.w.w.w.w.w.w.w.w.w.w.w.w.w.w.w.w.w.w.w.w.w.w.w.w.w.w.w.w.w.w.w.w.w.w.w.w.w.w.w.w.w.w.w.w.w.w.w.w.w.w.w.w.w.w.w.w.w.w.w.w.w.w.w.w.",
"w.w.> h w F J I U _ ' ' ' ' ' ' ) Y c k w.w.> l m ~ o.O.o.o.O.O.X.O.O.O.| ^ c l w.w.w.w.w.w.w.w.w.w.w.w.w.w.w.w.w.w.w.w.w.w.w.w.w.w.w.w.w.w.w.w.w.w.w.w.w.w.w.w.w.w.w.w.w.w.w.w.w.w.w.w.w.w.w.w.w.w.w.w.w.w.w.w.w.w.w.w.w.w.w.w.w.w.w.w.w.w.w.w.w.w.w.w.w.w.w.w.w.w.w.w.w.w.w.w.w.w.w.w.w.w.w.w.w.w.w.w.w.w.w.w.w.w.w.w.w.w.w.w.",
"- : z s F H J P P I _ ' ' ' ' ' _ Q T v > < x N W ` [ [ o.o.o.X.X.X.X.O. .} / B x - w.w.w.w.w.w.w.w.w.w.w.w.w.w.w.w.w.w.w.w.w.w.w.w.w.w.w.w.w.w.w.w.w.w.w.w.w.w.w.w.w.w.w.w.w.w.w.w.w.w.w.w.w.w.w.w.w.w.w.w.w.w.w.w.w.w.w.w.w.w.w.w.w.w.w.w.w.w.w.w.w.w.w.w.w.w.w.w.w.w.w.w.w.w.w.w.w.w.w.w.w.w.w.w.w.w.w.w.w.w.w.w.w.w.w.w.w.w.",
"- : w G J J J J J L I _ _ _ ` _ _ ` _ Y x k b Q ` ` ' [  .o.+.$.$.$.+.o.o.o. ./ x ; w.w.w.w.w.w.w.w.w.w.w.w.w.w.w.w.w.w.w.w.w.w.w.w.w.w.w.w.w.w.w.w.w.w.w.w.w.w.w.w.w.w.w.w.w.w.w.w.w.w.w.w.w.w.w.w.w.w.w.w.w.w.w.w.w.w.w.w.w.w.w.w.w.w.w.w.w.w.w.w.w.w.w.w.w.w.w.w.w.w.w.w.w.w.w.w.w.w.w.w.w.w.w.w.w.w.w.w.w.w.w.w.w.w.w.w.w.w.",
"- < w H P D J D J J P I _ _ ` _ _ ` ` Q V b T _ ' ' ` ' [ $.;.<.1.,.;.&.o.O.O./ x - - w.w.w.w.w.w.w.w.w.w.w.w.w.w.w.w.w.w.w.w.w.w.w.w.w.w.w.w.w.w.w.w.w.w.w.w.w.w.w.w.w.w.w.w.w.w.w.w.w.w.w.w.w.w.w.w.w.w.w.w.w.w.w.w.w.w.w.w.w.w.w.w.w.w.w.w.w.w.w.w.w.w.w.w.w.w.w.w.w.w.w.w.w.w.w.w.w.w.w.w.w.w.w.w.w.w.w.w.w.w.w.w.w.w.w.w.w.",
"- > z H D D D J D J J P I _ ` _ _ ' _ ) Q Q ) _ ` _ _ _ ' *.2.8.9.8.2.=.o.X. .! x = & w.w.w.w.w.w.w.w.w.w.w.w.w.w.w.w.w.w.w.w.w.w.w.w.w.w.w.w.w.w.w.w.w.w.w.w.w.w.w.w.w.w.w.w.w.w.w.w.w.w.w.w.w.w.w.w.w.w.w.w.w.w.w.w.w.w.w.w.w.w.w.w.w.w.w.w.w.w.w.w.w.w.w.w.w.w.w.w.w.w.w.w.w.w.w.w.w.w.w.w.w.w.w.w.w.w.w.w.w.w.w.w.w.w.w.w.w.",
"- : w F D D J J J J J J P ) _ _ _ _ ` ' ' ' ` _ ` _ _ U ` #.<.6.0.q.5.-.o.X.o.! x ; & w.w.w.w.w.w.w.w.w.w.w.w.w.w.w.w.w.w.w.w.w.w.w.w.w.w.w.w.w.w.w.w.w.w.w.w.w.w.w.w.w.w.w.w.w.w.w.w.w.w.w.w.w.w.w.w.w.w.w.w.w.w.w.w.w.w.w.w.w.w.w.w.w.w.w.w.w.w.w.w.w.w.w.w.w.w.w.w.w.w.w.w.w.w.w.w.w.w.w.w.w.w.w.w.w.w.w.w.w.w.w.w.w.w.w.w.w.",
"- : 9 i Z D J J J J H J J L P _ _ ` _ _ _ ' ' _ _ ' _ _ ` } @.:.4.q.7.;.o.X.o.! x - - - - - - - - ; - ; ; ; ; - ; ; ; ; ; ; ; ; - ; ; ; ; = ; ; ; ; ; ; - ; ; = ; ; ; ; ; ; ; ; ; ; ; ; ; = ; ; ; ; ; ; ; ; ; ; ; ; ; ; ; ; ; ; ; = ; ; ; ; ; ; ; ; ; ; - ; ; = ; ; ; ; ; ; ; ; ; ; ; ; ; ; ; ; ; ; ; ; ; ; ; ; ; ; ; ; ; w.w.w.",
"- : 9 y C S S H H D J J J J L ) _ _ ` _ _ _ _ _ _ _ _ ` ` _ _ ..>.7.3.=.o.X.o.! x ; ; = : , = = = ; ; ; ; ; ; ; ; ; ; ; ; ; ; ; ; = ; ; - ; ; ; ; ; ; ; = ; - ; ; ; ; ; ; ; ; ; ; ; ; ; - ; ; - ; ; ; ; ; ; ; ; ; ; ; ; ; ; ; ; - ; ; ; ; ; ; - ; ; ; ; = ; - ; ; ; ; ; ; ; ; ; ; ; ; ; ; ; ; ; ; ; ; ; ; ; ; ; ; ; ; ; ; ; w.w.",
"- : 9 e C C A S J J D J D J L P I _ _ ` _ _ _ ` _ _ _ ` ` U U ' *.>.;.&.o.O. ./ x , : 8 6 6 7 # ; & - * * * ; * * * * * * * * * ; ; * * * ; * * * ; * - ; ; * * - * * ; * * - * ; ; * * . O * - * ; ; * * * ; * ; * ; * * * ; * ; ; * * * * * - * ; * ; ; - * * ; * * ; * ; * ; * ; * * O O * - * ; ; * * * ; * ; * * * * ; ; w.",
"- : 6 e u u C A S J J J J J J J J U _ ` _ _ _ _ ` _ _ ' ` ` ` ` | ..@. .o.O.o./ x < 7 r y y r 5 O . . . . . . . . . * . . . * . . . . . . . . . . . . . . . . . O . . . . . . . . . . . . . . O . . . . . . . . . . . . . . . . . . . . . . . O . . . . . . . . . . . . . . . . . . . . . . . . . . . . . . . . . . . . % O ; ; ",
"- : 9 y C u u C S S H J S J J J J P I _ _ _ ' ` _ _ _ _ _ ` ` ` _ _ ' [ [ O.o./ x : 6 y C u y 3 @ o . . . . . . . . . . . . . . . . . . . . . . . . . . . . . . . . . . . . . . . . . . . . . . . . . . . . . . . . . . . . . . . . . . . . . . . . . . . . . . . . . . . . . . . . . .   . .   . . . . . . . . . . .   . * ; ; ",
"- < 9 y u u u C C A S J J J J S J J P I _ _ _ _ _ _ _ _ _ _ _ _ _ U ` ' ] o.o.~ x : 6 y u C y e 4 1 o     . . . . . . . . . . . . . . . . . . . . . . . . . . . . . . . . . . . . . . . . . . . . . . . . . . . . . . . . . . . . . . . . . . . . . . . . . . . . . . . . . . . . . . . X     X . . . . . . . . . . . . . * ; ; ",
"- : 6 e y u u u u C S H J J J J J J J L ) _ _ ` _ _ _ _ _ _ _ _ _ _ _ _ ' [ | ^ l : 6 y u u u u y 2 @ X . . . . . . . . . . . . . . . . . . . . . . . . . . . . . .   . .     X . . . . . . . .     .   . . X   . . . . . . . . . . . . . . . . . . . . .   X   . . . .   .   .     . . . . .   . . . . . . . . . . . . . - ; ; ",
"; = $ 9 r y u u u u C A S H J J J H H L P ) U ` _ ` _ ` _ ` _ _ _ _ ' ' _ Q E n < < 6 e u u u C u e 3 @ o .     . . . . . . . . . . .   . . . . . . . . . . . .   . . . . . .   . . . . . . . .   . . X . .     . . . . . . . . . . . . . .   . . . . .       . . . . . . . X     X   . .       .   . . . . . . . . . . . O ; ; ",
"; ; = > 6 t u u u u u C A H J J J J J J J L I _ ' _ _ _ _ ' ` _ _ ` _ _ ) V l < = : 9 y u u u u u y e 2 1 X     . . . . . . . . . . . . . .   . . . . . . . . . . . . . X   . . . . . . . . . . X             . . . . . . . . . . . . . . . . . . .   .   .   X . . . . . . .             X X   . . . . . . . .   . . . . * ; ; ",
"; ; - ; $ 9 e y u u u u C S S J H J D J J J P ) _ _ _ _ ` _ _ _ _ _ _ Q Y c , - - : 9 e u u u u u u u y 3 + o . .   . . . . . . . . . . . . . . . . . . . . . . . . . .       . .   . . . . . .   . .   X   X   . . . . . . .   .   . . . . . . . . . .   . .   . . . . . . .   X .   X   .     . . . . . . . . . . . . . * ; ; ",
"; ; ; - , > 9 r y u u u u Z A H J J J J J J J P P _ _ ` _ _ _ ' ' ' Q M c < ; - - = 9 e u u y u u u u u e 2 1 o       . . . . . . . . . . .   . . . . . . . . .   X   . . X   . . . . . . . . .   . . .   . .   . . .   . . . . . . . . . . . .     .   X       . . . . . . . .   .   . . . .   . .   . . . . . . . . . . * ; ; ",
"; ; ; ; - = : 9 e u u u u u C A S J J J J D J J L U _ _ _ _ ` _ ` ) Y x , - ; ; ; : 9 y u u u u u u u u u y 2 + X   . . . . . . . . . . . . . . . . .   . . . .       .     . . .   . . . . . . X       X   .   . . . . . . . . . . . . . . . .   . . X   .   X . . . .   . . . . . X       . . . .   . . . . . . . . . . * ; ; ",
"; ; ; ; - - = $ 9 r y u u u u A S S H J J S J J L L I _ _ ' ' _ Q N c < - - ; : > 6 r y u u u u u u u u u u e 3 @ o .     . . . . . . . . . . . . .   . . . . .   X . .   .     . . . . .   . . X     X .       . . . . . . . . . .   . . . . . X           . . . . . . . . . . .   X     .       .   X . . . . . .   . . * ; ; ",
"w.w.; ; ; - ; : > 6 t u u u u u C A S J J J J J J J L I _ ` ' ) N x < = - - ; > 0 t y u u u u u u u u y y u y e 2 @ X     . . . . . . . . . . . . . . . . . . . .     X     X   . . . . . .   .     .     X   . . . . .   . . . . . . . . . . .   . .   X   . . . . . . . . . .       . X     X   . .   . .   . . . . . . * ; ; ",
"w.w.w.; ; ; ; - ; > 0 e y u u u u Z S H J J J H J H J P _ ) Q T n , - - - = : 6 t u u u u u u u u u u u u u u u y 3 + X . . . . . . . . . . . . . . . . . . . . .       . . . . . . . . . . . . . . . . .   X   . . . . . . . . . . . . . . . .   X X   . .     . . . . . . .   . . . . . . . .   X   X     X   . . . . . O ; ; ",
"w.w.w.w.; ; = - - , $ 9 r y u u u u C A S J J J J J D P P K M c < = - - = $ 9 r y u u u y u u u u y u u y u u u y e 3 1 o   . . . . . . . . . . . . .   . . . . . .   X . . . . . . . . . . . . . .   X       . . . . . . . . . . . . . . . . . .       . . X   . . . . . . . . . . . . . . . . .       .   . . . . .   . * - = ",
"w.w.w.w.w.; - ; ; ; = : 9 y u u u u u C S S J J J J J J H g j , ; ; ; ; : 9 e u u u u u u u u u u u u u u u u u u u y 2 + . . . . . .   . . . . . . . . . . . . . . .   . . . . . . . . . . . .   X       .   X . . . . . . . . . . . . . . . . .   X   .     . . . . . . . . . . . . . . . . .     . . .   .   . . . . . * ; ; ",
"w.w.w.w.w.w.; ; ; - - = 7 9 r y u u u C C A S J D J J G f q > - - ; : $ 6 r u u u u u u u u u u u u u u u u u u u C u e 3 @ o .   . . . . . . . . . . . . . . . .   X   . . . .   . . . . . . .     .     . .   . . . . . . . . . . . . . . . . .     . . X     . . . . . . . . . . . . . . . .   X . .   X     . .   . . - * ; ",
"w.w.w.w.w.w.w.; ; ; ; ; : > 6 t u u u u u C S S J J H f j : = ; - - > 9 e y u u u u u u u u u u u u u u u u u u u u u u y 2 5 O     . . . . . . . . . . . . . .     . . . . . . . . . . . . . . . . . .   . . . . . . . . . . . . . . . . . . . . . . . . . . . . . . . . . . . . . . . . . . . . . . .   . . . . . .   . - - , ",
"w.w.w.w.w.w.w.w.; ; ; ; - ; $ 0 e y u u u u A A H H g z < - ; ; - = h 0 e e e e e e e y e e e e e e e e y e e e e e e e e r 5 O . . . . . . . . . . . . . . . . . X . . . . . . . . . . . . . . . . . . X . . . . . . . . . . . . . . . . . . . . . . . . . . . . . . . . . . . . . . . . . . . . . . . X . . . . . . % . - - ; ",
"w.w.w.w.w.w.w.w.w.; ; ; - ; : $ 9 r y u u u C Z F p z > = - - ; - ; : 7 6 9 6 6 8 6 6 8 8 6 6 6 6 6 6 8 6 6 6 6 8 6 6 6 9 8 < ; . O * * ; . * * O * * * * * * . . * O * ; * * . * O - . ; * * O ; * . * - O . O . * - O ; * . * - O * * * * O * * * * * * O . O * * * . ; * . * - O * * . * - O ; * . * - O . O * O * . - ; ; ; ",
"w.w.w.w.w.w.w.w.w.w.; ; ; ; ; = > 9 y u u u u u r 7 < ; - ; ; ; ; ; = = , = : = : : = , : = , = : , = : = , = , : = , = : = , ; * ; ; ; ; ; ; ; - ; ; ; ; ; ; ; * * ; ; ; ; ; ; ; ; ; ; ; - ; ; ; ; ; ; ; ; ; ; - ; ; ; ; ; - ; ; ; ; ; - ; - ; ; ; ; ; - ; ; ; ; - ; ; ; ; ; ; ; ; ; ; - ; ; ; ; ; - ; ; ; ; ; ; ; ; ; ; ; ; ; ",
"w.w.w.w.w.w.w.w.w.w.w.; ; ; - - = 7 9 t y u y r 8 : - - - ; ; ; ; ; ; - - - - ; ; ; - - - - - - - - - - - - - - - - - - - , - - ; ; ; ; ; ; ; ; ; - ; ; ; ; ; ; ; ; ; ; ; ; ; ; ; ; ; ; ; ; ; ; ; ; ; ; ; ; ; ; ; ; ; ; ; ; ; ; ; ; ; ; ; ; ; ; ; ; ; ; ; ; ; ; ; ; ; ; ; ; ; ; ; ; ; ; ; ; ; ; ; ; ; ; ; ; ; ; ; ; ; ; ; ; ; ; ",
"w.w.w.w.w.w.w.w.w.w.w.w.; ; ; ; ; : > 9 e y 4 7 : = ; ; ; ; ; ; ; ; ; ; ; ; ; ; ; ; ; ; - - ; ; ; ; ; - - , , - - - - , - - - , ; ; ; ; ; ; ; ; ; , ; ; ; ; ; ; ; ; ; ; ; ; ; ; ; ; ; ; ; ; ; ; ; ; ; ; ; ; ; ; ; ; ; ; ; ; ; ; ; ; ; ; ; ; ; ; ; ; ; ; ; ; ; ; ; ; ; ; ; ; ; ; ; ; ; ; ; ; ; ; ; ; ; ; ; ; , ; ; ; ; ; ; ; w.w.",
"w.w.w.w.w.w.w.w.w.w.w.w.w.; ; ; ; - ; $ 4 r 6 , - ; ; ; ; ; ; ; ; ; ; ; ; ; ; ; ; ; ; ; ; ; ; ; ; ; ; ; ; ; - ; - - - , ; ; ; ; ; ; ; ; ; ; ; ; ; ; ; ; ; ; ; ; ; ; ; ; ; ; ; ; ; ; ; ; ; ; ; ; ; ; ; ; ; ; ; ; ; ; ; ; ; ; ; ; ; ; ; ; ; ; ; ; ; ; ; ; ; - - = ; ; ; ; ; ; ; ; ; ; , ; ; ; ; ; ; ; ; ; ; ; - ; ; ; ; ; ; w.w.w.",
"w.w.w.w.w.w.w.w.w.w.w.w.w.w.; ; ; - ; < 7 8 > = - ; ; ; ; w.w.w.w.w.w.w.w.w.w.w.w.w.w.w.w.w.w.w.w.w.w.w.w.w.w.w.w.w.w.w.w.w.w.w.w.w.w.w.w.w.w.w.w.w.w.w.w.w.w.w.w.w.w.w.w.w.w.w.w.w.w.w.w.w.w.w.w.w.w.w.w.w.w.w.w.w.w.w.w.w.w.w.w.w.w.w.w.w.w.w.w.w.w.w.w.w.w.w.w.w.w.w.w.w.w.w.w.w.w.w.w.w.w.w.w.w.w.w.w.w.w.w.w.w.w.w.w.w.w.w.",
"w.w.w.w.w.w.w.w.w.w.w.w.w.w.w.; ; ; ; = = < , ; ; ; ; ; w.w.w.w.w.w.w.w.w.w.w.w.w.w.w.w.w.w.w.w.w.w.w.w.w.w.w.w.w.w.w.w.w.w.w.w.w.w.w.w.w.w.w.w.w.w.w.w.w.w.w.w.w.w.w.w.w.w.w.w.w.w.w.w.w.w.w.w.w.w.w.w.w.w.w.w.w.w.w.w.w.w.w.w.w.w.w.w.w.w.w.w.w.w.w.w.w.w.w.w.w.w.w.w.w.w.w.w.w.w.w.w.w.w.w.w.w.w.w.w.w.w.w.w.w.w.w.w.w.w.w.w.",
"w.w.w.w.w.w.w.w.w.w.w.w.w.w.w.w.; ; ; ; - - - ; - ; ; w.w.w.w.w.w.w.w.w.w.w.w.w.w.w.w.w.w.w.w.w.w.w.w.w.w.w.w.w.w.w.w.w.w.w.w.w.w.w.w.w.w.w.w.w.w.w.w.w.w.w.w.w.w.w.w.w.w.w.w.w.w.w.w.w.w.w.w.w.w.w.w.w.w.w.w.w.w.w.w.w.w.w.w.w.w.w.w.w.w.w.w.w.w.w.w.w.w.w.w.w.w.w.w.w.w.w.w.w.w.w.w.w.w.w.w.w.w.w.w.w.w.w.w.w.w.w.w.w.w.w.w.w.",
"w.w.w.w.w.w.w.w.w.w.w.w.w.w.w.w.w.; ; ; - - ; ; = w.w.w.w.w.w.w.w.w.w.w.w.w.w.w.w.w.w.w.w.w.w.w.w.w.w.w.w.w.w.w.w.w.w.w.w.w.w.w.w.w.w.w.w.w.w.w.w.w.w.w.w.w.w.w.w.w.w.w.w.w.w.w.w.w.w.w.w.w.w.w.w.w.w.w.w.w.w.w.w.w.w.w.w.w.w.w.w.w.w.w.w.w.w.w.w.w.w.w.w.w.w.w.w.w.w.w.w.w.w.w.w.w.w.w.w.w.w.w.w.w.w.w.w.w.w.w.w.w.w.w.w.w.w.w.",
"w.w.w.w.w.w.w.w.w.w.w.w.w.w.w.w.w.w.; ; ; ; ; ; - w.w.w.w.w.w.w.w.w.w.w.w.w.w.w.w.w.w.w.w.w.w.w.w.w.w.w.w.w.w.w.w.w.w.w.w.w.w.w.w.w.w.w.w.w.w.w.w.w.w.w.w.w.w.w.w.w.w.w.w.w.w.w.w.w.w.w.w.w.w.w.w.w.w.w.w.w.w.w.w.w.w.w.w.w.w.w.w.w.w.w.w.w.w.w.w.w.w.w.w.w.w.w.w.w.w.w.w.w.w.w.w.w.w.w.w.w.w.w.w.w.w.w.w.w.w.w.w.w.w.w.w.w.w.w.",
"w.w.w.w.w.w.w.w.w.w.w.w.w.w.w.w.w.w.w.; ; ; ; ; w.w.w.w.w.w.w.w.w.w.w.w.w.w.w.w.w.w.w.w.w.w.w.w.w.w.w.w.w.w.w.w.w.w.w.w.w.w.w.w.w.w.w.w.w.w.w.w.w.w.w.w.w.w.w.w.w.w.w.w.w.w.w.w.w.w.w.w.w.w.w.w.w.w.w.w.w.w.w.w.w.w.w.w.w.w.w.w.w.w.w.w.w.w.w.w.w.w.w.w.w.w.w.w.w.w.w.w.w.w.w.w.w.w.w.w.w.w.w.w.w.w.w.w.w.w.w.w.w.w.w.w.w.w.w.w.",
"w.w.w.w.w.w.w.w.w.w.w.w.w.w.w.w.w.w.w.w.; ; ; w.w.w.w.w.w.w.w.w.w.w.w.w.w.w.w.w.w.w.w.w.w.w.w.w.w.w.w.w.w.w.w.w.w.w.w.w.w.w.w.w.w.w.w.w.w.w.w.w.w.w.w.w.w.w.w.w.w.w.w.w.w.w.w.w.w.w.w.w.w.w.w.w.w.w.w.w.w.w.w.w.w.w.w.w.w.w.w.w.w.w.w.w.w.w.w.w.w.w.w.w.w.w.w.w.w.w.w.w.w.w.w.w.w.w.w.w.w.w.w.w.w.w.w.w.w.w.w.w.w.w.w.w.w.w.w.w.",
"w.w.w.w.w.w.w.w.w.w.w.w.w.w.w.w.w.w.w.w.; ; ; w.w.w.w.w.w.w.w.w.w.w.w.w.w.w.w.w.w.w.w.w.w.w.w.w.w.w.w.w.w.w.w.w.w.w.w.w.w.w.w.w.w.w.w.w.w.w.w.w.w.w.w.w.w.w.w.w.w.w.w.w.w.w.w.w.w.w.w.w.w.w.w.w.w.w.w.w.w.w.w.w.w.w.w.w.w.w.w.w.w.w.w.w.w.w.w.w.w.w.w.w.w.w.w.w.w.w.w.w.w.w.w.w.w.w.w.w.w.w.w.w.w.w.w.w.w.w.w.w.w.w.w.w.w.w.w.w."
};
