/* XPM */
static char *result[] = {
/* columns rows colors chars-per-pixel */
"128 34 83 1 ",
"  c #161A1A",
". c #1B1B1B",
"X c #201919",
"o c #2E1919",
"O c #321A1A",
"+ c #3C1F1F",
"@ c #1F2828",
"# c #252525",
"$ c #2C2626",
"% c #262A2A",
"& c #292929",
"* c #362222",
"= c #3C2222",
"- c #3E2929",
"; c #4C1717",
": c #551313",
"> c #591111",
", c #541B1B",
"< c #591F1F",
"1 c #6D0707",
"2 c #660A0A",
"3 c #6A0B0B",
"4 c #770101",
"5 c #7B0000",
"6 c #750B0B",
"7 c #621515",
"8 c #651919",
"9 c #691A1A",
"0 c #771414",
"q c #7D1717",
"w c #7E1818",
"e c #442323",
"r c #432929",
"t c #4B2A2A",
"y c #5F2424",
"u c #5E2828",
"i c #632929",
"p c #692D2D",
"a c #752727",
"s c #7F2F2F",
"d c #820303",
"f c #880707",
"g c #8C0A0A",
"h c #940E0E",
"j c #851313",
"k c #821B1B",
"l c #8C1A1A",
"z c #951111",
"x c #9A1111",
"c c #A11414",
"v c #A31C1C",
"b c #A91C1C",
"n c #8C2626",
"m c #832E2E",
"M c #8C2828",
"N c #952727",
"B c #982626",
"V c #9D3030",
"C c #A62525",
"Z c #AD2525",
"A c #A32E2E",
"S c #AC2828",
"D c #B12626",
"F c #B12F2F",
"G c #B92C2C",
"H c #A73030",
"J c #BB3232",
"K c #C42F2F",
"L c #C53131",
"P c #C83232",
"I c #C33A3A",
"U c #BC4545",
"Y c #C24A4A",
"T c #CD5151",
"R c #D25C5C",
"E c #D37777",
"W c #DD8C8C",
"Q c #E58F8F",
"! c #E39090",
"~ c #F4B4B4",
"^ c #F4BEBE",
"/ c #FFD6D6",
"( c None",
/* pixels */
"((((%%%%&&%&&%((((((%%%%%%%%%&((((((((((((((((((((((((((((((((((((((((((((((((((((((((((((((((((((((((((((((((((((((((((((((((((",
"((((eerrreerrr((((((tttttrtttr((((((((((((((((((((((((((((((((((((((((((((((((((((((((((((((((((((((((((((((((((((((((((((((((((",
"((%=9knnnnnnNae@((%rmVVVVVVVVmt@((((((((((((((((((((((((((((((((((((((((((((((((((((((((((((((((((((((((((((((((((((((((((((((((",
"((=yjcbZDDDDDBir((riALLLLLLLPHpr((((((((((((((((((((((((((((((((((((((((((((((((((((((((((((((((((((((((((((((((((((((((((((((((",
"%e9jzxcvZDDZDCBar-aBZGKLKKKKLJHmr&((((((((((((((((((((((((((((((((((((((((((((((((((((((((((((((((((((((((((((((((((((((((((((((",
"%ejcxxxxvSZSZSDBuuBDSSGITRRTIPPVt%((((((((((((((((((((((((((((((((((((((((((((((((((((((((((((((((((((((((((((((((((((((((((((((",
"%eqxxxxxxvZSSDZCNBCDDZDYQ~~QTKPVt%((((((((((((((((((((((((((((((((((((((((((((((((((((((((((((((((((((((((((((((((((((((((((((((",
"%e0hxxxxxxvbZZDSSSSSSZbUW^/~RKLVt%((((((((((((((((((((((((((((((((((((((((((((((((((((((((((((((((((((((((((((((((((((((((((((((",
"%=3fhxxxxxxvZSSZDDZZZDDFUE^~RKKVt&%&%%%%%%%%%%%%&%%%%%%%%%%%%%%%%%%%&&&$&&&&&&&&$$%&&&&&&&&&&#$$&&&&&&&&&&&&$&&&$&&&&&&%&&&&&&((",
"%+2dghxxxxxxvZZSZZSZZSSbbUWQTKKVr$*=+=eeeeeeeeeeeeeeeeeeeeeeeeeeeee=$##################################################o######((",
"%+25dfzxxxxxxvZSZZSDZSSZCFUYILPVt*>2230qqqqqqqjwqqwwjqqqqqqqjqqqqqq8O .@..#....#.X....#..X@..XXXX..#XXX..XX@X....@X@.....X#..#$&",
"%+254dghzxxzzxvZZZZZZZZZSZZDFLLVt+255dhhxxxxxxxxxxxxxxxxxxxxxxxxxxxj,o. ......................  . ... ... ....... .....X... ..#&",
"%+2555dfhxxxxxxvCZZZZZZZZZZZDGKHt=255ddfhxxxxxxxxxxxxxxxxxxxxxxxxxxxj7O  ..........X........X...... ................ X. .....@#$",
"%=:14545fzxxxzxxvZZSDSZSZZZSDSAsr+25544dghxxzxxxxxxxxxxxxxzxxxxxxxxxxg:oX ........  . ......   X.. .......   .... ...X. ... ..##",
"%$*;1555dfzxxxzxxvbDZZSZSZSDDNir$=255445dfhxxxxxhxxxxxxxxxzxxxxxxzxxxhj7o  . .. ...... ........X... .. .............  ...... @#&",
"&&%*>1454dfzxxxxxcvCZZZZZDSSNa-%%=2555544dghxxzxxxxxxxzxxxxxxxxzxxxxxxxj:oX ... ...... ... .X   ..............................#&",
"&&&&*;15555ghxxxxxxvZSDZZDDBi=&%%=25544545dfhxxxxxxxxzxxzxxzxxzxxxxxxxxxj7o   ............. X....... ..... ........  ..... X..o%",
"&&&&%=:14555fhxxxxxxvCZSDCBa-%&&*;2555555545fhzxxzxxxxxxxxxxzxxxxzxzzhxxcj:oX   ...... ....  .X .......  X .......X ...... ...#&",
"((&&&&*;35555fzxxxxxxCZDDBi-&%%*:14445445455dghxxxxzxxxxxxxxxxxxxzxxzxxxxhj7o ......X  X.... .  .......  X.... ....... .......#&",
"((&&&&%*:1455dfhxxzxxxvCBa=%&&*;4555555555544dfhhxxxxzxxzxxzxxxxxxxxxxxxxxcj:o.. .... ......X.X.  .............. X  .. .......#&",
"((((&&&&=;1555dfzxxxxxxli-&%%*:145555455455545dfhxxxxxxxxxxxxxxxxxxxxxxxxxxhj7o .... .   .......X  X....   X.. .X....  ......##$",
"((((&&&&%*:1454dfhzxxzj9=%%$=;65d55455555555554dghxxxxxxxxxxxxxxxxxxxxxxxxcxcj:o. ..X..X.......... .... X.......  ... ........#%",
"((((((&&&&*;14455gzxxl<=$%%=>145555555555555555ddfhxxxxxxxxxxxxxxxxxhxxxxxxxxhj8o....  X ........ X......   ....X ............#&",
"((((((&&&&%*:4455dfzj9=%%%%=>1222222222222222222230jqqqjqqqjwwjwwjjqkwwjqqqjqjj9O..XXX..@X..@.X.XX...#.XXXXX.@X..XXXXX.#.....##&",
"((((((((&&%&=;1555d6,=$%$%&$=+++==++++==+=+=+++==+eeeeeeeeeeeeeeeeeeeeeeeeeeeee=*%########################################$###%&",
"((((((((&&&&%*:1441:*%%&&&&&%%&&%%&&%&%&&%&%&&%%&&%%%%%%%%&%%%%%%%%%%%%%%%%&%%&&%&&&&&&&&&&&&&&&&$&&&&&&&&&&&&&&&&&&&&&&&&&&&&&&",
"((((((((((&&%&*;41;*&&&&&&&&&%&&&&%&&&&%&&&&&%&&&%%&%&&%%%&%&%%&%&%%%&%&%%%&&%%&&&&&&&&&&&&&&&&&&&&&&&&&&&&&&&&&&&&&&&&&&&&&&&((",
"((((((((((&&&&%=>>*%&&&&&&&&&&&&&&&&&&&&&&&&&&&&&&&&&&&&&&&&&&&&&&&&&&&&&&&&&&&&&&&&&&&&&&&&&&&&&&&&&&&&&&&&&&&&&&&&&&&&&&&&&&((",
"((((((((((((&&&$**&&&&((((((((((((((((((((((((((((((((((((((((((((((((((((((((((((((((((((((((((((((((((((((((((((((((((((((((((",
"((((((((((((&&&&&&&&&&((((((((((((((((((((((((((((((((((((((((((((((((((((((((((((((((((((((((((((((((((((((((((((((((((((((((((",
"((((((((((((((&&&&&&((((((((((((((((((((((((((((((((((((((((((((((((((((((((((((((((((((((((((((((((((((((((((((((((((((((((((((",
"((((((((((((((&&&&&&((((((((((((((((((((((((((((((((((((((((((((((((((((((((((((((((((((((((((((((((((((((((((((((((((((((((((((",
"((((((((((((((((&&((((((((((((((((((((((((((((((((((((((((((((((((((((((((((((((((((((((((((((((((((((((((((((((((((((((((((((((",
"((((((((((((((((&&(((((((((((((((((((((((((((((((((((((((((((((((((((((((((((((((((((((((((((((((((((((((((((((((((((((((((((((("
};
